<svg width="1370" height="210" viewBox="0 0 1370 210" fill="none" xmlns="http://www.w3.org/2000/svg">
<rect width="1370" height="210" rx="8" fill="#6CAF2A"/>
<path d="M650.716 156L649.676 152.6H644.476L643.436 156H640.176L645.216 141.66H648.916L653.976 156H650.716ZM647.916 146.74C647.849 146.513 647.763 146.227 647.656 145.88C647.549 145.533 647.443 145.18 647.336 144.82C647.229 144.46 647.143 144.147 647.076 143.88C647.009 144.147 646.916 144.48 646.796 144.88C646.689 145.267 646.583 145.64 646.476 146C646.383 146.347 646.309 146.593 646.256 146.74L645.236 150.06H648.956L647.916 146.74ZM653.984 145.08H657.244L659.304 151.22C659.371 151.42 659.424 151.62 659.464 151.82C659.518 152.02 659.558 152.227 659.584 152.44C659.624 152.653 659.651 152.88 659.664 153.12H659.724C659.764 152.773 659.818 152.447 659.884 152.14C659.964 151.82 660.051 151.513 660.144 151.22L662.164 145.08H665.364L660.744 157.4C660.464 158.147 660.098 158.773 659.644 159.28C659.204 159.787 658.691 160.167 658.104 160.42C657.518 160.673 656.878 160.8 656.184 160.8C655.851 160.8 655.558 160.78 655.304 160.74C655.064 160.713 654.851 160.68 654.664 160.64V158.28C654.811 158.307 654.984 158.333 655.184 158.36C655.398 158.387 655.618 158.4 655.844 158.4C656.258 158.4 656.611 158.313 656.904 158.14C657.211 157.967 657.464 157.727 657.664 157.42C657.864 157.127 658.024 156.807 658.144 156.46L658.324 155.92L653.984 145.08ZM676.951 145.08V156H674.671L674.271 154.6H674.111C673.885 154.973 673.591 155.28 673.231 155.52C672.885 155.747 672.498 155.913 672.071 156.02C671.645 156.14 671.205 156.2 670.751 156.2C669.978 156.2 669.298 156.06 668.711 155.78C668.125 155.5 667.671 155.067 667.351 154.48C667.031 153.893 666.871 153.133 666.871 152.2V145.08H669.851V151.46C669.851 152.233 669.991 152.82 670.271 153.22C670.551 153.62 670.998 153.82 671.611 153.82C672.225 153.82 672.698 153.68 673.031 153.4C673.378 153.12 673.618 152.713 673.751 152.18C673.898 151.647 673.971 150.993 673.971 150.22V145.08H676.951ZM686.176 144.88C686.322 144.88 686.496 144.887 686.696 144.9C686.896 144.913 687.056 144.933 687.176 144.96L686.956 147.76C686.862 147.733 686.722 147.713 686.536 147.7C686.362 147.673 686.209 147.66 686.076 147.66C685.689 147.66 685.316 147.713 684.956 147.82C684.596 147.913 684.269 148.067 683.976 148.28C683.696 148.493 683.469 148.78 683.296 149.14C683.136 149.487 683.056 149.92 683.056 150.44V156H680.076V145.08H682.336L682.776 146.92H682.916C683.129 146.547 683.396 146.207 683.716 145.9C684.036 145.593 684.402 145.347 684.816 145.16C685.242 144.973 685.696 144.88 686.176 144.88ZM691.758 156L687.598 145.08H690.718L692.818 151.3C692.898 151.54 692.964 151.793 693.018 152.06C693.084 152.327 693.131 152.587 693.158 152.84C693.198 153.093 693.224 153.327 693.238 153.54H693.318C693.331 153.313 693.358 153.073 693.398 152.82C693.438 152.567 693.484 152.313 693.538 152.06C693.604 151.793 693.678 151.54 693.758 151.3L695.858 145.08H698.978L694.818 156H691.758ZM705.044 144.88C706.058 144.88 706.924 145.073 707.644 145.46C708.378 145.847 708.944 146.407 709.344 147.14C709.744 147.873 709.944 148.773 709.944 149.84V151.28H702.904C702.931 152.12 703.178 152.78 703.644 153.26C704.124 153.74 704.784 153.98 705.624 153.98C706.331 153.98 706.971 153.913 707.544 153.78C708.118 153.633 708.711 153.413 709.324 153.12V155.42C708.791 155.687 708.224 155.88 707.624 156C707.038 156.133 706.324 156.2 705.484 156.2C704.391 156.2 703.424 156 702.584 155.6C701.744 155.187 701.084 154.567 700.604 153.74C700.124 152.913 699.884 151.873 699.884 150.62C699.884 149.34 700.098 148.28 700.524 147.44C700.964 146.587 701.571 145.947 702.344 145.52C703.118 145.093 704.018 144.88 705.044 144.88ZM705.064 147C704.491 147 704.011 147.187 703.624 147.56C703.251 147.933 703.031 148.513 702.964 149.3H707.144C707.144 148.86 707.064 148.467 706.904 148.12C706.758 147.773 706.531 147.5 706.224 147.3C705.918 147.1 705.531 147 705.064 147ZM715.821 156.2C714.608 156.2 713.614 155.727 712.841 154.78C712.081 153.82 711.701 152.413 711.701 150.56C711.701 148.693 712.088 147.28 712.861 146.32C713.634 145.36 714.648 144.88 715.901 144.88C716.421 144.88 716.881 144.953 717.281 145.1C717.681 145.233 718.021 145.42 718.301 145.66C718.594 145.9 718.841 146.173 719.041 146.48H719.141C719.101 146.267 719.054 145.96 719.001 145.56C718.948 145.147 718.921 144.727 718.921 144.3V140.8H721.901V156H719.621L719.041 154.58H718.921C718.734 154.873 718.494 155.147 718.201 155.4C717.921 155.64 717.588 155.833 717.201 155.98C716.814 156.127 716.354 156.2 715.821 156.2ZM716.861 153.82C717.688 153.82 718.268 153.58 718.601 153.1C718.934 152.607 719.108 151.873 719.121 150.9V150.58C719.121 149.513 718.954 148.7 718.621 148.14C718.301 147.58 717.701 147.3 716.821 147.3C716.168 147.3 715.654 147.587 715.281 148.16C714.908 148.72 714.721 149.533 714.721 150.6C714.721 151.667 714.908 152.473 715.281 153.02C715.654 153.553 716.181 153.82 716.861 153.82ZM727.997 145.08V156H725.017V145.08H727.997ZM726.517 140.8C726.957 140.8 727.337 140.907 727.657 141.12C727.977 141.32 728.137 141.7 728.137 142.26C728.137 142.807 727.977 143.187 727.657 143.4C727.337 143.613 726.957 143.72 726.517 143.72C726.064 143.72 725.677 143.613 725.357 143.4C725.05 143.187 724.897 142.807 724.897 142.26C724.897 141.7 725.05 141.32 725.357 141.12C725.677 140.907 726.064 140.8 726.517 140.8ZM735.551 156.2C734.471 156.2 733.551 156.007 732.791 155.62C732.031 155.22 731.451 154.607 731.051 153.78C730.651 152.953 730.451 151.893 730.451 150.6C730.451 149.267 730.678 148.18 731.131 147.34C731.584 146.5 732.211 145.88 733.011 145.48C733.824 145.08 734.758 144.88 735.811 144.88C736.558 144.88 737.204 144.953 737.751 145.1C738.311 145.247 738.798 145.42 739.211 145.62L738.331 147.92C737.864 147.733 737.424 147.58 737.011 147.46C736.611 147.34 736.211 147.28 735.811 147.28C735.291 147.28 734.858 147.407 734.511 147.66C734.164 147.9 733.904 148.267 733.731 148.76C733.571 149.24 733.491 149.847 733.491 150.58C733.491 151.3 733.578 151.9 733.751 152.38C733.938 152.847 734.204 153.2 734.551 153.44C734.898 153.667 735.318 153.78 735.811 153.78C736.438 153.78 736.991 153.7 737.471 153.54C737.951 153.367 738.418 153.133 738.871 152.84V155.38C738.418 155.673 737.938 155.88 737.431 156C736.938 156.133 736.311 156.2 735.551 156.2Z" fill="white"/>
<path d="M572.267 126L568.367 109H550.967L547.067 126H528.967C536.033 100.733 542.267 77.4 547.667 56H571.667C577.067 77.7333 583.3 101.067 590.367 126H572.267ZM565.567 97C563.167 86.8 561.2 78.6333 559.667 72.5C558.133 78.5667 556.167 86.7333 553.767 97H565.567ZM602.738 56L605.438 62.1L616.538 87C617.471 89.0667 618.538 90.6333 619.738 91.7C620.938 92.7667 622.138 93.3 623.338 93.3C624.605 93.3 625.771 92.7667 626.838 91.7C627.971 90.6333 628.905 89.1 629.638 87.1C630.705 84.0333 631.238 81.3333 631.238 79C631.238 73.4 628.638 69.5333 623.438 67.4C621.238 66.4667 619.671 65.6333 618.738 64.9C617.805 64.1 616.871 62.9 615.938 61.3C615.871 61.4333 615.505 62.2333 614.838 63.7C614.238 65.1667 613.938 66.9333 613.938 69C613.938 73.0667 616.005 76.3 620.138 78.7C620.738 79.0333 621.638 79.5333 622.838 80.2C624.038 80.8667 624.938 81.4667 625.538 82C626.138 82.4667 626.538 83 626.738 83.6C626.671 81.0667 626.138 78.8333 625.138 76.9C624.138 74.9 622.105 72.7333 619.038 70.4C625.571 74.1333 628.838 78.2 628.838 82.6C628.838 85.1333 627.738 87.8 625.538 90.6C625.671 89.9333 625.738 89.4 625.738 89C625.738 85.6 623.371 82.4 618.638 79.4C616.371 77.9333 614.671 76.0667 613.538 73.8C612.405 71.5333 611.838 69.1 611.838 66.5C611.838 64.6333 612.105 62.8 612.638 61C613.238 59.2 614.038 57.5333 615.038 56C615.705 58.4 616.705 60.4 618.038 62C619.438 63.6 621.138 64.7333 623.138 65.4L627.338 56H645.738C644.405 58.7333 642.271 63.4667 639.338 70.2C636.405 76.9333 634.571 81.1333 633.838 82.8C633.038 84.7333 632.405 86.1667 631.938 87.1C631.538 88.0333 631.271 88.6333 631.138 88.9C629.871 91.5667 628.471 94.3 626.938 97.1C625.805 99.2333 625.038 100.8 624.638 101.8C624.238 102.733 624.038 103.833 624.038 105.1V126H606.038V102.8C600.438 89.6667 593.205 74.0667 584.338 56H602.738ZM693.121 56H711.121V100.9C711.121 110.433 708.054 117 701.921 120.6C695.854 124.2 689.021 126 681.421 126C673.821 126 666.954 124.2 660.821 120.6C654.754 117 651.721 110.433 651.721 100.9V56H669.721V100.9C669.721 104.833 670.787 107.933 672.921 110.2C675.054 112.4 677.887 113.5 681.421 113.5C684.954 113.5 688.121 112.5 690.921 110.5C693.787 108.433 696.021 105.767 697.621 102.5C699.221 99.2333 700.021 95.8667 700.021 92.4C700.021 89.2667 699.287 86.3667 697.821 83.7C696.421 80.9667 694.254 78.8 691.321 77.2C688.187 75.4667 685.821 74 684.221 72.8C682.621 71.5333 681.321 70.0333 680.321 68.3C680.254 68.8333 680.054 69.5667 679.721 70.5C679.454 71.3667 679.187 72.3667 678.921 73.5C678.654 74.5667 678.521 75.6 678.521 76.6C678.521 81 681.121 84.7 686.321 87.7L688.621 89C690.487 90.0667 691.821 90.9333 692.621 91.6C693.487 92.2 694.087 92.9667 694.421 93.9C694.421 91.3667 694.187 89.3 693.721 87.7C693.321 86.1 692.454 84.5667 691.121 83.1C689.787 81.5667 687.721 79.7333 684.921 77.6C688.654 79.4 691.621 81.6333 693.821 84.3C696.087 86.9667 697.221 89.9 697.221 93.1C697.221 97.1 695.421 101.133 691.821 105.2C692.287 103.533 692.521 101.9 692.521 100.3C692.521 98.0333 691.887 96 690.621 94.2C689.421 92.4 687.387 90.5667 684.521 88.7C678.854 85.0333 676.021 80.2333 676.021 74.3C676.021 71.2333 676.787 67.8 678.321 64C679.321 65.8 680.621 67.4333 682.221 68.9C683.821 70.3667 685.954 71.7667 688.621 73.1L693.121 75.3V56ZM717.55 77.4C717.55 72.4667 719.017 68.4 721.95 65.2C724.884 61.9333 728.484 59.6 732.75 58.2C737.084 56.7333 741.35 56 745.55 56C756.15 56 764.684 59.2333 771.15 65.7L762.95 76C760.817 73.6 758.05 71.7667 754.65 70.5C751.25 69.1667 748.017 68.5 744.95 68.5C742.017 68.5 739.65 69.1 737.85 70.3C736.117 71.5 735.25 73.1 735.25 75.1C735.25 76.7 735.75 78.0333 736.75 79.1C737.75 80.1 739.417 81 741.75 81.8C744.15 82.5333 747.55 83.2667 751.95 84C757.95 85 762.717 86.3 766.25 87.9C769.85 89.5 772.45 91.5333 774.05 94C775.717 96.4 776.55 99.4667 776.55 103.2C776.55 108.133 775.117 112.333 772.25 115.8C769.384 119.2 765.717 121.767 761.25 123.5C756.784 125.167 752.217 126 747.55 126C744.15 126 741.05 125.633 738.25 124.9C735.517 124.1 732.684 123.067 729.75 121.8C728.75 121.4 727.817 121.033 726.95 120.7C726.084 120.367 725.417 120.2 724.95 120.2C724.017 120.2 723.45 120.767 723.25 121.9C722.117 119.433 721.55 116.933 721.55 114.4C721.55 111.733 722.117 109.5 723.25 107.7C725.65 103.967 730.15 102.1 736.75 102.1C741.35 102.1 746.55 103 752.35 104.8C747.217 103.8 743.05 103.3 739.85 103.3C735.784 103.3 732.617 103.933 730.35 105.2C728.084 106.467 726.984 108.433 727.05 111.1C728.317 109.567 730.25 108.8 732.85 108.8C734.25 108.8 735.65 108.967 737.05 109.3C738.517 109.633 739.85 110 741.05 110.4C742.317 110.733 743.184 110.967 743.65 111.1C746.25 111.833 748.517 112.2 750.45 112.2C753.517 112.2 756.117 111.533 758.25 110.2C760.45 108.867 762.084 107.167 763.15 105.1C764.217 102.967 764.75 100.8 764.75 98.6C763.084 100.2 761.017 101 758.55 101C756.017 101 752.484 100.033 747.95 98.1C744.017 96.4333 740.217 95.6 736.55 95.6C732.95 95.6 729.75 96.4 726.95 98C724.15 99.6 722.017 101.867 720.55 104.8C719.484 106.933 718.95 109.433 718.95 112.3C718.95 116.367 719.95 119.967 721.95 123.1C720.417 121.633 719.217 119.633 718.35 117.1C717.55 114.5 717.15 111.833 717.15 109.1C717.15 106.3 717.55 103.867 718.35 101.8C719.084 99.8667 720.217 98.0667 721.75 96.4C723.35 94.7333 725.217 93.5667 727.35 92.9C720.817 89.2333 717.55 84.0667 717.55 77.4ZM783.557 126V56H801.557V85.2C804.557 83 807.89 81.9 811.557 81.9C812.89 81.9 814.423 82.0667 816.157 82.4C817.89 82.6667 819.657 83 821.457 83.4C822.857 83.8667 824.357 84.1 825.957 84.1C826.89 84.1 827.79 83.9333 828.657 83.6C828.323 83.6667 827.89 83.7 827.357 83.7C825.957 83.7 824.923 83.3333 824.257 82.6C823.657 81.8 823.29 80.9667 823.157 80.1C823.09 79.1667 823.057 77.9667 823.057 76.5V56H841.057V126H823.057V97.6C820.723 98.4 818.223 98.7 815.557 98.5C810.957 98.2333 807.49 98.9333 805.157 100.6C802.823 102.267 801.657 104.767 801.657 108.1C801.657 108.767 801.79 109.9 802.057 111.5C800.99 108.967 800.457 106.3 800.457 103.5C800.457 101.033 800.89 98.8333 801.757 96.9C804.223 91.6333 809.257 89 816.857 89C818.457 89 820.09 89.1 821.757 89.3C816.757 89.3667 812.957 90.0333 810.357 91.3C807.757 92.5667 805.823 94.4333 804.557 96.9C805.357 96.3 806.523 96 808.057 96C808.79 96 811.023 96.2 814.757 96.6C815.357 96.6667 816.223 96.7 817.357 96.7C820.223 96.7 822.523 96.2 824.257 95.2C825.99 94.1333 827.223 92.9333 827.957 91.6C828.69 90.2667 829.423 88.6 830.157 86.6C830.557 85.4 830.823 84.6667 830.957 84.4C829.023 85.2667 826.69 85.7 823.957 85.7C822.223 85.7 819.857 85.5333 816.857 85.2C815.39 85.0667 814.357 85 813.757 85C808.09 85 803.923 86.8667 801.257 90.6C798.657 94.2667 797.357 98.5667 797.357 103.5C797.357 106.367 797.557 108.8 797.957 110.8C798.357 112.733 798.99 115.133 799.857 118C800.457 119.867 800.89 121.367 801.157 122.5C801.423 123.567 801.557 124.733 801.557 126H783.557Z" fill="white"/>
</svg>
