<svg width="112" height="40" viewBox="0 0 112 40" fill="none" xmlns="http://www.w3.org/2000/svg">
<rect x="2" y="2" width="108" height="36" rx="5.3617" stroke="#AFAFAF" stroke-width="2.29787"/>
<path d="M90.8511 20.3831L96.2128 26.6477L101.575 20.3831" stroke="#414141" stroke-width="1.98529" stroke-linecap="round" stroke-linejoin="round"/>
<path d="M11.1771 27.5317V13.7193H19.8369V15.5133H13.2611V19.7218H19.385V21.509H13.2611V25.7377H19.9178V27.5317H11.1771ZM24.4753 21.3809V27.5317H22.4587V17.1724H24.3944V18.8585H24.5225C24.7608 18.31 25.134 17.8693 25.6421 17.5366C26.1546 17.2039 26.7998 17.0375 27.5777 17.0375C28.2836 17.0375 28.9018 17.1859 29.4324 17.4827C29.9629 17.7749 30.3743 18.2111 30.6666 18.7911C30.9589 19.3711 31.105 20.0882 31.105 20.9425V27.5317H29.0884V21.1853C29.0884 20.4344 28.8928 19.8477 28.5017 19.425C28.1105 18.9979 27.5732 18.7843 26.8898 18.7843C26.4222 18.7843 26.0063 18.8855 25.6421 19.0878C25.2824 19.2902 24.9969 19.5869 24.7855 19.9781C24.5787 20.3648 24.4753 20.8324 24.4753 21.3809ZM38.1528 31.6323C37.33 31.6323 36.6219 31.5244 36.0284 31.3086C35.4393 31.0927 34.9582 30.8072 34.5851 30.452C34.2119 30.0968 33.9331 29.7079 33.7488 29.2853L35.4821 28.5704C35.6035 28.7682 35.7653 28.9773 35.9677 29.1976C36.1745 29.4224 36.4532 29.6135 36.8039 29.7709C37.1592 29.9282 37.6155 30.0069 38.1731 30.0069C38.9374 30.0069 39.5691 29.8203 40.0682 29.4471C40.5673 29.0784 40.8168 28.4894 40.8168 27.6801V25.6433H40.6887C40.5673 25.8636 40.3919 26.1087 40.1626 26.3785C39.9378 26.6482 39.6276 26.882 39.2319 27.0799C38.8362 27.2777 38.3214 27.3766 37.6875 27.3766C36.8691 27.3766 36.1318 27.1855 35.4753 26.8033C34.8234 26.4167 34.3063 25.8479 33.9241 25.097C33.5464 24.3417 33.3576 23.4132 33.3576 22.3116C33.3576 21.21 33.5442 20.2658 33.9174 19.479C34.2951 18.6922 34.8121 18.0897 35.4686 17.6715C36.125 17.2489 36.8691 17.0375 37.7009 17.0375C38.3439 17.0375 38.8632 17.1455 39.2589 17.3613C39.6546 17.5726 39.9625 17.8199 40.1829 18.1032C40.4077 18.3864 40.5808 18.636 40.7022 18.8518H40.8506V17.1724H42.8266V27.761C42.8266 28.6513 42.6198 29.3819 42.2062 29.953C41.7925 30.524 41.2327 30.9466 40.5268 31.2209C39.8254 31.4952 39.0341 31.6323 38.1528 31.6323ZM38.1326 25.704C38.7126 25.704 39.2027 25.5691 39.6029 25.2994C40.0075 25.0251 40.3133 24.6339 40.5201 24.1258C40.7314 23.6133 40.8371 22.9995 40.8371 22.2846C40.8371 21.5877 40.7337 20.974 40.5268 20.4434C40.32 19.9129 40.0165 19.4992 39.6163 19.2025C39.2162 18.9012 38.7216 18.7506 38.1326 18.7506C37.5256 18.7506 37.0198 18.908 36.6151 19.2227C36.2104 19.533 35.9047 19.9556 35.6979 20.4906C35.4955 21.0257 35.3944 21.6237 35.3944 22.2846C35.3944 22.9636 35.4978 23.5593 35.7046 24.0719C35.9114 24.5845 36.2172 24.9846 36.6219 25.2724C37.031 25.5601 37.5346 25.704 38.1326 25.704ZM47.5477 13.7193V27.5317H45.5311V13.7193H47.5477ZM50.2606 27.5317V17.1724H52.2772V27.5317H50.2606ZM51.279 15.574C50.9283 15.574 50.627 15.4571 50.3752 15.2233C50.128 14.985 50.0043 14.7018 50.0043 14.3735C50.0043 14.0408 50.128 13.7575 50.3752 13.5237C50.627 13.2854 50.9283 13.1663 51.279 13.1663C51.6297 13.1663 51.9287 13.2854 52.176 13.5237C52.4278 13.7575 52.5537 14.0408 52.5537 14.3735C52.5537 14.7018 52.4278 14.985 52.176 15.2233C51.9287 15.4571 51.6297 15.574 51.279 15.574ZM62.7528 19.7016L60.9251 20.0253C60.8486 19.7915 60.7273 19.5689 60.5609 19.3576C60.399 19.1463 60.1787 18.9732 59.8999 18.8383C59.6212 18.7034 59.2727 18.636 58.8546 18.636C58.2836 18.636 57.807 18.7641 57.4248 19.0204C57.0426 19.2722 56.8515 19.5981 56.8515 19.9983C56.8515 20.3445 56.9796 20.6233 57.2359 20.8346C57.4922 21.0459 57.9059 21.219 58.4769 21.3539L60.1225 21.7316C61.0757 21.9519 61.7861 22.2914 62.2537 22.75C62.7213 23.2086 62.9551 23.8044 62.9551 24.5373C62.9551 25.1577 62.7753 25.7108 62.4156 26.1964C62.0604 26.6775 61.5635 27.0551 60.9251 27.3294C60.2911 27.6037 59.556 27.7408 58.7197 27.7408C57.5597 27.7408 56.6132 27.4935 55.8803 26.9989C55.1474 26.4999 54.6978 25.7917 54.5315 24.8745L56.4806 24.5777C56.602 25.0858 56.8515 25.4702 57.2292 25.731C57.6069 25.9873 58.0992 26.1154 58.7062 26.1154C59.3671 26.1154 59.8954 25.9783 60.2911 25.704C60.6868 25.4253 60.8846 25.0858 60.8846 24.6856C60.8846 24.3619 60.7632 24.0899 60.5204 23.8696C60.2821 23.6492 59.9157 23.4829 59.4211 23.3705L57.6676 22.9861C56.7009 22.7657 55.986 22.415 55.5229 21.9339C55.0643 21.4528 54.8349 20.8436 54.8349 20.1062C54.8349 19.4947 55.0058 18.9597 55.3475 18.5011C55.6892 18.0425 56.1613 17.685 56.7638 17.4287C57.3663 17.1679 58.0565 17.0375 58.8343 17.0375C59.9539 17.0375 60.8352 17.2803 61.4781 17.7659C62.1211 18.247 62.546 18.8922 62.7528 19.7016ZM67.1889 21.3809V27.5317H65.1723V13.7193H67.1619V18.8585H67.2901C67.5329 18.301 67.9038 17.8581 68.4029 17.5299C68.902 17.2017 69.5539 17.0375 70.3587 17.0375C71.0691 17.0375 71.6896 17.1837 72.2202 17.4759C72.7552 17.7682 73.1689 18.2043 73.4611 18.7843C73.7579 19.3598 73.9063 20.0792 73.9063 20.9425V27.5317H71.8897V21.1853C71.8897 20.4255 71.6941 19.8364 71.3029 19.4183C70.9118 18.9957 70.3677 18.7843 69.6708 18.7843C69.1942 18.7843 68.7671 18.8855 68.3894 19.0878C68.0162 19.2902 67.7217 19.5869 67.5059 19.9781C67.2946 20.3648 67.1889 20.8324 67.1889 21.3809Z" fill="black"/>
</svg>
