<svg width="330" height="56" viewBox="0 0 330 56" fill="none" xmlns="http://www.w3.org/2000/svg">
<rect width="289" height="56" rx="12.2713" fill="#E9F4FB"/>
<path d="M36.8249 43.0012C35.5626 41.5969 34.0144 40.4791 32.2842 39.7229C30.5541 38.9667 28.6821 38.5897 26.794 38.6171H26.7543C24.8853 38.5934 23.0329 38.9713 21.3225 39.7253C19.6122 40.4792 18.0836 41.5916 16.8402 42.9873C16.2509 43.6639 15.4176 44.0796 14.5226 44.1434C13.6276 44.2072 12.7437 43.9139 12.0645 43.3276C11.3852 42.7414 10.9657 41.91 10.8979 41.0153C10.8301 40.1205 11.1194 39.2354 11.7025 38.5535C13.5806 36.4213 15.8949 34.7176 18.4887 33.5577C21.0825 32.3978 23.8952 31.8087 26.7365 31.8304H26.7941C28.1451 31.8298 29.493 31.9589 30.8192 32.2162" stroke="#0D0D0D" stroke-width="0.862096" stroke-linecap="round" stroke-linejoin="round"/>
<path d="M12.0399 38.2144C13.449 36.9475 14.5697 35.3928 15.3261 33.6554C16.0824 31.918 16.4569 30.0384 16.4241 28.1438C16.4478 26.2748 16.0699 24.4224 15.3159 22.712C14.562 21.0017 13.4495 19.4731 12.0539 18.2297C11.3725 17.6418 10.9526 16.8072 10.8866 15.9097C10.8206 15.0121 11.1138 14.1251 11.7017 13.4438C12.2897 12.7624 13.1243 12.3425 14.0218 12.2765C14.9193 12.2105 15.8064 12.5037 16.4877 13.0916C18.6198 14.9697 20.3235 17.284 21.4834 19.8778C22.6433 22.4716 23.2324 25.2844 23.2107 28.1256C23.2151 29.496 23.0859 30.8634 22.8249 32.2087" stroke="#0D0D0D" stroke-width="0.862096" stroke-linecap="round" stroke-linejoin="round"/>
<path d="M16.8271 13.4291C18.0894 14.8334 19.6376 15.9512 21.3678 16.7074C23.098 17.4636 24.97 17.8407 26.858 17.8132H26.8977C28.7668 17.8369 30.6191 17.459 32.3295 16.7051C34.0399 15.9511 35.5684 14.8387 36.8118 13.443C37.4011 12.7664 38.2344 12.3507 39.1294 12.2869C40.0244 12.2231 40.9083 12.5164 41.5876 13.1027C42.2669 13.6889 42.6863 14.5203 42.7541 15.415C42.822 16.3098 42.5326 17.1949 41.9495 17.8768C40.0714 20.009 37.7571 21.7127 35.1633 22.8726C32.5695 24.0325 29.7568 24.6216 26.9156 24.5999H26.8579C25.5068 24.6006 24.1588 24.4713 22.8324 24.214" stroke="#0D0D0D" stroke-width="0.862096" stroke-linecap="round" stroke-linejoin="round"/>
<path d="M41.6128 18.2173C40.2036 19.4842 39.0829 21.0389 38.3266 22.7763C37.5702 24.5137 37.1958 26.3933 37.2286 28.2879C37.2049 30.157 37.5828 32.0093 38.3368 33.7197C39.0907 35.4301 40.2031 36.9587 41.5988 38.202C41.9384 38.4925 42.2174 38.8472 42.4195 39.2457C42.6217 39.6442 42.7432 40.0788 42.777 40.5244C42.8108 40.97 42.7562 41.4179 42.6164 41.8424C42.4766 42.2668 42.2543 42.6595 41.9623 42.9978C41.6704 43.3362 41.3144 43.6135 40.915 43.8139C40.5155 44.0142 40.0804 44.1338 39.6347 44.1655C39.1889 44.1973 38.7413 44.1407 38.3174 43.999C37.8936 43.8572 37.5019 43.6332 37.1649 43.3397C35.0328 41.4616 33.3292 39.1473 32.1693 36.5535C31.0093 33.9597 30.4203 31.147 30.442 28.3057C30.4376 26.9354 30.5668 25.5679 30.8278 24.2227" stroke="#0D0D0D" stroke-width="0.862096" stroke-linecap="round" stroke-linejoin="round"/>
<path d="M51.542 19.1963H55.4307L60.0805 27.6048H60.2661L64.9159 19.1963H68.8046L61.8903 31.113V38.2036H58.4563V31.113L51.542 19.1963ZM74.6585 38.482C73.2664 38.482 72.0599 38.1758 71.039 37.5632C70.0181 36.9507 69.2261 36.0937 68.663 34.9924C68.1062 33.8911 67.8278 32.6041 67.8278 31.1315C67.8278 29.659 68.1062 28.3689 68.663 27.2614C69.2261 26.1539 70.0181 25.2938 71.039 24.6813C72.0599 24.0688 73.2664 23.7625 74.6585 23.7625C76.0507 23.7625 77.2572 24.0688 78.2781 24.6813C79.299 25.2938 80.0879 26.1539 80.6447 27.2614C81.2078 28.3689 81.4893 29.659 81.4893 31.1315C81.4893 32.6041 81.2078 33.8911 80.6447 34.9924C80.0879 36.0937 79.299 36.9507 78.2781 37.5632C77.2572 38.1758 76.0507 38.482 74.6585 38.482ZM74.6771 35.7906C75.4319 35.7906 76.063 35.5833 76.5704 35.1687C77.0778 34.748 77.4552 34.185 77.7027 33.4796C77.9563 32.7743 78.0832 31.9885 78.0832 31.1223C78.0832 30.2499 77.9563 29.461 77.7027 28.7556C77.4552 28.0441 77.0778 27.4779 76.5704 27.0572C76.063 26.6365 75.4319 26.4261 74.6771 26.4261C73.9037 26.4261 73.2602 26.6365 72.7466 27.0572C72.2393 27.4779 71.8588 28.0441 71.6051 28.7556C71.3576 29.461 71.2339 30.2499 71.2339 31.1223C71.2339 31.9885 71.3576 32.7743 71.6051 33.4796C71.8588 34.185 72.2393 34.748 72.7466 35.1687C73.2602 35.5833 73.9037 35.7906 74.6771 35.7906ZM93.4269 32.2081V23.9481H96.7866V38.2036H93.529V35.6699H93.3805C93.0587 36.4681 92.5297 37.1208 91.7934 37.6282C91.0633 38.1356 90.1631 38.3892 89.0927 38.3892C88.1584 38.3892 87.3324 38.182 86.6147 37.7674C85.9031 37.3467 85.3463 36.7372 84.9441 35.9391C84.5419 35.1347 84.3409 34.1633 84.3409 33.0249V23.9481H87.7006V32.5051C87.7006 33.4085 87.948 34.1262 88.443 34.6583C88.938 35.1904 89.5877 35.4565 90.392 35.4565C90.887 35.4565 91.3665 35.3358 91.8306 35.0945C92.2946 34.8532 92.6751 34.4943 92.9721 34.0179C93.2753 33.5353 93.4269 32.932 93.4269 32.2081ZM100.241 38.2036V23.9481H103.499V26.324H103.648C103.907 25.5011 104.353 24.8669 104.984 24.4214C105.621 23.9698 106.348 23.7439 107.165 23.7439C107.351 23.7439 107.558 23.7532 107.787 23.7718C108.022 23.7841 108.217 23.8058 108.372 23.8367V26.9273C108.229 26.8778 108.003 26.8345 107.694 26.7973C107.391 26.754 107.097 26.7324 106.812 26.7324C106.2 26.7324 105.649 26.8654 105.16 27.1315C104.678 27.3913 104.297 27.7533 104.019 28.2173C103.74 28.6814 103.601 29.2166 103.601 29.8229V38.2036H100.241ZM119.676 38.2036H116L122.692 19.1963H126.943L133.643 38.2036H129.968L124.892 23.0943H124.743L119.676 38.2036ZM119.796 30.751H129.82V33.5167H119.796V30.751ZM139.59 19.1963V38.2036H136.147V19.1963H139.59ZM152.242 38.2036H148.567L155.259 19.1963H159.509L166.21 38.2036H162.535L157.458 23.0943H157.31L152.242 38.2036ZM152.363 30.751H162.387V33.5167H152.363V30.751ZM179.603 27.7162L176.54 28.0503C176.453 27.7409 176.302 27.4501 176.085 27.1779C175.875 26.9056 175.59 26.686 175.231 26.5189C174.872 26.3519 174.433 26.2683 173.913 26.2683C173.214 26.2683 172.627 26.4199 172.15 26.7231C171.68 27.0263 171.448 27.4192 171.454 27.9018C171.448 28.3163 171.599 28.6535 171.909 28.9134C172.224 29.1733 172.744 29.3867 173.468 29.5538L175.9 30.0735C177.248 30.3643 178.251 30.8253 178.907 31.4564C179.569 32.0875 179.903 32.9135 179.909 33.9344C179.903 34.8315 179.64 35.6235 179.12 36.3103C178.607 36.9909 177.892 37.523 176.976 37.9066C176.06 38.2902 175.009 38.482 173.821 38.482C172.076 38.482 170.671 38.117 169.607 37.3869C168.543 36.6506 167.909 35.6266 167.705 34.3149L170.981 33.9994C171.129 34.6428 171.445 35.1285 171.927 35.4565C172.41 35.7844 173.038 35.9483 173.811 35.9483C174.61 35.9483 175.25 35.7844 175.733 35.4565C176.221 35.1285 176.466 34.7233 176.466 34.2407C176.466 33.8323 176.308 33.4951 175.992 33.229C175.683 32.963 175.2 32.7588 174.545 32.6165L172.113 32.106C170.746 31.8214 169.734 31.3419 169.078 30.6675C168.422 29.9869 168.097 29.1269 168.104 28.0874C168.097 27.2088 168.336 26.4478 168.818 25.8043C169.307 25.1546 169.985 24.6535 170.851 24.3008C171.723 23.9419 172.729 23.7625 173.867 23.7625C175.538 23.7625 176.852 24.1183 177.811 24.8298C178.777 25.5413 179.374 26.5035 179.603 27.7162ZM193.946 27.7162L190.884 28.0503C190.797 27.7409 190.645 27.4501 190.429 27.1779C190.219 26.9056 189.934 26.686 189.575 26.5189C189.216 26.3519 188.777 26.2683 188.257 26.2683C187.558 26.2683 186.97 26.4199 186.494 26.7231C186.024 27.0263 185.792 27.4192 185.798 27.9018C185.792 28.3163 185.943 28.6535 186.252 28.9134C186.568 29.1733 187.088 29.3867 187.812 29.5538L190.243 30.0735C191.592 30.3643 192.594 30.8253 193.25 31.4564C193.912 32.0875 194.246 32.9135 194.253 33.9344C194.246 34.8315 193.983 35.6235 193.464 36.3103C192.95 36.9909 192.236 37.523 191.32 37.9066C190.404 38.2902 189.352 38.482 188.164 38.482C186.42 38.482 185.015 38.117 183.951 37.3869C182.887 36.6506 182.252 35.6266 182.048 34.3149L185.324 33.9994C185.473 34.6428 185.788 35.1285 186.271 35.4565C186.754 35.7844 187.382 35.9483 188.155 35.9483C188.953 35.9483 189.594 35.7844 190.076 35.4565C190.565 35.1285 190.809 34.7233 190.809 34.2407C190.809 33.8323 190.652 33.4951 190.336 33.229C190.027 32.963 189.544 32.7588 188.888 32.6165L186.457 32.106C185.089 31.8214 184.078 31.3419 183.422 30.6675C182.766 29.9869 182.441 29.1269 182.447 28.0874C182.441 27.2088 182.679 26.4478 183.162 25.8043C183.651 25.1546 184.328 24.6535 185.194 24.3008C186.067 23.9419 187.072 23.7625 188.211 23.7625C189.881 23.7625 191.196 24.1183 192.155 24.8298C193.12 25.5413 193.717 26.5035 193.946 27.7162ZM197.023 38.2036V23.9481H200.383V38.2036H197.023ZM198.712 21.9249C198.18 21.9249 197.722 21.7485 197.339 21.3958C196.955 21.037 196.763 20.607 196.763 20.1058C196.763 19.5984 196.955 19.1684 197.339 18.8157C197.722 18.4569 198.18 18.2774 198.712 18.2774C199.25 18.2774 199.708 18.4569 200.086 18.8157C200.469 19.1684 200.661 19.5984 200.661 20.1058C200.661 20.607 200.469 21.037 200.086 21.3958C199.708 21.7485 199.25 21.9249 198.712 21.9249ZM215.105 27.7162L212.042 28.0503C211.955 27.7409 211.804 27.4501 211.587 27.1779C211.377 26.9056 211.092 26.686 210.733 26.5189C210.374 26.3519 209.935 26.2683 209.415 26.2683C208.716 26.2683 208.128 26.4199 207.652 26.7231C207.182 27.0263 206.95 27.4192 206.956 27.9018C206.95 28.3163 207.101 28.6535 207.411 28.9134C207.726 29.1733 208.246 29.3867 208.97 29.5538L211.401 30.0735C212.75 30.3643 213.753 30.8253 214.408 31.4564C215.071 32.0875 215.405 32.9135 215.411 33.9344C215.405 34.8315 215.142 35.6235 214.622 36.3103C214.108 36.9909 213.394 37.523 212.478 37.9066C211.562 38.2902 210.51 38.482 209.323 38.482C207.578 38.482 206.173 38.117 205.109 37.3869C204.045 36.6506 203.411 35.6266 203.206 34.3149L206.483 33.9994C206.631 34.6428 206.947 35.1285 207.429 35.4565C207.912 35.7844 208.54 35.9483 209.313 35.9483C210.111 35.9483 210.752 35.7844 211.234 35.4565C211.723 35.1285 211.968 34.7233 211.968 34.2407C211.968 33.8323 211.81 33.4951 211.494 33.229C211.185 32.963 210.702 32.7588 210.046 32.6165L207.615 32.106C206.247 31.8214 205.236 31.3419 204.58 30.6675C203.924 29.9869 203.599 29.1269 203.605 28.0874C203.599 27.2088 203.838 26.4478 204.32 25.8043C204.809 25.1546 205.486 24.6535 206.353 24.3008C207.225 23.9419 208.23 23.7625 209.369 23.7625C211.04 23.7625 212.354 24.1183 213.313 24.8298C214.279 25.5413 214.876 26.5035 215.105 27.7162ZM225.3 23.9481V26.5468H217.105V23.9481H225.3ZM219.128 20.5327H222.488V33.9158C222.488 34.3675 222.556 34.714 222.692 34.9553C222.834 35.1904 223.02 35.3513 223.249 35.4379C223.478 35.5245 223.731 35.5678 224.01 35.5678C224.22 35.5678 224.412 35.5524 224.585 35.5214C224.764 35.4905 224.901 35.4626 224.993 35.4379L225.56 38.0644C225.38 38.1263 225.123 38.1943 224.789 38.2686C224.461 38.3428 224.059 38.3861 223.583 38.3985C222.741 38.4233 221.983 38.2964 221.309 38.018C220.634 37.7334 220.099 37.2941 219.703 36.7001C219.313 36.1061 219.122 35.3636 219.128 34.4727V20.5327ZM232.212 38.4913C231.308 38.4913 230.495 38.3305 229.771 38.0087C229.053 37.6808 228.484 37.1982 228.063 36.5609C227.649 35.9236 227.441 35.1378 227.441 34.2035C227.441 33.3992 227.59 32.7341 227.887 32.2081C228.184 31.6822 228.589 31.2615 229.103 30.9459C229.616 30.6304 230.195 30.3922 230.838 30.2313C231.488 30.0642 232.159 29.9436 232.852 29.8693C233.687 29.7827 234.365 29.7054 234.885 29.6373C235.404 29.5631 235.782 29.4517 236.017 29.3032C236.258 29.1485 236.379 28.9103 236.379 28.5886V28.5329C236.379 27.8337 236.172 27.2923 235.757 26.9087C235.342 26.5251 234.745 26.3333 233.966 26.3333C233.143 26.3333 232.49 26.5127 232.007 26.8716C231.531 27.2305 231.209 27.6543 231.042 28.1431L227.905 27.6976C228.153 26.8314 228.561 26.1075 229.13 25.5259C229.7 24.9381 230.396 24.4988 231.219 24.208C232.041 23.911 232.951 23.7625 233.947 23.7625C234.634 23.7625 235.318 23.8429 235.998 24.0038C236.679 24.1647 237.301 24.4307 237.864 24.8019C238.427 25.167 238.878 25.6651 239.219 26.2962C239.565 26.9273 239.738 27.7162 239.738 28.6628V38.2036H236.509V36.2453H236.397C236.193 36.6413 235.905 37.0126 235.534 37.359C235.169 37.6993 234.708 37.9747 234.151 38.1851C233.601 38.3892 232.954 38.4913 232.212 38.4913ZM233.084 36.0226C233.758 36.0226 234.343 35.8896 234.838 35.6235C235.333 35.3513 235.714 34.9924 235.98 34.5469C236.252 34.1014 236.388 33.6157 236.388 33.0898V31.41C236.283 31.4966 236.103 31.577 235.85 31.6513C235.602 31.7255 235.324 31.7905 235.014 31.8462C234.705 31.9019 234.399 31.9514 234.096 31.9947C233.792 32.038 233.53 32.0751 233.307 32.106C232.806 32.1741 232.357 32.2855 231.961 32.4402C231.565 32.5948 231.253 32.8114 231.024 33.0898C230.795 33.3621 230.68 33.7147 230.68 34.1478C230.68 34.7666 230.906 35.2337 231.358 35.5493C231.809 35.8648 232.385 36.0226 233.084 36.0226ZM246.476 29.8508V38.2036H243.117V23.9481H246.328V26.3704H246.495C246.823 25.5723 247.346 24.9381 248.063 24.4678C248.787 23.9976 249.681 23.7625 250.746 23.7625C251.729 23.7625 252.586 23.9728 253.316 24.3936C254.053 24.8143 254.622 25.4238 255.024 26.2219C255.433 27.0201 255.634 27.9884 255.627 29.1269V38.2036H252.268V29.6466C252.268 28.6938 252.02 27.9482 251.525 27.4099C251.036 26.8716 250.359 26.6024 249.493 26.6024C248.905 26.6024 248.382 26.7324 247.924 26.9922C247.473 27.2459 247.117 27.6141 246.857 28.0967C246.603 28.5793 246.476 29.164 246.476 29.8508ZM266.161 23.9481V26.5468H257.966V23.9481H266.161ZM259.989 20.5327H263.349V33.9158C263.349 34.3675 263.417 34.714 263.553 34.9553C263.696 35.1904 263.881 35.3513 264.11 35.4379C264.339 35.5245 264.593 35.5678 264.871 35.5678C265.082 35.5678 265.273 35.5524 265.447 35.5214C265.626 35.4905 265.762 35.4626 265.855 35.4379L266.421 38.0644C266.242 38.1263 265.985 38.1943 265.651 38.2686C265.323 38.3428 264.921 38.3861 264.444 38.3985C263.603 38.4233 262.845 38.2964 262.17 38.018C261.496 37.7334 260.961 37.2941 260.565 36.7001C260.175 36.1061 259.983 35.3636 259.989 34.4727V20.5327Z" fill="#0D0D0D"/>
</svg>
