<svg width="329" height="31" viewBox="0 0 329 31" fill="none" xmlns="http://www.w3.org/2000/svg">
<path d="M2.84267 1.09779V12H1.19775V1.09779H2.84267ZM9.00177 3.82334V5.10095H4.38111V3.82334H9.00177ZM5.64807 12V2.87579C5.64807 2.36475 5.75986 1.94065 5.98344 1.60351C6.20702 1.26282 6.50335 1.00907 6.87244 0.842272C7.24152 0.671924 7.64255 0.58675 8.07551 0.58675C8.39491 0.58675 8.66818 0.613367 8.89531 0.666601C9.12244 0.716286 9.29101 0.762421 9.40102 0.805008L9.02839 2.09326C8.95386 2.07196 8.85804 2.04712 8.74093 2.01873C8.62382 1.98679 8.48186 1.97082 8.31506 1.97082C7.92823 1.97082 7.65142 2.06664 7.48462 2.25828C7.32137 2.44992 7.23975 2.72674 7.23975 3.08872V12H5.64807ZM15.6174 15.0662C15.3796 15.0662 15.1631 15.0467 14.9679 15.0077C14.7727 14.9722 14.6272 14.9332 14.5314 14.8906L14.9147 13.5864C15.2057 13.6644 15.4648 13.6981 15.6919 13.6875C15.919 13.6769 16.1195 13.5917 16.2934 13.432C16.4709 13.2723 16.627 13.0114 16.7619 12.6494L16.9588 12.1065L13.9671 3.82334H15.6706L17.7414 10.1688H17.8265L19.8973 3.82334H21.6061L18.2364 13.0913C18.0803 13.5172 17.8816 13.8774 17.6402 14.1719C17.3989 14.47 17.1114 14.6936 16.7778 14.8427C16.4443 14.9917 16.0574 15.0662 15.6174 15.0662ZM26.268 12.165C25.5015 12.165 24.8325 11.9894 24.2611 11.638C23.6898 11.2867 23.2462 10.7951 22.9303 10.1634C22.6145 9.53174 22.4565 8.79357 22.4565 7.94894C22.4565 7.10075 22.6145 6.35903 22.9303 5.72378C23.2462 5.08853 23.6898 4.59523 24.2611 4.24389C24.8325 3.89255 25.5015 3.71688 26.268 3.71688C27.0346 3.71688 27.7036 3.89255 28.2749 4.24389C28.8463 4.59523 29.2899 5.08853 29.6058 5.72378C29.9216 6.35903 30.0796 7.10075 30.0796 7.94894C30.0796 8.79357 29.9216 9.53174 29.6058 10.1634C29.2899 10.7951 28.8463 11.2867 28.2749 11.638C27.7036 11.9894 27.0346 12.165 26.268 12.165ZM26.2734 10.8289C26.7702 10.8289 27.1819 10.6976 27.5084 10.4349C27.8349 10.1723 28.0762 9.82275 28.2324 9.38624C28.3921 8.94972 28.4719 8.46885 28.4719 7.94361C28.4719 7.42192 28.3921 6.94282 28.2324 6.50631C28.0762 6.06625 27.8349 5.71313 27.5084 5.44696C27.1819 5.1808 26.7702 5.04771 26.2734 5.04771C25.773 5.04771 25.3577 5.1808 25.0277 5.44696C24.7012 5.71313 24.4581 6.06625 24.2984 6.50631C24.1423 6.94282 24.0642 7.42192 24.0642 7.94361C24.0642 8.46885 24.1423 8.94972 24.2984 9.38624C24.4581 9.82275 24.7012 10.1723 25.0277 10.4349C25.3577 10.6976 25.773 10.8289 26.2734 10.8289ZM37.0358 8.60903V3.82334H38.6328V12H37.0678V10.584H36.9826C36.7945 11.0205 36.4929 11.3843 36.0776 11.6753C35.666 11.9627 35.1531 12.1065 34.5392 12.1065C34.0139 12.1065 33.549 11.9911 33.1445 11.7604C32.7434 11.5262 32.4276 11.1802 32.1969 10.7224C31.9698 10.2646 31.8562 9.69854 31.8562 9.02425V3.82334H33.4479V8.83261C33.4479 9.38979 33.6023 9.8334 33.911 10.1634C34.2198 10.4935 34.6208 10.6585 35.1141 10.6585C35.4122 10.6585 35.7085 10.584 36.0031 10.4349C36.3012 10.2859 36.5479 10.0605 36.743 9.75887C36.9418 9.45722 37.0394 9.07394 37.0358 8.60903ZM47.1182 12.181C46.6001 12.181 46.1317 12.0852 45.7129 11.8935C45.2941 11.6983 44.9623 11.4162 44.7174 11.0471C44.4761 10.678 44.3554 10.2256 44.3554 9.68967C44.3554 9.22831 44.4442 8.84858 44.6216 8.55047C44.799 8.25237 45.0386 8.01636 45.3402 7.84247C45.6419 7.66857 45.979 7.53726 46.3517 7.44854C46.7243 7.35982 47.104 7.29239 47.4909 7.24625C47.9806 7.18947 48.3781 7.14334 48.6833 7.10785C48.9885 7.06881 49.2103 7.0067 49.3487 6.92153C49.4871 6.83636 49.5563 6.69795 49.5563 6.50631V6.46905C49.5563 6.00414 49.425 5.64393 49.1624 5.38841C48.9033 5.13289 48.5165 5.00513 48.0019 5.00513C47.466 5.00513 47.0437 5.12401 46.735 5.36179C46.4298 5.59602 46.2186 5.85686 46.1015 6.14432L44.6056 5.80363C44.7831 5.30678 45.0421 4.90576 45.3828 4.60055C45.7271 4.2918 46.1228 4.06822 46.5699 3.92981C47.0171 3.78786 47.4873 3.71688 47.9806 3.71688C48.3071 3.71688 48.6531 3.75592 49.0187 3.83399C49.3878 3.90852 49.732 4.04692 50.0514 4.24921C50.3744 4.4515 50.6387 4.74073 50.8446 5.11692C51.0504 5.48955 51.1533 5.97397 51.1533 6.57019V12H49.5989V10.8821H49.535C49.4321 11.0879 49.2777 11.2902 49.0719 11.489C48.8661 11.6877 48.6017 11.8527 48.2787 11.984C47.9558 12.1153 47.569 12.181 47.1182 12.181ZM47.4643 10.9034C47.9043 10.9034 48.2805 10.8164 48.5928 10.6425C48.9087 10.4687 49.1482 10.2415 49.3115 9.96116C49.4783 9.67725 49.5617 9.37382 49.5617 9.05087V7.99685C49.5049 8.05363 49.3949 8.10686 49.2316 8.15655C49.0719 8.20268 48.8891 8.24349 48.6833 8.27898C48.4775 8.31092 48.277 8.34109 48.0818 8.36948C47.8866 8.39432 47.7233 8.41562 47.592 8.43336C47.2833 8.4724 47.0011 8.53805 46.7456 8.63032C46.4936 8.72259 46.2914 8.85568 46.1387 9.02957C45.9897 9.19992 45.9152 9.42705 45.9152 9.71096C45.9152 10.1049 46.0607 10.403 46.3517 10.6053C46.6427 10.804 47.0136 10.9034 47.4643 10.9034ZM53.2734 12V3.82334H54.8118V5.12224H54.897C55.046 4.68218 55.3087 4.33616 55.6848 4.08419C56.0646 3.82867 56.494 3.70091 56.9731 3.70091C57.0725 3.70091 57.1896 3.70446 57.3244 3.71155C57.4628 3.71865 57.5711 3.72752 57.6491 3.73817V5.26065C57.5853 5.2429 57.4717 5.22338 57.3085 5.20209C57.1452 5.17725 56.982 5.16483 56.8187 5.16483C56.4425 5.16483 56.1072 5.24468 55.8126 5.40438C55.5216 5.56053 55.2909 5.77879 55.1206 6.05915C54.9502 6.33596 54.865 6.65181 54.865 7.0067V12H53.2734ZM62.2578 12.165C61.4522 12.165 60.7584 11.9929 60.1764 11.6487C59.5979 11.3009 59.1508 10.8129 58.8349 10.1847C58.5226 9.55304 58.3665 8.81309 58.3665 7.96491C58.3665 7.12737 58.5226 6.3892 58.8349 5.75039C59.1508 5.11159 59.5908 4.61297 60.1551 4.25453C60.7229 3.8961 61.3866 3.71688 62.146 3.71688C62.6074 3.71688 63.0546 3.79318 63.4875 3.94578C63.9205 4.09838 64.3091 4.33793 64.6533 4.66443C64.9976 4.99093 65.2691 5.41502 65.4678 5.93671C65.6665 6.45485 65.7659 7.08478 65.7659 7.8265V8.39077H59.2661V7.19834H64.2062C64.2062 6.77957 64.121 6.40871 63.9507 6.08577C63.7803 5.75927 63.5408 5.50197 63.232 5.31388C62.9268 5.12579 62.5684 5.03174 62.1567 5.03174C61.7095 5.03174 61.3192 5.14176 60.9856 5.36179C60.6555 5.57827 60.4 5.86218 60.219 6.21353C60.0415 6.56132 59.9528 6.93927 59.9528 7.3474V8.27898C59.9528 8.82551 60.0486 9.29042 60.2403 9.6737C60.4355 10.057 60.707 10.3498 61.0548 10.5521C61.4025 10.7508 61.8089 10.8502 62.2738 10.8502C62.5755 10.8502 62.8505 10.8076 63.0989 10.7224C63.3473 10.6337 63.5621 10.5024 63.743 10.3285C63.924 10.1546 64.0624 9.93987 64.1583 9.68435L65.6648 9.95584C65.5441 10.3994 65.3276 10.7881 65.0153 11.1216C64.7066 11.4517 64.318 11.709 63.8495 11.8935C63.3846 12.0745 62.854 12.165 62.2578 12.165ZM75.3905 3.82334V5.10095H70.7699V3.82334H75.3905ZM72.0368 12V2.87579C72.0368 2.36475 72.1486 1.94065 72.3722 1.60351C72.5958 1.26282 72.8921 1.00907 73.2612 0.842272C73.6303 0.671924 74.0313 0.58675 74.4643 0.58675C74.7837 0.58675 75.0569 0.613367 75.2841 0.666601C75.5112 0.716286 75.6798 0.762421 75.7898 0.805008L75.4171 2.09326C75.3426 2.07196 75.2468 2.04712 75.1297 2.01873C75.0126 1.98679 74.8706 1.97082 74.7038 1.97082C74.317 1.97082 74.0402 2.06664 73.8734 2.25828C73.7101 2.44992 73.6285 2.72674 73.6285 3.08872V12H72.0368ZM79.1634 12.181C78.6453 12.181 78.1768 12.0852 77.7581 11.8935C77.3393 11.6983 77.0075 11.4162 76.7626 11.0471C76.5213 10.678 76.4006 10.2256 76.4006 9.68967C76.4006 9.22831 76.4893 8.84858 76.6668 8.55047C76.8442 8.25237 77.0838 8.01636 77.3854 7.84247C77.6871 7.66857 78.0242 7.53726 78.3969 7.44854C78.7695 7.35982 79.1492 7.29239 79.5361 7.24625C80.0258 7.18947 80.4233 7.14334 80.7285 7.10785C81.0337 7.06881 81.2555 7.0067 81.3939 6.92153C81.5323 6.83636 81.6015 6.69795 81.6015 6.50631V6.46905C81.6015 6.00414 81.4702 5.64393 81.2076 5.38841C80.9485 5.13289 80.5617 5.00513 80.0471 5.00513C79.5112 5.00513 79.0889 5.12401 78.7802 5.36179C78.475 5.59602 78.2638 5.85686 78.1467 6.14432L76.6508 5.80363C76.8283 5.30678 77.0873 4.90576 77.428 4.60055C77.7723 4.2918 78.168 4.06822 78.6151 3.92981C79.0623 3.78786 79.5325 3.71688 80.0258 3.71688C80.3523 3.71688 80.6983 3.75592 81.0639 3.83399C81.433 3.90852 81.7772 4.04692 82.0966 4.24921C82.4196 4.4515 82.6839 4.74073 82.8898 5.11692C83.0956 5.48955 83.1985 5.97397 83.1985 6.57019V12H81.6441V10.8821H81.5802C81.4773 11.0879 81.3229 11.2902 81.1171 11.489C80.9113 11.6877 80.6469 11.8527 80.3239 11.984C80.001 12.1153 79.6141 12.181 79.1634 12.181ZM79.5095 10.9034C79.9495 10.9034 80.3257 10.8164 80.638 10.6425C80.9539 10.4687 81.1934 10.2415 81.3567 9.96116C81.5235 9.67725 81.6069 9.37382 81.6069 9.05087V7.99685C81.5501 8.05363 81.4401 8.10686 81.2768 8.15655C81.1171 8.20268 80.9343 8.24349 80.7285 8.27898C80.5227 8.31092 80.3222 8.34109 80.127 8.36948C79.9318 8.39432 79.7685 8.41562 79.6372 8.43336C79.3285 8.4724 79.0463 8.53805 78.7908 8.63032C78.5388 8.72259 78.3365 8.85568 78.1839 9.02957C78.0349 9.19992 77.9604 9.42705 77.9604 9.71096C77.9604 10.1049 78.1059 10.403 78.3969 10.6053C78.6879 10.804 79.0587 10.9034 79.5095 10.9034ZM88.7628 12.165C87.9714 12.165 87.29 11.9858 86.7186 11.6274C86.1508 11.2654 85.7143 10.7668 85.4091 10.1315C85.1038 9.49625 84.9512 8.76873 84.9512 7.94894C84.9512 7.11849 85.1074 6.38565 85.4197 5.75039C85.732 5.11159 86.1721 4.61297 86.7399 4.25453C87.3077 3.8961 87.9767 3.71688 88.7468 3.71688C89.3678 3.71688 89.9215 3.83222 90.4077 4.06289C90.8939 4.29002 91.286 4.60942 91.5841 5.0211C91.8858 5.43277 92.065 5.91364 92.1218 6.46372H90.5727C90.4875 6.08044 90.2923 5.75039 89.9871 5.47358C89.6855 5.19677 89.2809 5.05836 88.7734 5.05836C88.3298 5.05836 87.9412 5.17547 87.6076 5.4097C87.2775 5.64038 87.0203 5.97043 86.8357 6.39984C86.6512 6.82571 86.5589 7.32965 86.5589 7.91167C86.5589 8.50789 86.6494 9.02248 86.8304 9.45544C87.0114 9.88841 87.2669 10.2238 87.5969 10.4616C87.9305 10.6993 88.3227 10.8182 88.7734 10.8182C89.0751 10.8182 89.3483 10.7632 89.5932 10.6532C89.8416 10.5396 90.0492 10.3782 90.216 10.1688C90.3864 9.95938 90.5053 9.70741 90.5727 9.41285H92.1218C92.065 9.94164 91.8929 10.4136 91.6054 10.8289C91.318 11.2441 90.9329 11.5706 90.4503 11.8084C89.9712 12.0461 89.4087 12.165 88.7628 12.165ZM93.8239 12V3.82334H95.4156V12H93.8239ZM94.6278 2.56171C94.3509 2.56171 94.1132 2.46944 93.9144 2.2849C93.7192 2.09681 93.6216 1.87323 93.6216 1.61416C93.6216 1.35154 93.7192 1.12796 93.9144 0.943415C94.1132 0.755323 94.3509 0.661278 94.6278 0.661278C94.9046 0.661278 95.1406 0.755323 95.3358 0.943415C95.5345 1.12796 95.6339 1.35154 95.6339 1.61416C95.6339 1.87323 95.5345 2.09681 95.3358 2.2849C95.1406 2.46944 94.9046 2.56171 94.6278 2.56171ZM99.1486 7.14511V12H97.5569V3.82334H99.0847V5.15418H99.1859C99.374 4.72121 99.6685 4.37342 100.07 4.1108C100.474 3.84819 100.983 3.71688 101.597 3.71688C102.155 3.71688 102.642 3.83399 103.061 4.06822C103.48 4.2989 103.805 4.64314 104.035 5.10095C104.266 5.55875 104.381 6.1248 104.381 6.79909V12H102.79V6.99073C102.79 6.39807 102.635 5.93494 102.327 5.60134C102.018 5.2642 101.594 5.09562 101.054 5.09562C100.685 5.09562 100.357 5.17547 100.07 5.33517C99.7856 5.49487 99.5603 5.7291 99.3935 6.03785C99.2302 6.34306 99.1486 6.71215 99.1486 7.14511ZM109.944 15.2366C109.295 15.2366 108.736 15.1514 108.267 14.9811C107.803 14.8107 107.423 14.5854 107.128 14.305C106.834 14.0246 106.614 13.7177 106.468 13.3841L107.836 12.8198C107.932 12.9759 108.06 13.141 108.22 13.3149C108.383 13.4923 108.603 13.6431 108.88 13.7674C109.16 13.8916 109.52 13.9537 109.96 13.9537C110.564 13.9537 111.062 13.8064 111.456 13.5118C111.85 13.2208 112.047 12.7559 112.047 12.1171V10.5095H111.946C111.85 10.6834 111.712 10.8768 111.531 11.0897C111.353 11.3026 111.108 11.4872 110.796 11.6433C110.484 11.7995 110.077 11.8776 109.577 11.8776C108.931 11.8776 108.349 11.7267 107.831 11.4251C107.316 11.1199 106.908 10.6709 106.607 10.0783C106.309 9.48206 106.159 8.74921 106.159 7.87973C106.159 7.01025 106.307 6.26498 106.601 5.64393C106.899 5.02287 107.308 4.54732 107.826 4.21727C108.344 3.88368 108.931 3.71688 109.588 3.71688C110.095 3.71688 110.505 3.80205 110.817 3.9724C111.13 4.1392 111.373 4.33438 111.547 4.55797C111.724 4.78155 111.861 4.97851 111.957 5.14886H112.074V3.82334H113.633V12.181C113.633 12.8837 113.47 13.4604 113.144 13.9111C112.817 14.3618 112.375 14.6954 111.818 14.9119C111.265 15.1284 110.64 15.2366 109.944 15.2366ZM109.928 10.5574C110.386 10.5574 110.773 10.4509 111.089 10.238C111.408 10.0215 111.65 9.71274 111.813 9.31171C111.98 8.90714 112.063 8.42271 112.063 7.85844C112.063 7.30836 111.981 6.82394 111.818 6.40517C111.655 5.9864 111.415 5.6599 111.1 5.42567C110.784 5.18789 110.393 5.06901 109.928 5.06901C109.449 5.06901 109.05 5.19322 108.731 5.44164C108.411 5.68651 108.17 6.02011 108.007 6.44243C107.847 6.86475 107.767 7.33675 107.767 7.85844C107.767 8.39432 107.849 8.86455 108.012 9.26912C108.175 9.6737 108.417 9.98955 108.736 10.2167C109.059 10.4438 109.456 10.5574 109.928 10.5574ZM122.115 12.181C121.597 12.181 121.128 12.0852 120.709 11.8935C120.291 11.6983 119.959 11.4162 119.714 11.0471C119.473 10.678 119.352 10.2256 119.352 9.68967C119.352 9.22831 119.441 8.84858 119.618 8.55047C119.796 8.25237 120.035 8.01636 120.337 7.84247C120.638 7.66857 120.976 7.53726 121.348 7.44854C121.721 7.35982 122.101 7.29239 122.487 7.24625C122.977 7.18947 123.375 7.14334 123.68 7.10785C123.985 7.06881 124.207 7.0067 124.345 6.92153C124.484 6.83636 124.553 6.69795 124.553 6.50631V6.46905C124.553 6.00414 124.422 5.64393 124.159 5.38841C123.9 5.13289 123.513 5.00513 122.999 5.00513C122.463 5.00513 122.04 5.12401 121.732 5.36179C121.426 5.59602 121.215 5.85686 121.098 6.14432L119.602 5.80363C119.78 5.30678 120.039 4.90576 120.379 4.60055C120.724 4.2918 121.119 4.06822 121.567 3.92981C122.014 3.78786 122.484 3.71688 122.977 3.71688C123.304 3.71688 123.65 3.75592 124.015 3.83399C124.384 3.90852 124.729 4.04692 125.048 4.24921C125.371 4.4515 125.635 4.74073 125.841 5.11692C126.047 5.48955 126.15 5.97397 126.15 6.57019V12H124.596V10.8821H124.532C124.429 11.0879 124.274 11.2902 124.069 11.489C123.863 11.6877 123.598 11.8527 123.275 11.984C122.952 12.1153 122.566 12.181 122.115 12.181ZM122.461 10.9034C122.901 10.9034 123.277 10.8164 123.589 10.6425C123.905 10.4687 124.145 10.2415 124.308 9.96116C124.475 9.67725 124.558 9.37382 124.558 9.05087V7.99685C124.501 8.05363 124.391 8.10686 124.228 8.15655C124.069 8.20268 123.886 8.24349 123.68 8.27898C123.474 8.31092 123.274 8.34109 123.078 8.36948C122.883 8.39432 122.72 8.41562 122.589 8.43336C122.28 8.4724 121.998 8.53805 121.742 8.63032C121.49 8.72259 121.288 8.85568 121.135 9.02957C120.986 9.19992 120.912 9.42705 120.912 9.71096C120.912 10.1049 121.057 10.403 121.348 10.6053C121.639 10.804 122.01 10.9034 122.461 10.9034ZM129.862 7.14511V12H128.27V3.82334H129.798V5.15418H129.899C130.087 4.72121 130.382 4.37342 130.783 4.1108C131.187 3.84819 131.696 3.71688 132.31 3.71688C132.868 3.71688 133.356 3.83399 133.774 4.06822C134.193 4.2989 134.518 4.64314 134.748 5.10095C134.979 5.55875 135.094 6.1248 135.094 6.79909V12H133.503V6.99073C133.503 6.39807 133.348 5.93494 133.04 5.60134C132.731 5.2642 132.307 5.09562 131.767 5.09562C131.398 5.09562 131.07 5.17547 130.783 5.33517C130.499 5.49487 130.273 5.7291 130.107 6.03785C129.943 6.34306 129.862 6.71215 129.862 7.14511ZM137.942 15.0662C137.705 15.0662 137.488 15.0467 137.293 15.0077C137.098 14.9722 136.952 14.9332 136.857 14.8906L137.24 13.5864C137.531 13.6644 137.79 13.6981 138.017 13.6875C138.244 13.6769 138.445 13.5917 138.619 13.432C138.796 13.2723 138.952 13.0114 139.087 12.6494L139.284 12.1065L136.292 3.82334H137.996L140.066 10.1688H140.152L142.222 3.82334H143.931L140.562 13.0913C140.405 13.5172 140.207 13.8774 139.965 14.1719C139.724 14.47 139.437 14.6936 139.103 14.8427C138.769 14.9917 138.383 15.0662 137.942 15.0662ZM149.394 12V3.82334H150.986V12H149.394ZM150.198 2.56171C149.921 2.56171 149.684 2.46944 149.485 2.2849C149.29 2.09681 149.192 1.87323 149.192 1.61416C149.192 1.35154 149.29 1.12796 149.485 0.943415C149.684 0.755323 149.921 0.661278 150.198 0.661278C150.475 0.661278 150.711 0.755323 150.906 0.943415C151.105 1.12796 151.204 1.35154 151.204 1.61416C151.204 1.87323 151.105 2.09681 150.906 2.2849C150.711 2.46944 150.475 2.56171 150.198 2.56171ZM159.254 5.8196L157.812 6.07512C157.752 5.89058 157.656 5.71491 157.524 5.54811C157.397 5.38131 157.223 5.24468 157.003 5.13821C156.783 5.03174 156.508 4.97851 156.178 4.97851C155.727 4.97851 155.351 5.07965 155.049 5.28194C154.747 5.48068 154.597 5.73797 154.597 6.05383C154.597 6.32709 154.698 6.54712 154.9 6.71392C155.102 6.88072 155.429 7.01735 155.879 7.12382L157.178 7.42192C157.931 7.59582 158.491 7.86376 158.861 8.22575C159.23 8.58774 159.414 9.05797 159.414 9.63644C159.414 10.1262 159.272 10.5627 158.988 10.946C158.708 11.3257 158.316 11.6238 157.812 11.8403C157.311 12.0568 156.731 12.165 156.071 12.165C155.155 12.165 154.408 11.9698 153.83 11.5795C153.252 11.1855 152.897 10.6266 152.765 9.9026L154.304 9.66838C154.4 10.0694 154.597 10.3728 154.895 10.5787C155.193 10.781 155.581 10.8821 156.06 10.8821C156.582 10.8821 156.999 10.7739 157.311 10.5574C157.624 10.3373 157.78 10.0694 157.78 9.75355C157.78 9.49803 157.684 9.28332 157.492 9.10942C157.304 8.93553 157.015 8.80422 156.625 8.7155L155.241 8.41207C154.478 8.23817 153.913 7.96136 153.548 7.58162C153.186 7.20189 153.005 6.72102 153.005 6.139C153.005 5.65635 153.14 5.23403 153.409 4.87204C153.679 4.51006 154.052 4.22792 154.527 4.02563C155.003 3.8198 155.548 3.71688 156.162 3.71688C157.045 3.71688 157.741 3.90852 158.248 4.2918C158.756 4.67153 159.091 5.1808 159.254 5.8196ZM167.291 5.8196L165.849 6.07512C165.788 5.89058 165.693 5.71491 165.561 5.54811C165.434 5.38131 165.26 5.24468 165.04 5.13821C164.82 5.03174 164.545 4.97851 164.215 4.97851C163.764 4.97851 163.388 5.07965 163.086 5.28194C162.784 5.48068 162.633 5.73797 162.633 6.05383C162.633 6.32709 162.735 6.54712 162.937 6.71392C163.139 6.88072 163.466 7.01735 163.916 7.12382L165.215 7.42192C165.968 7.59582 166.528 7.86376 166.897 8.22575C167.267 8.58774 167.451 9.05797 167.451 9.63644C167.451 10.1262 167.309 10.5627 167.025 10.946C166.745 11.3257 166.353 11.6238 165.849 11.8403C165.348 12.0568 164.768 12.165 164.108 12.165C163.192 12.165 162.445 11.9698 161.867 11.5795C161.288 11.1855 160.934 10.6266 160.802 9.9026L162.341 9.66838C162.437 10.0694 162.633 10.3728 162.932 10.5787C163.23 10.781 163.618 10.8821 164.097 10.8821C164.619 10.8821 165.036 10.7739 165.348 10.5574C165.661 10.3373 165.817 10.0694 165.817 9.75355C165.817 9.49803 165.721 9.28332 165.529 9.10942C165.341 8.93553 165.052 8.80422 164.662 8.7155L163.278 8.41207C162.515 8.23817 161.95 7.96136 161.585 7.58162C161.223 7.20189 161.042 6.72102 161.042 6.139C161.042 5.65635 161.177 5.23403 161.446 4.87204C161.716 4.51006 162.089 4.22792 162.564 4.02563C163.04 3.8198 163.585 3.71688 164.199 3.71688C165.082 3.71688 165.778 3.90852 166.285 4.2918C166.793 4.67153 167.128 5.1808 167.291 5.8196ZM174.381 8.60903V3.82334H175.978V12H174.413V10.584H174.328C174.139 11.0205 173.838 11.3843 173.423 11.6753C173.011 11.9627 172.498 12.1065 171.884 12.1065C171.359 12.1065 170.894 11.9911 170.489 11.7604C170.088 11.5262 169.773 11.1802 169.542 10.7224C169.315 10.2646 169.201 9.69854 169.201 9.02425V3.82334H170.793V8.83261C170.793 9.38979 170.947 9.8334 171.256 10.1634C171.565 10.4935 171.966 10.6585 172.459 10.6585C172.757 10.6585 173.053 10.584 173.348 10.4349C173.646 10.2859 173.893 10.0605 174.088 9.75887C174.287 9.45722 174.384 9.07394 174.381 8.60903ZM181.64 12.165C180.835 12.165 180.141 11.9929 179.559 11.6487C178.981 11.3009 178.533 10.8129 178.218 10.1847C177.905 9.55304 177.749 8.81309 177.749 7.96491C177.749 7.12737 177.905 6.3892 178.218 5.75039C178.533 5.11159 178.973 4.61297 179.538 4.25453C180.106 3.8961 180.769 3.71688 181.529 3.71688C181.99 3.71688 182.437 3.79318 182.87 3.94578C183.303 4.09838 183.692 4.33793 184.036 4.66443C184.38 4.99093 184.652 5.41502 184.85 5.93671C185.049 6.45485 185.149 7.08478 185.149 7.8265V8.39077H178.649V7.19834H183.589C183.589 6.77957 183.504 6.40871 183.333 6.08577C183.163 5.75927 182.923 5.50197 182.615 5.31388C182.309 5.12579 181.951 5.03174 181.539 5.03174C181.092 5.03174 180.702 5.14176 180.368 5.36179C180.038 5.57827 179.783 5.86218 179.602 6.21353C179.424 6.56132 179.335 6.93927 179.335 7.3474V8.27898C179.335 8.82551 179.431 9.29042 179.623 9.6737C179.818 10.057 180.09 10.3498 180.437 10.5521C180.785 10.7508 181.192 10.8502 181.656 10.8502C181.958 10.8502 182.233 10.8076 182.482 10.7224C182.73 10.6337 182.945 10.5024 183.126 10.3285C183.307 10.1546 183.445 9.93987 183.541 9.68435L185.047 9.95584C184.927 10.3994 184.71 10.7881 184.398 11.1216C184.089 11.4517 183.701 11.709 183.232 11.8935C182.767 12.0745 182.237 12.165 181.64 12.165ZM188.985 10.5095L188.905 11.0897C188.852 11.5156 188.762 11.9592 188.634 12.4205C188.51 12.8854 188.38 13.3166 188.245 13.7141C188.114 14.1116 188.006 14.4274 187.921 14.6617H186.792C186.838 14.4416 186.902 14.1435 186.984 13.7674C187.065 13.3947 187.145 12.9777 187.223 12.5164C187.301 12.055 187.36 11.5848 187.399 11.1057L187.452 10.5095H188.985ZM198.916 3.82334V5.10095H194.295V3.82334H198.916ZM195.562 12V2.87579C195.562 2.36475 195.674 1.94065 195.898 1.60351C196.121 1.26282 196.418 1.00907 196.787 0.842272C197.156 0.671924 197.557 0.58675 197.99 0.58675C198.309 0.58675 198.582 0.613367 198.81 0.666601C199.037 0.716286 199.205 0.762421 199.315 0.805008L198.943 2.09326C198.868 2.07196 198.772 2.04712 198.655 2.01873C198.538 1.98679 198.396 1.97082 198.229 1.97082C197.843 1.97082 197.566 2.06664 197.399 2.25828C197.236 2.44992 197.154 2.72674 197.154 3.08872V12H195.562ZM203.76 12.165C202.955 12.165 202.261 11.9929 201.679 11.6487C201.1 11.3009 200.653 10.8129 200.337 10.1847C200.025 9.55304 199.869 8.81309 199.869 7.96491C199.869 7.12737 200.025 6.3892 200.337 5.75039C200.653 5.11159 201.093 4.61297 201.658 4.25453C202.225 3.8961 202.889 3.71688 203.648 3.71688C204.11 3.71688 204.557 3.79318 204.99 3.94578C205.423 4.09838 205.812 4.33793 206.156 4.66443C206.5 4.99093 206.772 5.41502 206.97 5.93671C207.169 6.45485 207.268 7.08478 207.268 7.8265V8.39077H200.769V7.19834H205.709C205.709 6.77957 205.623 6.40871 205.453 6.08577C205.283 5.75927 205.043 5.50197 204.734 5.31388C204.429 5.12579 204.071 5.03174 203.659 5.03174C203.212 5.03174 202.822 5.14176 202.488 5.36179C202.158 5.57827 201.902 5.86218 201.721 6.21353C201.544 6.56132 201.455 6.93927 201.455 7.3474V8.27898C201.455 8.82551 201.551 9.29042 201.743 9.6737C201.938 10.057 202.209 10.3498 202.557 10.5521C202.905 10.7508 203.311 10.8502 203.776 10.8502C204.078 10.8502 204.353 10.8076 204.601 10.7224C204.85 10.6337 205.065 10.5024 205.246 10.3285C205.426 10.1546 205.565 9.93987 205.661 9.68435L207.167 9.95584C207.047 10.3994 206.83 10.7881 206.518 11.1216C206.209 11.4517 205.82 11.709 205.352 11.8935C204.887 12.0745 204.357 12.165 203.76 12.165ZM212.558 12.165C211.753 12.165 211.059 11.9929 210.477 11.6487C209.899 11.3009 209.451 10.8129 209.136 10.1847C208.823 9.55304 208.667 8.81309 208.667 7.96491C208.667 7.12737 208.823 6.3892 209.136 5.75039C209.451 5.11159 209.891 4.61297 210.456 4.25453C211.024 3.8961 211.687 3.71688 212.447 3.71688C212.908 3.71688 213.355 3.79318 213.788 3.94578C214.221 4.09838 214.61 4.33793 214.954 4.66443C215.298 4.99093 215.57 5.41502 215.768 5.93671C215.967 6.45485 216.067 7.08478 216.067 7.8265V8.39077H209.567V7.19834H214.507C214.507 6.77957 214.422 6.40871 214.251 6.08577C214.081 5.75927 213.841 5.50197 213.533 5.31388C213.227 5.12579 212.869 5.03174 212.457 5.03174C212.01 5.03174 211.62 5.14176 211.286 5.36179C210.956 5.57827 210.701 5.86218 210.52 6.21353C210.342 6.56132 210.253 6.93927 210.253 7.3474V8.27898C210.253 8.82551 210.349 9.29042 210.541 9.6737C210.736 10.057 211.008 10.3498 211.355 10.5521C211.703 10.7508 212.11 10.8502 212.574 10.8502C212.876 10.8502 213.151 10.8076 213.4 10.7224C213.648 10.6337 213.863 10.5024 214.044 10.3285C214.225 10.1546 214.363 9.93987 214.459 9.68435L215.965 9.95584C215.845 10.3994 215.628 10.7881 215.316 11.1216C215.007 11.4517 214.619 11.709 214.15 11.8935C213.685 12.0745 213.155 12.165 212.558 12.165ZM219.424 1.09779V12H217.833V1.09779H219.424ZM229.424 3.82334V5.10095H224.803V3.82334H229.424ZM226.07 12V2.87579C226.07 2.36475 226.182 1.94065 226.406 1.60351C226.629 1.26282 226.926 1.00907 227.295 0.842272C227.664 0.671924 228.065 0.58675 228.498 0.58675C228.817 0.58675 229.091 0.613367 229.318 0.666601C229.545 0.716286 229.713 0.762421 229.823 0.805008L229.451 2.09326C229.376 2.07196 229.28 2.04712 229.163 2.01873C229.046 1.98679 228.904 1.97082 228.737 1.97082C228.351 1.97082 228.074 2.06664 227.907 2.25828C227.744 2.44992 227.662 2.72674 227.662 3.08872V12H226.07ZM231.066 12V3.82334H232.605V5.12224H232.69C232.839 4.68218 233.102 4.33616 233.478 4.08419C233.858 3.82867 234.287 3.70091 234.766 3.70091C234.865 3.70091 234.983 3.70446 235.117 3.71155C235.256 3.71865 235.364 3.72752 235.442 3.73817V5.26065C235.378 5.2429 235.265 5.22338 235.101 5.20209C234.938 5.17725 234.775 5.16483 234.612 5.16483C234.236 5.16483 233.9 5.24468 233.606 5.40438C233.315 5.56053 233.084 5.77879 232.914 6.05915C232.743 6.33596 232.658 6.65181 232.658 7.0067V12H231.066ZM240.051 12.165C239.245 12.165 238.551 11.9929 237.969 11.6487C237.391 11.3009 236.944 10.8129 236.628 10.1847C236.316 9.55304 236.159 8.81309 236.159 7.96491C236.159 7.12737 236.316 6.3892 236.628 5.75039C236.944 5.11159 237.384 4.61297 237.948 4.25453C238.516 3.8961 239.18 3.71688 239.939 3.71688C240.4 3.71688 240.848 3.79318 241.281 3.94578C241.714 4.09838 242.102 4.33793 242.446 4.66443C242.791 4.99093 243.062 5.41502 243.261 5.93671C243.46 6.45485 243.559 7.08478 243.559 7.8265V8.39077H237.059V7.19834H241.999C241.999 6.77957 241.914 6.40871 241.744 6.08577C241.573 5.75927 241.334 5.50197 241.025 5.31388C240.72 5.12579 240.361 5.03174 239.95 5.03174C239.503 5.03174 239.112 5.14176 238.779 5.36179C238.449 5.57827 238.193 5.86218 238.012 6.21353C237.835 6.56132 237.746 6.93927 237.746 7.3474V8.27898C237.746 8.82551 237.842 9.29042 238.033 9.6737C238.229 10.057 238.5 10.3498 238.848 10.5521C239.196 10.7508 239.602 10.8502 240.067 10.8502C240.368 10.8502 240.644 10.8076 240.892 10.7224C241.14 10.6337 241.355 10.5024 241.536 10.3285C241.717 10.1546 241.855 9.93987 241.951 9.68435L243.458 9.95584C243.337 10.3994 243.121 10.7881 242.808 11.1216C242.5 11.4517 242.111 11.709 241.643 11.8935C241.178 12.0745 240.647 12.165 240.051 12.165ZM248.849 12.165C248.043 12.165 247.35 11.9929 246.768 11.6487C246.189 11.3009 245.742 10.8129 245.426 10.1847C245.114 9.55304 244.958 8.81309 244.958 7.96491C244.958 7.12737 245.114 6.3892 245.426 5.75039C245.742 5.11159 246.182 4.61297 246.746 4.25453C247.314 3.8961 247.978 3.71688 248.737 3.71688C249.199 3.71688 249.646 3.79318 250.079 3.94578C250.512 4.09838 250.9 4.33793 251.245 4.66443C251.589 4.99093 251.86 5.41502 252.059 5.93671C252.258 6.45485 252.357 7.08478 252.357 7.8265V8.39077H245.857V7.19834H250.797C250.797 6.77957 250.712 6.40871 250.542 6.08577C250.371 5.75927 250.132 5.50197 249.823 5.31388C249.518 5.12579 249.16 5.03174 248.748 5.03174C248.301 5.03174 247.91 5.14176 247.577 5.36179C247.247 5.57827 246.991 5.86218 246.81 6.21353C246.633 6.56132 246.544 6.93927 246.544 7.3474V8.27898C246.544 8.82551 246.64 9.29042 246.831 9.6737C247.027 10.057 247.298 10.3498 247.646 10.5521C247.994 10.7508 248.4 10.8502 248.865 10.8502C249.167 10.8502 249.442 10.8076 249.69 10.7224C249.939 10.6337 250.153 10.5024 250.334 10.3285C250.515 10.1546 250.654 9.93987 250.749 9.68435L252.256 9.95584C252.135 10.3994 251.919 10.7881 251.607 11.1216C251.298 11.4517 250.909 11.709 250.441 11.8935C249.976 12.0745 249.445 12.165 248.849 12.165ZM261.907 3.82334V5.10095H257.441V3.82334H261.907ZM258.639 1.86435H260.23V9.59917C260.23 9.90793 260.276 10.1404 260.369 10.2965C260.461 10.4491 260.58 10.5538 260.725 10.6106C260.874 10.6638 261.036 10.6905 261.21 10.6905C261.338 10.6905 261.449 10.6816 261.545 10.6638C261.641 10.6461 261.716 10.6319 261.769 10.6213L262.056 11.9361C261.964 11.9716 261.833 12.0071 261.662 12.0426C261.492 12.0816 261.279 12.1029 261.024 12.1065C260.605 12.1136 260.214 12.039 259.852 11.8829C259.49 11.7267 259.198 11.4854 258.974 11.1589C258.75 10.8324 258.639 10.4225 258.639 9.92922V1.86435ZM267.024 12.165C266.258 12.165 265.589 11.9894 265.017 11.638C264.446 11.2867 264.002 10.7951 263.686 10.1634C263.371 9.53174 263.213 8.79357 263.213 7.94894C263.213 7.10075 263.371 6.35903 263.686 5.72378C264.002 5.08853 264.446 4.59523 265.017 4.24389C265.589 3.89255 266.258 3.71688 267.024 3.71688C267.791 3.71688 268.46 3.89255 269.031 4.24389C269.603 4.59523 270.046 5.08853 270.362 5.72378C270.678 6.35903 270.836 7.10075 270.836 7.94894C270.836 8.79357 270.678 9.53174 270.362 10.1634C270.046 10.7951 269.603 11.2867 269.031 11.638C268.46 11.9894 267.791 12.165 267.024 12.165ZM267.03 10.8289C267.526 10.8289 267.938 10.6976 268.265 10.4349C268.591 10.1723 268.832 9.82275 268.989 9.38624C269.148 8.94972 269.228 8.46885 269.228 7.94361C269.228 7.42192 269.148 6.94282 268.989 6.50631C268.832 6.06625 268.591 5.71313 268.265 5.44696C267.938 5.1808 267.526 5.04771 267.03 5.04771C266.529 5.04771 266.114 5.1808 265.784 5.44696C265.457 5.71313 265.214 6.06625 265.055 6.50631C264.898 6.94282 264.82 7.42192 264.82 7.94361C264.82 8.46885 264.898 8.94972 265.055 9.38624C265.214 9.82275 265.457 10.1723 265.784 10.4349C266.114 10.6976 266.529 10.8289 267.03 10.8289ZM281.759 8.60903V3.82334H283.356V12H281.791V10.584H281.706C281.518 11.0205 281.216 11.3843 280.801 11.6753C280.389 11.9627 279.877 12.1065 279.263 12.1065C278.737 12.1065 278.272 11.9911 277.868 11.7604C277.467 11.5262 277.151 11.1802 276.92 10.7224C276.693 10.2646 276.58 9.69854 276.58 9.02425V3.82334H278.171V8.83261C278.171 9.38979 278.326 9.8334 278.634 10.1634C278.943 10.4935 279.344 10.6585 279.838 10.6585C280.136 10.6585 280.432 10.584 280.727 10.4349C281.025 10.2859 281.271 10.0605 281.466 9.75887C281.665 9.45722 281.763 9.07394 281.759 8.60903ZM291.622 5.8196L290.179 6.07512C290.119 5.89058 290.023 5.71491 289.892 5.54811C289.764 5.38131 289.59 5.24468 289.37 5.13821C289.15 5.03174 288.875 4.97851 288.545 4.97851C288.094 4.97851 287.718 5.07965 287.417 5.28194C287.115 5.48068 286.964 5.73797 286.964 6.05383C286.964 6.32709 287.065 6.54712 287.268 6.71392C287.47 6.88072 287.796 7.01735 288.247 7.12382L289.546 7.42192C290.298 7.59582 290.859 7.86376 291.228 8.22575C291.597 8.58774 291.782 9.05797 291.782 9.63644C291.782 10.1262 291.64 10.5627 291.356 10.946C291.076 11.3257 290.683 11.6238 290.179 11.8403C289.679 12.0568 289.099 12.165 288.439 12.165C287.523 12.165 286.776 11.9698 286.198 11.5795C285.619 11.1855 285.264 10.6266 285.133 9.9026L286.671 9.66838C286.767 10.0694 286.964 10.3728 287.262 10.5787C287.56 10.781 287.949 10.8821 288.428 10.8821C288.95 10.8821 289.367 10.7739 289.679 10.5574C289.991 10.3373 290.148 10.0694 290.148 9.75355C290.148 9.49803 290.052 9.28332 289.86 9.10942C289.672 8.93553 289.383 8.80422 288.992 8.7155L287.608 8.41207C286.845 8.23817 286.281 7.96136 285.915 7.58162C285.553 7.20189 285.372 6.72102 285.372 6.139C285.372 5.65635 285.507 5.23403 285.777 4.87204C286.047 4.51006 286.419 4.22792 286.895 4.02563C287.371 3.8198 287.915 3.71688 288.529 3.71688C289.413 3.71688 290.108 3.90852 290.616 4.2918C291.123 4.67153 291.459 5.1808 291.622 5.8196ZM297.056 12.165C296.25 12.165 295.556 11.9929 294.974 11.6487C294.396 11.3009 293.949 10.8129 293.633 10.1847C293.321 9.55304 293.165 8.81309 293.165 7.96491C293.165 7.12737 293.321 6.3892 293.633 5.75039C293.949 5.11159 294.389 4.61297 294.953 4.25453C295.521 3.8961 296.185 3.71688 296.944 3.71688C297.405 3.71688 297.853 3.79318 298.286 3.94578C298.719 4.09838 299.107 4.33793 299.451 4.66443C299.796 4.99093 300.067 5.41502 300.266 5.93671C300.465 6.45485 300.564 7.08478 300.564 7.8265V8.39077H294.064V7.19834H299.004C299.004 6.77957 298.919 6.40871 298.749 6.08577C298.578 5.75927 298.339 5.50197 298.03 5.31388C297.725 5.12579 297.366 5.03174 296.955 5.03174C296.508 5.03174 296.117 5.14176 295.784 5.36179C295.454 5.57827 295.198 5.86218 295.017 6.21353C294.84 6.56132 294.751 6.93927 294.751 7.3474V8.27898C294.751 8.82551 294.847 9.29042 295.038 9.6737C295.234 10.057 295.505 10.3498 295.853 10.5521C296.201 10.7508 296.607 10.8502 297.072 10.8502C297.373 10.8502 297.649 10.8076 297.897 10.7224C298.145 10.6337 298.36 10.5024 298.541 10.3285C298.722 10.1546 298.86 9.93987 298.956 9.68435L300.463 9.95584C300.342 10.3994 300.126 10.7881 299.813 11.1216C299.505 11.4517 299.116 11.709 298.648 11.8935C298.183 12.0745 297.652 12.165 297.056 12.165ZM309.741 12.165C308.975 12.165 308.306 11.9894 307.734 11.638C307.163 11.2867 306.72 10.7951 306.404 10.1634C306.088 9.53174 305.93 8.79357 305.93 7.94894C305.93 7.10075 306.088 6.35903 306.404 5.72378C306.72 5.08853 307.163 4.59523 307.734 4.24389C308.306 3.89255 308.975 3.71688 309.741 3.71688C310.508 3.71688 311.177 3.89255 311.748 4.24389C312.32 4.59523 312.763 5.08853 313.079 5.72378C313.395 6.35903 313.553 7.10075 313.553 7.94894C313.553 8.79357 313.395 9.53174 313.079 10.1634C312.763 10.7951 312.32 11.2867 311.748 11.638C311.177 11.9894 310.508 12.165 309.741 12.165ZM309.747 10.8289C310.244 10.8289 310.655 10.6976 310.982 10.4349C311.308 10.1723 311.55 9.82275 311.706 9.38624C311.865 8.94972 311.945 8.46885 311.945 7.94361C311.945 7.42192 311.865 6.94282 311.706 6.50631C311.55 6.06625 311.308 5.71313 310.982 5.44696C310.655 5.1808 310.244 5.04771 309.747 5.04771C309.246 5.04771 308.831 5.1808 308.501 5.44696C308.175 5.71313 307.931 6.06625 307.772 6.50631C307.616 6.94282 307.538 7.42192 307.538 7.94361C307.538 8.46885 307.616 8.94972 307.772 9.38624C307.931 9.82275 308.175 10.1723 308.501 10.4349C308.831 10.6976 309.246 10.8289 309.747 10.8289ZM320.509 8.60903V3.82334H322.106V12H320.541V10.584H320.456C320.268 11.0205 319.966 11.3843 319.551 11.6753C319.139 11.9627 318.626 12.1065 318.013 12.1065C317.487 12.1065 317.022 11.9911 316.618 11.7604C316.217 11.5262 315.901 11.1802 315.67 10.7224C315.443 10.2646 315.33 9.69854 315.33 9.02425V3.82334H316.921V8.83261C316.921 9.38979 317.076 9.8334 317.384 10.1634C317.693 10.4935 318.094 10.6585 318.587 10.6585C318.886 10.6585 319.182 10.584 319.476 10.4349C319.775 10.2859 320.021 10.0605 320.216 9.75887C320.415 9.45722 320.513 9.07394 320.509 8.60903ZM324.245 12V3.82334H325.783V5.12224H325.868C326.018 4.68218 326.28 4.33616 326.656 4.08419C327.036 3.82867 327.465 3.70091 327.945 3.70091C328.044 3.70091 328.161 3.70446 328.296 3.71155C328.434 3.71865 328.543 3.72752 328.621 3.73817V5.26065C328.557 5.2429 328.443 5.22338 328.28 5.20209C328.117 5.17725 327.953 5.16483 327.79 5.16483C327.414 5.16483 327.079 5.24468 326.784 5.40438C326.493 5.56053 326.262 5.77879 326.092 6.05915C325.922 6.33596 325.837 6.65181 325.837 7.0067V12H324.245ZM2.15063 19.0978L5.18494 27.9771H5.30737L8.34168 19.0978H10.1197L6.19637 30H4.29594L0.372634 19.0978H2.15063ZM11.5663 30V21.8233H13.158V30H11.5663ZM12.3701 20.5617C12.0933 20.5617 11.8555 20.4694 11.6568 20.2849C11.4616 20.0968 11.364 19.8732 11.364 19.6142C11.364 19.3515 11.4616 19.128 11.6568 18.9434C11.8555 18.7553 12.0933 18.6613 12.3701 18.6613C12.6469 18.6613 12.8829 18.7553 13.0781 18.9434C13.2769 19.128 13.3762 19.3515 13.3762 19.6142C13.3762 19.8732 13.2769 20.0968 13.0781 20.2849C12.8829 20.4694 12.6469 20.5617 12.3701 20.5617ZM15.2993 30V21.8233H16.8377V23.1222H16.9229C17.072 22.6822 17.3346 22.3362 17.7108 22.0842C18.0905 21.8287 18.5199 21.7009 18.999 21.7009C19.0984 21.7009 19.2155 21.7045 19.3504 21.7116C19.4888 21.7187 19.597 21.7275 19.6751 21.7382V23.2606C19.6112 23.2429 19.4976 23.2234 19.3344 23.2021C19.1711 23.1772 19.0079 23.1648 18.8446 23.1648C18.4685 23.1648 18.1331 23.2447 17.8385 23.4044C17.5475 23.5605 17.3168 23.7788 17.1465 24.0591C16.9761 24.336 16.891 24.6518 16.891 25.0067V30H15.2993ZM25.3524 21.8233V23.1009H20.8861V21.8233H25.3524ZM22.0839 19.8644H23.6756V27.5992C23.6756 27.9079 23.7217 28.1404 23.814 28.2965C23.9062 28.4491 24.0251 28.5538 24.1706 28.6106C24.3197 28.6638 24.4812 28.6905 24.6551 28.6905C24.7828 28.6905 24.8946 28.6816 24.9904 28.6638C25.0863 28.6461 25.1608 28.6319 25.214 28.6213L25.5015 29.9361C25.4092 29.9716 25.2779 30.0071 25.1076 30.0426C24.9372 30.0816 24.7243 30.1029 24.4687 30.1065C24.05 30.1136 23.6596 30.039 23.2976 29.8829C22.9356 29.7267 22.6428 29.4854 22.4193 29.1589C22.1957 28.8324 22.0839 28.4225 22.0839 27.9292V19.8644ZM32.2927 26.609V21.8233H33.8897V30H32.3247V28.584H32.2395C32.0514 29.0205 31.7498 29.3843 31.3345 29.6753C30.9229 29.9627 30.41 30.1065 29.7961 30.1065C29.2708 30.1065 28.8059 29.9911 28.4014 29.7604C28.0003 29.5262 27.6845 29.1802 27.4538 28.7224C27.2267 28.2646 27.1131 27.6985 27.1131 27.0243V21.8233H28.7048V26.8326C28.7048 27.3898 28.8592 27.8334 29.1679 28.1634C29.4767 28.4935 29.8777 28.6585 30.371 28.6585C30.6691 28.6585 30.9654 28.584 31.26 28.4349C31.5581 28.2859 31.8048 28.0605 31.9999 27.7589C32.1987 27.4572 32.2963 27.0739 32.2927 26.609ZM38.4079 30.181C37.8898 30.181 37.4213 30.0852 37.0026 29.8935C36.5838 29.6983 36.252 29.4162 36.0071 29.0471C35.7658 28.678 35.6451 28.2256 35.6451 27.6897C35.6451 27.2283 35.7338 26.8486 35.9113 26.5505C36.0887 26.2524 36.3283 26.0164 36.6299 25.8425C36.9316 25.6686 37.2687 25.5373 37.6414 25.4485C38.014 25.3598 38.3937 25.2924 38.7806 25.2463C39.2703 25.1895 39.6678 25.1433 39.973 25.1078C40.2782 25.0688 40.5 25.0067 40.6384 24.9215C40.7768 24.8364 40.846 24.6979 40.846 24.5063V24.469C40.846 24.0041 40.7147 23.6439 40.4521 23.3884C40.193 23.1329 39.8062 23.0051 39.2916 23.0051C38.7557 23.0051 38.3334 23.124 38.0246 23.3618C37.7194 23.596 37.5083 23.8569 37.3912 24.1443L35.8953 23.8036C36.0728 23.3068 36.3318 22.9058 36.6725 22.6006C37.0168 22.2918 37.4125 22.0682 37.8596 21.9298C38.3068 21.7879 38.777 21.7169 39.2703 21.7169C39.5968 21.7169 39.9428 21.7559 40.3084 21.834C40.6774 21.9085 41.0217 22.0469 41.3411 22.2492C41.664 22.4515 41.9284 22.7407 42.1343 23.1169C42.3401 23.4896 42.443 23.974 42.443 24.5702V30H40.8886V28.8821H40.8247C40.7218 29.0879 40.5674 29.2902 40.3616 29.489C40.1558 29.6877 39.8914 29.8527 39.5684 29.984C39.2455 30.1153 38.8586 30.181 38.4079 30.181ZM38.7539 28.9034C39.194 28.9034 39.5702 28.8164 39.8825 28.6425C40.1983 28.4687 40.4379 28.2415 40.6011 27.9612C40.7679 27.6772 40.8513 27.3738 40.8513 27.0509V25.9968C40.7946 26.0536 40.6845 26.1069 40.5213 26.1565C40.3616 26.2027 40.1788 26.2435 39.973 26.279C39.7672 26.3109 39.5666 26.3411 39.3714 26.3695C39.1763 26.3943 39.013 26.4156 38.8817 26.4334C38.5729 26.4724 38.2908 26.5381 38.0353 26.6303C37.7833 26.7226 37.581 26.8557 37.4284 27.0296C37.2794 27.1999 37.2048 27.4271 37.2048 27.711C37.2048 28.1049 37.3504 28.403 37.6414 28.6053C37.9324 28.804 38.3032 28.9034 38.7539 28.9034ZM46.1547 19.0978V30H44.563V19.0978H46.1547ZM53.312 30H51.5659L55.4892 19.0978H57.3896L61.3129 30H59.5669L56.4847 21.0781H56.3995L53.312 30ZM53.6047 25.7307H59.2688V27.1147H53.6047V25.7307ZM64.5322 19.0978V30H62.8873V19.0978H64.5322ZM71.8159 30H70.0698L73.9931 19.0978H75.8936L79.8169 30H78.0708L74.9886 21.0781H74.9034L71.8159 30ZM72.1087 25.7307H77.7727V27.1147H72.1087V25.7307ZM87.3321 23.8196L85.8895 24.0751C85.8292 23.8906 85.7333 23.7149 85.602 23.5481C85.4743 23.3813 85.3004 23.2447 85.0803 23.1382C84.8603 23.0317 84.5853 22.9785 84.2552 22.9785C83.8045 22.9785 83.4283 23.0797 83.1267 23.2819C82.825 23.4807 82.6742 23.738 82.6742 24.0538C82.6742 24.3271 82.7753 24.5471 82.9776 24.7139C83.1799 24.8807 83.5064 25.0174 83.9571 25.1238L85.256 25.4219C86.0084 25.5958 86.5691 25.8638 86.9382 26.2257C87.3073 26.5877 87.4918 27.058 87.4918 27.6364C87.4918 28.1262 87.3499 28.5627 87.066 28.946C86.7856 29.3257 86.3934 29.6238 85.8895 29.8403C85.3891 30.0568 84.8089 30.165 84.1488 30.165C83.2331 30.165 82.4861 29.9698 81.9076 29.5795C81.3292 29.1855 80.9743 28.6266 80.843 27.9026L82.3814 27.6684C82.4772 28.0694 82.6742 28.3728 82.9723 28.5787C83.2704 28.781 83.659 28.8821 84.1381 28.8821C84.6598 28.8821 85.0768 28.7739 85.3891 28.5574C85.7014 28.3373 85.8576 28.0694 85.8576 27.7535C85.8576 27.498 85.7617 27.2833 85.5701 27.1094C85.382 26.9355 85.0928 26.8042 84.7024 26.7155L83.3183 26.4121C82.5553 26.2382 81.991 25.9614 81.6255 25.5816C81.2635 25.2019 81.0825 24.721 81.0825 24.139C81.0825 23.6563 81.2174 23.234 81.4871 22.872C81.7568 22.5101 82.1294 22.2279 82.605 22.0256C83.0805 21.8198 83.6253 21.7169 84.2393 21.7169C85.1229 21.7169 85.8185 21.9085 86.326 22.2918C86.8335 22.6715 87.1689 23.1808 87.3321 23.8196ZM95.369 23.8196L93.9264 24.0751C93.8661 23.8906 93.7703 23.7149 93.6389 23.5481C93.5112 23.3813 93.3373 23.2447 93.1173 23.1382C92.8972 23.0317 92.6222 22.9785 92.2921 22.9785C91.8414 22.9785 91.4653 23.0797 91.1636 23.2819C90.8619 23.4807 90.7111 23.738 90.7111 24.0538C90.7111 24.3271 90.8123 24.5471 91.0145 24.7139C91.2168 24.8807 91.5433 25.0174 91.994 25.1238L93.2929 25.4219C94.0453 25.5958 94.606 25.8638 94.9751 26.2257C95.3442 26.5877 95.5287 27.058 95.5287 27.6364C95.5287 28.1262 95.3868 28.5627 95.1029 28.946C94.8225 29.3257 94.4304 29.6238 93.9264 29.8403C93.426 30.0568 92.8458 30.165 92.1857 30.165C91.2701 30.165 90.523 29.9698 89.9445 29.5795C89.3661 29.1855 89.0112 28.6266 88.8799 27.9026L90.4183 27.6684C90.5141 28.0694 90.7111 28.3728 91.0092 28.5787C91.3073 28.781 91.6959 28.8821 92.175 28.8821C92.6967 28.8821 93.1137 28.7739 93.426 28.5574C93.7383 28.3373 93.8945 28.0694 93.8945 27.7535C93.8945 27.498 93.7986 27.2833 93.607 27.1094C93.4189 26.9355 93.1297 26.8042 92.7393 26.7155L91.3552 26.4121C90.5922 26.2382 90.0279 25.9614 89.6624 25.5816C89.3004 25.2019 89.1194 24.721 89.1194 24.139C89.1194 23.6563 89.2543 23.234 89.524 22.872C89.7937 22.5101 90.1664 22.2279 90.6419 22.0256C91.1175 21.8198 91.6622 21.7169 92.2762 21.7169C93.1598 21.7169 93.8554 21.9085 94.3629 22.2918C94.8704 22.6715 95.2058 23.1808 95.369 23.8196ZM97.2788 30V21.8233H98.8705V30H97.2788ZM98.0826 20.5617C97.8058 20.5617 97.568 20.4694 97.3693 20.2849C97.1741 20.0968 97.0765 19.8732 97.0765 19.6142C97.0765 19.3515 97.1741 19.128 97.3693 18.9434C97.568 18.7553 97.8058 18.6613 98.0826 18.6613C98.3594 18.6613 98.5954 18.7553 98.7906 18.9434C98.9893 19.128 99.0887 19.3515 99.0887 19.6142C99.0887 19.8732 98.9893 20.0968 98.7906 20.2849C98.5954 20.4694 98.3594 20.5617 98.0826 20.5617ZM107.139 23.8196L105.696 24.0751C105.636 23.8906 105.54 23.7149 105.409 23.5481C105.281 23.3813 105.107 23.2447 104.887 23.1382C104.667 23.0317 104.392 22.9785 104.062 22.9785C103.611 22.9785 103.235 23.0797 102.933 23.2819C102.632 23.4807 102.481 23.738 102.481 24.0538C102.481 24.3271 102.582 24.5471 102.784 24.7139C102.987 24.8807 103.313 25.0174 103.764 25.1238L105.063 25.4219C105.815 25.5958 106.376 25.8638 106.745 26.2257C107.114 26.5877 107.299 27.058 107.299 27.6364C107.299 28.1262 107.157 28.5627 106.873 28.946C106.592 29.3257 106.2 29.6238 105.696 29.8403C105.196 30.0568 104.616 30.165 103.956 30.165C103.04 30.165 102.293 29.9698 101.714 29.5795C101.136 29.1855 100.781 28.6266 100.65 27.9026L102.188 27.6684C102.284 28.0694 102.481 28.3728 102.779 28.5787C103.077 28.781 103.466 28.8821 103.945 28.8821C104.467 28.8821 104.884 28.7739 105.196 28.5574C105.508 28.3373 105.664 28.0694 105.664 27.7535C105.664 27.498 105.569 27.2833 105.377 27.1094C105.189 26.9355 104.9 26.8042 104.509 26.7155L103.125 26.4121C102.362 26.2382 101.798 25.9614 101.432 25.5816C101.07 25.2019 100.889 24.721 100.889 24.139C100.889 23.6563 101.024 23.234 101.294 22.872C101.564 22.5101 101.936 22.2279 102.412 22.0256C102.887 21.8198 103.432 21.7169 104.046 21.7169C104.93 21.7169 105.625 21.9085 106.133 22.2918C106.64 22.6715 106.976 23.1808 107.139 23.8196ZM112.866 21.8233V23.1009H108.399V21.8233H112.866ZM109.597 19.8644H111.189V27.5992C111.189 27.9079 111.235 28.1404 111.327 28.2965C111.419 28.4491 111.538 28.5538 111.684 28.6106C111.833 28.6638 111.994 28.6905 112.168 28.6905C112.296 28.6905 112.408 28.6816 112.504 28.6638C112.599 28.6461 112.674 28.6319 112.727 28.6213L113.015 29.9361C112.922 29.9716 112.791 30.0071 112.621 30.0426C112.45 30.0816 112.237 30.1029 111.982 30.1065C111.563 30.1136 111.173 30.039 110.811 29.8829C110.449 29.7267 110.156 29.4854 109.932 29.1589C109.709 28.8324 109.597 28.4225 109.597 27.9292V19.8644ZM117.006 30.181C116.488 30.181 116.019 30.0852 115.6 29.8935C115.182 29.6983 114.85 29.4162 114.605 29.0471C114.364 28.678 114.243 28.2256 114.243 27.6897C114.243 27.2283 114.332 26.8486 114.509 26.5505C114.687 26.2524 114.926 26.0164 115.228 25.8425C115.529 25.6686 115.867 25.5373 116.239 25.4485C116.612 25.3598 116.992 25.2924 117.378 25.2463C117.868 25.1895 118.266 25.1433 118.571 25.1078C118.876 25.0688 119.098 25.0067 119.236 24.9215C119.375 24.8364 119.444 24.6979 119.444 24.5063V24.469C119.444 24.0041 119.313 23.6439 119.05 23.3884C118.791 23.1329 118.404 23.0051 117.889 23.0051C117.354 23.0051 116.931 23.124 116.622 23.3618C116.317 23.596 116.106 23.8569 115.989 24.1443L114.493 23.8036C114.671 23.3068 114.93 22.9058 115.27 22.6006C115.615 22.2918 116.01 22.0682 116.457 21.9298C116.905 21.7879 117.375 21.7169 117.868 21.7169C118.195 21.7169 118.541 21.7559 118.906 21.834C119.275 21.9085 119.62 22.0469 119.939 22.2492C120.262 22.4515 120.526 22.7407 120.732 23.1169C120.938 23.4896 121.041 23.974 121.041 24.5702V30H119.486V28.8821H119.423C119.32 29.0879 119.165 29.2902 118.959 29.489C118.754 29.6877 118.489 29.8527 118.166 29.984C117.843 30.1153 117.456 30.181 117.006 30.181ZM117.352 28.9034C117.792 28.9034 118.168 28.8164 118.48 28.6425C118.796 28.4687 119.036 28.2415 119.199 27.9612C119.366 27.6772 119.449 27.3738 119.449 27.0509V25.9968C119.392 26.0536 119.282 26.1069 119.119 26.1565C118.959 26.2027 118.777 26.2435 118.571 26.279C118.365 26.3109 118.164 26.3411 117.969 26.3695C117.774 26.3943 117.611 26.4156 117.48 26.4334C117.171 26.4724 116.889 26.5381 116.633 26.6303C116.381 26.7226 116.179 26.8557 116.026 27.0296C115.877 27.1999 115.803 27.4271 115.803 27.711C115.803 28.1049 115.948 28.403 116.239 28.6053C116.53 28.804 116.901 28.9034 117.352 28.9034ZM124.753 25.1451V30H123.161V21.8233H124.689V23.1542H124.79C124.978 22.7212 125.272 22.3734 125.673 22.1108C126.078 21.8482 126.587 21.7169 127.201 21.7169C127.758 21.7169 128.246 21.834 128.665 22.0682C129.084 22.2989 129.409 22.6431 129.639 23.1009C129.87 23.5588 129.985 24.1248 129.985 24.7991V30H128.394V24.9907C128.394 24.3981 128.239 23.9349 127.931 23.6013C127.622 23.2642 127.198 23.0956 126.658 23.0956C126.289 23.0956 125.961 23.1755 125.673 23.3352C125.39 23.4949 125.164 23.7291 124.997 24.0379C124.834 24.3431 124.753 24.7121 124.753 25.1451ZM135.564 30.165C134.773 30.165 134.091 29.9858 133.52 29.6274C132.952 29.2654 132.516 28.7668 132.211 28.1315C131.905 27.4963 131.753 26.7687 131.753 25.9489C131.753 25.1185 131.909 24.3856 132.221 23.7504C132.534 23.1116 132.974 22.613 133.541 22.2545C134.109 21.8961 134.778 21.7169 135.548 21.7169C136.169 21.7169 136.723 21.8322 137.209 22.0629C137.695 22.29 138.088 22.6094 138.386 23.0211C138.687 23.4328 138.867 23.9136 138.923 24.4637H137.374C137.289 24.0804 137.094 23.7504 136.789 23.4736C136.487 23.1968 136.082 23.0584 135.575 23.0584C135.131 23.0584 134.743 23.1755 134.409 23.4097C134.079 23.6404 133.822 23.9704 133.637 24.3998C133.453 24.8257 133.36 25.3297 133.36 25.9117C133.36 26.5079 133.451 27.0225 133.632 27.4554C133.813 27.8884 134.068 28.2238 134.398 28.4616C134.732 28.6993 135.124 28.8182 135.575 28.8182C135.877 28.8182 136.15 28.7632 136.395 28.6532C136.643 28.5396 136.851 28.3782 137.018 28.1688C137.188 27.9594 137.307 27.7074 137.374 27.4129H138.923C138.867 27.9416 138.694 28.4136 138.407 28.8289C138.119 29.2441 137.734 29.5706 137.252 29.8084C136.773 30.0461 136.21 30.165 135.564 30.165ZM144.149 30.165C143.344 30.165 142.65 29.9929 142.068 29.6487C141.49 29.3009 141.042 28.8129 140.727 28.1847C140.414 27.553 140.258 26.8131 140.258 25.9649C140.258 25.1274 140.414 24.3892 140.727 23.7504C141.042 23.1116 141.483 22.613 142.047 22.2545C142.615 21.8961 143.278 21.7169 144.038 21.7169C144.499 21.7169 144.946 21.7932 145.379 21.9458C145.812 22.0984 146.201 22.3379 146.545 22.6644C146.889 22.9909 147.161 23.415 147.359 23.9367C147.558 24.4549 147.658 25.0848 147.658 25.8265V26.3908H141.158V25.1983H146.098C146.098 24.7796 146.013 24.4087 145.842 24.0858C145.672 23.7593 145.432 23.502 145.124 23.3139C144.818 23.1258 144.46 23.0317 144.048 23.0317C143.601 23.0317 143.211 23.1418 142.877 23.3618C142.547 23.5783 142.292 23.8622 142.111 24.2135C141.933 24.5613 141.844 24.9393 141.844 25.3474V26.279C141.844 26.8255 141.94 27.2904 142.132 27.6737C142.327 28.057 142.599 28.3498 142.946 28.5521C143.294 28.7508 143.701 28.8502 144.165 28.8502C144.467 28.8502 144.742 28.8076 144.991 28.7224C145.239 28.6337 145.454 28.5024 145.635 28.3285C145.816 28.1546 145.954 27.9399 146.05 27.6843L147.556 27.9558C147.436 28.3994 147.219 28.7881 146.907 29.1216C146.598 29.4517 146.21 29.709 145.741 29.8935C145.276 30.0745 144.746 30.165 144.149 30.165ZM150.472 30.1011C150.181 30.1011 149.931 29.9982 149.722 29.7924C149.512 29.583 149.408 29.331 149.408 29.0365C149.408 28.7455 149.512 28.497 149.722 28.2912C149.931 28.0818 150.181 27.9771 150.472 27.9771C150.763 27.9771 151.014 28.0818 151.223 28.2912C151.432 28.497 151.537 28.7455 151.537 29.0365C151.537 29.2317 151.487 29.4109 151.388 29.5741C151.292 29.7338 151.164 29.8616 151.005 29.9574C150.845 30.0532 150.667 30.1011 150.472 30.1011Z" fill="black"/>
</svg>
