<svg width="131" height="23" viewBox="0 0 131 23" fill="none" xmlns="http://www.w3.org/2000/svg">
<path d="M14.8813 0.3113V17.5659H12.101L3.97081 5.81289H3.82759V17.5659H0.701871V0.3113H3.49901L11.6208 12.0727H11.7725V0.3113H14.8813ZM23.8814 17.8187C22.584 17.8187 21.4634 17.5491 20.5198 17.0099C19.5818 16.465 18.8601 15.6955 18.3546 14.7014C17.8491 13.7016 17.5963 12.5249 17.5963 11.1713C17.5963 9.8401 17.8491 8.67181 18.3546 7.66642C18.8657 6.6554 19.579 5.86906 20.4946 5.30739C21.4101 4.7401 22.4857 4.45645 23.7214 4.45645C24.5189 4.45645 25.2716 4.58564 25.9793 4.84401C26.6926 5.09676 27.3217 5.48993 27.8665 6.02352C28.417 6.55711 28.8494 7.23674 29.164 8.0624C29.4785 8.88244 29.6358 9.85975 29.6358 10.9943V11.9295H19.0286V9.8738H26.7123C26.7067 9.28965 26.5803 8.77011 26.3332 8.31515C26.086 7.85458 25.7406 7.4923 25.2969 7.22831C24.8588 6.96433 24.3476 6.83233 23.7635 6.83233C23.14 6.83233 22.5924 6.98398 22.1206 7.28729C21.6488 7.58497 21.2809 7.97815 21.0169 8.4668C20.7585 8.94984 20.6265 9.48062 20.6209 10.0591V11.8537C20.6209 12.6063 20.7585 13.2523 21.0338 13.7915C21.309 14.3251 21.6937 14.7351 22.188 15.0215C22.6823 15.3024 23.2608 15.4428 23.9236 15.4428C24.3673 15.4428 24.7689 15.381 25.1284 15.2574C25.4878 15.1283 25.7996 14.9401 26.0635 14.693C26.3275 14.4458 26.5269 14.1397 26.6617 13.7746L29.5094 14.0948C29.3297 14.8474 28.9871 15.5046 28.4816 16.0662C27.9817 16.6223 27.3414 17.0548 26.5606 17.3637C25.7799 17.667 24.8868 17.8187 23.8814 17.8187ZM37.9451 17.8187C36.6476 17.8187 35.527 17.5491 34.5834 17.0099C33.6454 16.465 32.9237 15.6955 32.4182 14.7014C31.9127 13.7016 31.6599 12.5249 31.6599 11.1713C31.6599 9.8401 31.9127 8.67181 32.4182 7.66642C32.9293 6.6554 33.6426 5.86906 34.5582 5.30739C35.4737 4.7401 36.5493 4.45645 37.785 4.45645C38.5826 4.45645 39.3352 4.58564 40.0429 4.84401C40.7562 5.09676 41.3853 5.48993 41.9301 6.02352C42.4806 6.55711 42.9131 7.23674 43.2276 8.0624C43.5421 8.88244 43.6994 9.85975 43.6994 10.9943V11.9295H33.0922V9.8738H40.7759C40.7703 9.28965 40.6439 8.77011 40.3968 8.31515C40.1496 7.85458 39.8042 7.4923 39.3605 7.22831C38.9224 6.96433 38.4112 6.83233 37.8271 6.83233C37.2036 6.83233 36.656 6.98398 36.1842 7.28729C35.7124 7.58497 35.3445 7.97815 35.0805 8.4668C34.8221 8.94984 34.6902 9.48062 34.6845 10.0591V11.8537C34.6845 12.6063 34.8221 13.2523 35.0974 13.7915C35.3726 14.3251 35.7573 14.7351 36.2516 15.0215C36.7459 15.3024 37.3244 15.4428 37.9872 15.4428C38.4309 15.4428 38.8325 15.381 39.192 15.2574C39.5514 15.1283 39.8632 14.9401 40.1272 14.693C40.3911 14.4458 40.5905 14.1397 40.7253 13.7746L43.573 14.0948C43.3933 14.8474 43.0507 15.5046 42.5452 16.0662C42.0453 16.6223 41.405 17.0548 40.6242 17.3637C39.8435 17.667 38.9504 17.8187 37.9451 17.8187ZM51.0819 17.7934C50.0653 17.7934 49.1554 17.5322 48.3522 17.0099C47.549 16.4875 46.9143 15.7292 46.4481 14.7351C45.9819 13.7409 45.7488 12.5333 45.7488 11.1123C45.7488 9.6744 45.9847 8.46119 46.4565 7.47264C46.9339 6.47848 47.5771 5.72864 48.3859 5.22314C49.1947 4.71201 50.0962 4.45645 51.0903 4.45645C51.8486 4.45645 52.472 4.58564 52.9607 4.84401C53.4494 5.09676 53.8369 5.40287 54.1234 5.76234C54.4098 6.1162 54.6317 6.45039 54.7889 6.76493H54.9153V0.3113H57.9736V17.5659H54.9743V15.527H54.7889C54.6317 15.8416 54.4042 16.1758 54.1065 16.5296C53.8088 16.8779 53.4157 17.1756 52.927 17.4227C52.4383 17.6698 51.8233 17.7934 51.0819 17.7934ZM51.9328 15.2911C52.5788 15.2911 53.1292 15.117 53.5842 14.7688C54.0391 14.4149 54.3845 13.9235 54.6204 13.2944C54.8563 12.6653 54.9743 11.9323 54.9743 11.0954C54.9743 10.2585 54.8563 9.53117 54.6204 8.91333C54.3902 8.29549 54.0475 7.81526 53.5926 7.47264C53.1432 7.13002 52.59 6.95871 51.9328 6.95871C51.2532 6.95871 50.6859 7.13564 50.231 7.48949C49.776 7.84334 49.4334 8.332 49.2031 8.95546C48.9728 9.57892 48.8577 10.2922 48.8577 11.0954C48.8577 11.9042 48.9728 12.626 49.2031 13.2607C49.439 13.8898 49.7844 14.3868 50.2394 14.7519C50.7 15.1114 51.2644 15.2911 51.9328 15.2911ZM67.2434 17.5659V0.3113H70.3691V7.61587H78.3645V0.3113H81.4986V17.5659H78.3645V10.2361H70.3691V17.5659H67.2434ZM90.4924 17.8187C89.195 17.8187 88.0744 17.5491 87.1308 17.0099C86.1928 16.465 85.4711 15.6955 84.9656 14.7014C84.4601 13.7016 84.2073 12.5249 84.2073 11.1713C84.2073 9.8401 84.4601 8.67181 84.9656 7.66642C85.4767 6.6554 86.19 5.86906 87.1055 5.30739C88.0211 4.7401 89.0967 4.45645 90.3324 4.45645C91.1299 4.45645 91.8826 4.58564 92.5903 4.84401C93.3036 5.09676 93.9327 5.48993 94.4775 6.02352C95.028 6.55711 95.4604 7.23674 95.775 8.0624C96.0895 8.88244 96.2468 9.85975 96.2468 10.9943V11.9295H85.6396V9.8738H93.3233C93.3177 9.28965 93.1913 8.77011 92.9441 8.31515C92.697 7.85458 92.3516 7.4923 91.9079 7.22831C91.4698 6.96433 90.9586 6.83233 90.3745 6.83233C89.751 6.83233 89.2034 6.98398 88.7316 7.28729C88.2598 7.58497 87.8919 7.97815 87.6279 8.4668C87.3695 8.94984 87.2375 9.48062 87.2319 10.0591V11.8537C87.2319 12.6063 87.3695 13.2523 87.6448 13.7915C87.92 14.3251 88.3047 14.7351 88.799 15.0215C89.2933 15.3024 89.8718 15.4428 90.5346 15.4428C90.9783 15.4428 91.3799 15.381 91.7394 15.2574C92.0988 15.1283 92.4106 14.9401 92.6745 14.693C92.9385 14.4458 93.1379 14.1397 93.2727 13.7746L96.1204 14.0948C95.9407 14.8474 95.5981 15.5046 95.0925 16.0662C94.5927 16.6223 93.9523 17.0548 93.1716 17.3637C92.3909 17.667 91.4978 17.8187 90.4924 17.8187ZM101.877 0.3113V17.5659H98.827V0.3113H101.877ZM105.013 22.4188V4.62495H108.012V6.76493H108.189C108.347 6.45039 108.569 6.1162 108.855 5.76234C109.141 5.40287 109.529 5.09676 110.018 4.84401C110.506 4.58564 111.13 4.45645 111.888 4.45645C112.888 4.45645 113.789 4.71201 114.592 5.22314C115.401 5.72864 116.042 6.47848 116.513 7.47264C116.991 8.46119 117.23 9.6744 117.23 11.1123C117.23 12.5333 116.996 13.7409 116.53 14.7351C116.064 15.7292 115.429 16.4875 114.626 17.0099C113.823 17.5322 112.913 17.7934 111.896 17.7934C111.155 17.7934 110.54 17.6698 110.051 17.4227C109.563 17.1756 109.17 16.8779 108.872 16.5296C108.58 16.1758 108.352 15.8416 108.189 15.527H108.063V22.4188H105.013ZM108.004 11.0954C108.004 11.9323 108.122 12.6653 108.358 13.2944C108.599 13.9235 108.945 14.4149 109.394 14.7688C109.849 15.117 110.4 15.2911 111.045 15.2911C111.719 15.2911 112.284 15.1114 112.739 14.7519C113.194 14.3868 113.537 13.8898 113.767 13.2607C114.003 12.626 114.121 11.9042 114.121 11.0954C114.121 10.2922 114.006 9.57892 113.775 8.95546C113.545 8.332 113.202 7.84334 112.747 7.48949C112.292 7.13564 111.725 6.95871 111.045 6.95871C110.394 6.95871 109.841 7.13002 109.386 7.47264C108.931 7.81526 108.585 8.29549 108.349 8.91333C108.119 9.53117 108.004 10.2585 108.004 11.0954ZM122.756 12.494V12.275C122.762 11.2583 122.857 10.4495 123.043 9.84852C123.234 9.24753 123.503 8.76449 123.852 8.3994C124.2 8.0287 124.624 7.68888 125.124 7.37996C125.466 7.16653 125.773 6.93343 126.042 6.68068C126.317 6.42231 126.534 6.13586 126.691 5.82132C126.848 5.50117 126.927 5.1445 126.927 4.75133C126.927 4.30761 126.823 3.92286 126.615 3.59709C126.407 3.27132 126.126 3.01857 125.773 2.83883C125.424 2.6591 125.034 2.56923 124.601 2.56923C124.203 2.56923 123.824 2.65629 123.464 2.83041C123.11 2.99891 122.815 3.25728 122.579 3.60552C122.349 3.94814 122.22 4.38343 122.192 4.91141H119.193C119.221 3.84423 119.479 2.95117 119.968 2.23222C120.462 1.51328 121.113 0.974075 121.922 0.614603C122.737 0.255132 123.635 0.0753965 124.618 0.0753965C125.691 0.0753965 126.635 0.263557 127.449 0.639879C128.269 1.0162 128.907 1.5526 129.362 2.24907C129.822 2.93993 130.053 3.75998 130.053 4.7092C130.053 5.34951 129.949 5.92242 129.741 6.42793C129.539 6.93343 129.249 7.38277 128.873 7.77594C128.497 8.16912 128.05 8.52016 127.533 8.82908C127.078 9.10992 126.705 9.40199 126.413 9.70529C126.126 10.0086 125.913 10.3653 125.773 10.7753C125.638 11.1797 125.568 11.6796 125.562 12.275V12.494H122.756ZM124.222 17.7513C123.717 17.7513 123.282 17.5715 122.916 17.2121C122.551 16.8526 122.369 16.4145 122.369 15.8977C122.369 15.3922 122.551 14.9598 122.916 14.6003C123.282 14.2408 123.717 14.0611 124.222 14.0611C124.722 14.0611 125.155 14.2408 125.52 14.6003C125.891 14.9598 126.076 15.3922 126.076 15.8977C126.076 16.2404 125.989 16.5521 125.815 16.8329C125.646 17.1138 125.422 17.3384 125.141 17.5069C124.865 17.6698 124.559 17.7513 124.222 17.7513Z" fill="black"/>
</svg>
