<svg width="306" height="199" viewBox="0 0 306 199" fill="none" xmlns="http://www.w3.org/2000/svg">
<g filter="url(#filter0_d_83_462)">
<path fill-rule="evenodd" clip-rule="evenodd" d="M155.03 54.5758C172.012 54.5758 186.362 43.3113 191.017 27.847C192.768 22.0296 197.531 17 203.606 17H281C287.075 17 292 21.9249 292 28V170C292 176.075 287.075 181 281 181H25C18.9249 181 14 176.075 14 170V28C14 21.9249 18.9249 17 25 17H106.455C112.53 17 117.293 22.0296 119.044 27.8469C123.699 43.3113 138.049 54.5758 155.03 54.5758Z" fill="white"/>
</g>
<path d="M144.744 101V85.4L146.112 86.816H141.192V84.2H147.864V101H144.744ZM151.121 101V98.912L157.793 92.576C158.353 92.048 158.769 91.584 159.041 91.184C159.313 90.784 159.489 90.416 159.569 90.08C159.665 89.728 159.713 89.4 159.713 89.096C159.713 88.328 159.449 87.736 158.921 87.32C158.393 86.888 157.617 86.672 156.593 86.672C155.777 86.672 155.033 86.816 154.361 87.104C153.705 87.392 153.137 87.832 152.657 88.424L150.473 86.744C151.129 85.864 152.009 85.184 153.113 84.704C154.233 84.208 155.481 83.96 156.857 83.96C158.073 83.96 159.129 84.16 160.025 84.56C160.937 84.944 161.633 85.496 162.113 86.216C162.609 86.936 162.857 87.792 162.857 88.784C162.857 89.328 162.785 89.872 162.641 90.416C162.497 90.944 162.225 91.504 161.825 92.096C161.425 92.688 160.841 93.352 160.073 94.088L154.337 99.536L153.689 98.36H163.505V101H151.121Z" fill="black"/>
<path d="M86.3291 115.203V128H84.624L78.1816 118.13V128H76.4854V115.203H78.1816L84.6504 125.1V115.203H86.3291ZM94.8363 126.374V121.479C94.8363 121.104 94.7601 120.778 94.6078 120.503C94.4613 120.222 94.2386 120.005 93.9398 119.853C93.641 119.7 93.2718 119.624 92.8324 119.624C92.4222 119.624 92.0619 119.694 91.7513 119.835C91.4466 119.976 91.2064 120.16 91.0306 120.389C90.8607 120.617 90.7757 120.863 90.7757 121.127H89.1498C89.1498 120.787 89.2377 120.45 89.4134 120.116C89.5892 119.782 89.8412 119.48 90.1693 119.211C90.5033 118.936 90.9017 118.719 91.3646 118.561C91.8334 118.396 92.3548 118.314 92.9291 118.314C93.6205 118.314 94.2298 118.432 94.7572 118.666C95.2904 118.9 95.7064 119.255 96.0052 119.729C96.3099 120.198 96.4623 120.787 96.4623 121.496V125.926C96.4623 126.242 96.4886 126.579 96.5414 126.937C96.6 127.294 96.6849 127.602 96.7963 127.859V128H95.1C95.0179 127.812 94.9535 127.563 94.9066 127.253C94.8597 126.937 94.8363 126.644 94.8363 126.374ZM95.1175 122.234L95.1351 123.377H93.4916C93.0287 123.377 92.6156 123.415 92.2523 123.491C91.889 123.562 91.5843 123.67 91.3382 123.816C91.0921 123.963 90.9046 124.147 90.7757 124.37C90.6468 124.587 90.5824 124.842 90.5824 125.135C90.5824 125.434 90.6498 125.706 90.7845 125.952C90.9193 126.198 91.1214 126.395 91.391 126.541C91.6664 126.682 92.0033 126.752 92.4017 126.752C92.8998 126.752 93.3392 126.646 93.7201 126.436C94.1009 126.225 94.4027 125.967 94.6254 125.662C94.8539 125.357 94.9769 125.062 94.9945 124.774L95.6888 125.557C95.6478 125.803 95.5365 126.075 95.3548 126.374C95.1732 126.673 94.93 126.96 94.6254 127.235C94.3265 127.505 93.9691 127.73 93.5531 127.912C93.1429 128.088 92.68 128.176 92.1644 128.176C91.5199 128.176 90.9545 128.05 90.4681 127.798C89.9877 127.546 89.6127 127.209 89.3431 126.787C89.0795 126.359 88.9476 125.882 88.9476 125.354C88.9476 124.845 89.0472 124.396 89.2464 124.01C89.4457 123.617 89.7328 123.292 90.1078 123.034C90.4828 122.771 90.9339 122.571 91.4613 122.437C91.9886 122.302 92.5775 122.234 93.2279 122.234H95.1175ZM103.141 118.49V119.738H97.9997V118.49H103.141ZM99.74 116.179H101.366V125.645C101.366 125.967 101.416 126.21 101.515 126.374C101.615 126.538 101.744 126.646 101.902 126.699C102.06 126.752 102.23 126.778 102.412 126.778C102.547 126.778 102.687 126.767 102.834 126.743C102.986 126.714 103.1 126.69 103.176 126.673L103.185 128C103.056 128.041 102.886 128.079 102.676 128.114C102.47 128.155 102.221 128.176 101.928 128.176C101.53 128.176 101.164 128.097 100.83 127.938C100.496 127.78 100.229 127.517 100.03 127.147C99.8366 126.772 99.74 126.269 99.74 125.636V116.179ZM106.955 118.49V128H105.32V118.49H106.955ZM105.197 115.968C105.197 115.704 105.276 115.481 105.435 115.3C105.599 115.118 105.839 115.027 106.155 115.027C106.466 115.027 106.703 115.118 106.867 115.3C107.037 115.481 107.122 115.704 107.122 115.968C107.122 116.22 107.037 116.437 106.867 116.618C106.703 116.794 106.466 116.882 106.155 116.882C105.839 116.882 105.599 116.794 105.435 116.618C105.276 116.437 105.197 116.22 105.197 115.968ZM109.275 123.351V123.148C109.275 122.463 109.374 121.827 109.574 121.241C109.773 120.649 110.06 120.137 110.435 119.703C110.81 119.264 111.264 118.924 111.797 118.684C112.331 118.438 112.928 118.314 113.59 118.314C114.258 118.314 114.859 118.438 115.392 118.684C115.931 118.924 116.388 119.264 116.763 119.703C117.144 120.137 117.434 120.649 117.633 121.241C117.832 121.827 117.932 122.463 117.932 123.148V123.351C117.932 124.036 117.832 124.672 117.633 125.258C117.434 125.844 117.144 126.356 116.763 126.796C116.388 127.229 115.934 127.569 115.401 127.815C114.873 128.056 114.276 128.176 113.608 128.176C112.94 128.176 112.339 128.056 111.806 127.815C111.273 127.569 110.816 127.229 110.435 126.796C110.06 126.356 109.773 125.844 109.574 125.258C109.374 124.672 109.275 124.036 109.275 123.351ZM110.901 123.148V123.351C110.901 123.825 110.956 124.273 111.068 124.695C111.179 125.111 111.346 125.48 111.569 125.803C111.797 126.125 112.081 126.38 112.421 126.567C112.761 126.749 113.157 126.84 113.608 126.84C114.053 126.84 114.443 126.749 114.777 126.567C115.117 126.38 115.398 126.125 115.621 125.803C115.843 125.48 116.01 125.111 116.122 124.695C116.239 124.273 116.297 123.825 116.297 123.351V123.148C116.297 122.68 116.239 122.237 116.122 121.821C116.01 121.399 115.84 121.027 115.612 120.705C115.389 120.377 115.108 120.119 114.768 119.932C114.434 119.744 114.041 119.65 113.59 119.65C113.145 119.65 112.752 119.744 112.413 119.932C112.079 120.119 111.797 120.377 111.569 120.705C111.346 121.027 111.179 121.399 111.068 121.821C110.956 122.237 110.901 122.68 110.901 123.148ZM121.737 120.521V128H120.111V118.49H121.649L121.737 120.521ZM121.35 122.885L120.674 122.858C120.679 122.208 120.776 121.607 120.964 121.057C121.151 120.5 121.415 120.017 121.755 119.606C122.095 119.196 122.499 118.88 122.968 118.657C123.442 118.429 123.967 118.314 124.541 118.314C125.01 118.314 125.431 118.379 125.806 118.508C126.181 118.631 126.501 118.83 126.764 119.105C127.034 119.381 127.239 119.738 127.38 120.178C127.52 120.611 127.591 121.142 127.591 121.769V128H125.956V121.751C125.956 121.253 125.883 120.854 125.736 120.556C125.59 120.251 125.376 120.031 125.095 119.896C124.813 119.756 124.468 119.686 124.057 119.686C123.653 119.686 123.284 119.771 122.95 119.94C122.622 120.11 122.338 120.345 122.097 120.644C121.863 120.942 121.679 121.285 121.544 121.672C121.415 122.053 121.35 122.457 121.35 122.885ZM135.808 126.374V121.479C135.808 121.104 135.732 120.778 135.579 120.503C135.433 120.222 135.21 120.005 134.911 119.853C134.612 119.7 134.243 119.624 133.804 119.624C133.394 119.624 133.033 119.694 132.723 119.835C132.418 119.976 132.178 120.16 132.002 120.389C131.832 120.617 131.747 120.863 131.747 121.127H130.121C130.121 120.787 130.209 120.45 130.385 120.116C130.561 119.782 130.813 119.48 131.141 119.211C131.475 118.936 131.873 118.719 132.336 118.561C132.805 118.396 133.326 118.314 133.901 118.314C134.592 118.314 135.201 118.432 135.729 118.666C136.262 118.9 136.678 119.255 136.977 119.729C137.281 120.198 137.434 120.787 137.434 121.496V125.926C137.434 126.242 137.46 126.579 137.513 126.937C137.571 127.294 137.656 127.602 137.768 127.859V128H136.071C135.989 127.812 135.925 127.563 135.878 127.253C135.831 126.937 135.808 126.644 135.808 126.374ZM136.089 122.234L136.107 123.377H134.463C134 123.377 133.587 123.415 133.224 123.491C132.861 123.562 132.556 123.67 132.31 123.816C132.064 123.963 131.876 124.147 131.747 124.37C131.618 124.587 131.554 124.842 131.554 125.135C131.554 125.434 131.621 125.706 131.756 125.952C131.891 126.198 132.093 126.395 132.362 126.541C132.638 126.682 132.975 126.752 133.373 126.752C133.871 126.752 134.311 126.646 134.692 126.436C135.072 126.225 135.374 125.967 135.597 125.662C135.825 125.357 135.948 125.062 135.966 124.774L136.66 125.557C136.619 125.803 136.508 126.075 136.326 126.374C136.145 126.673 135.902 126.96 135.597 127.235C135.298 127.505 134.941 127.73 134.525 127.912C134.114 128.088 133.652 128.176 133.136 128.176C132.491 128.176 131.926 128.05 131.44 127.798C130.959 127.546 130.584 127.209 130.315 126.787C130.051 126.359 129.919 125.882 129.919 125.354C129.919 124.845 130.019 124.396 130.218 124.01C130.417 123.617 130.704 123.292 131.079 123.034C131.454 122.771 131.905 122.571 132.433 122.437C132.96 122.302 133.549 122.234 134.199 122.234H136.089ZM141.898 114.5V128H140.263V114.5H141.898ZM151.319 115.203V128H149.622V115.203H151.319ZM155.923 120.521V128H154.297V118.49H155.836L155.923 120.521ZM155.537 122.885L154.86 122.858C154.866 122.208 154.963 121.607 155.15 121.057C155.338 120.5 155.601 120.017 155.941 119.606C156.281 119.196 156.685 118.88 157.154 118.657C157.629 118.429 158.153 118.314 158.727 118.314C159.196 118.314 159.618 118.379 159.993 118.508C160.368 118.631 160.687 118.83 160.951 119.105C161.22 119.381 161.425 119.738 161.566 120.178C161.707 120.611 161.777 121.142 161.777 121.769V128H160.142V121.751C160.142 121.253 160.069 120.854 159.922 120.556C159.776 120.251 159.562 120.031 159.281 119.896C159 119.756 158.654 119.686 158.244 119.686C157.839 119.686 157.47 119.771 157.136 119.94C156.808 120.11 156.524 120.345 156.284 120.644C156.049 120.942 155.865 121.285 155.73 121.672C155.601 122.053 155.537 122.457 155.537 122.885ZM169.924 125.478C169.924 125.243 169.871 125.026 169.766 124.827C169.666 124.622 169.458 124.438 169.142 124.273C168.831 124.104 168.362 123.957 167.735 123.834C167.208 123.723 166.73 123.591 166.303 123.438C165.881 123.286 165.52 123.102 165.222 122.885C164.929 122.668 164.703 122.413 164.545 122.12C164.387 121.827 164.308 121.484 164.308 121.092C164.308 120.717 164.39 120.362 164.554 120.028C164.724 119.694 164.961 119.398 165.266 119.141C165.576 118.883 165.948 118.681 166.382 118.534C166.815 118.388 167.299 118.314 167.832 118.314C168.594 118.314 169.244 118.449 169.783 118.719C170.322 118.988 170.735 119.349 171.022 119.8C171.31 120.245 171.453 120.74 171.453 121.285H169.827C169.827 121.021 169.748 120.767 169.59 120.521C169.437 120.269 169.212 120.061 168.913 119.896C168.62 119.732 168.26 119.65 167.832 119.65C167.381 119.65 167.015 119.721 166.733 119.861C166.458 119.996 166.256 120.169 166.127 120.38C166.004 120.591 165.942 120.813 165.942 121.048C165.942 121.224 165.972 121.382 166.03 121.522C166.095 121.657 166.206 121.783 166.364 121.9C166.522 122.012 166.745 122.117 167.032 122.217C167.319 122.316 167.686 122.416 168.131 122.516C168.91 122.691 169.552 122.902 170.056 123.148C170.56 123.395 170.935 123.696 171.181 124.054C171.427 124.411 171.55 124.845 171.55 125.354C171.55 125.771 171.462 126.151 171.286 126.497C171.116 126.843 170.867 127.142 170.539 127.394C170.217 127.64 169.83 127.833 169.379 127.974C168.934 128.108 168.433 128.176 167.876 128.176C167.038 128.176 166.329 128.026 165.749 127.728C165.169 127.429 164.729 127.042 164.431 126.567C164.132 126.093 163.982 125.592 163.982 125.064H165.617C165.641 125.51 165.769 125.864 166.004 126.128C166.238 126.386 166.525 126.57 166.865 126.682C167.205 126.787 167.542 126.84 167.876 126.84C168.321 126.84 168.693 126.781 168.992 126.664C169.297 126.547 169.528 126.386 169.686 126.181C169.845 125.976 169.924 125.741 169.924 125.478ZM177.807 118.49V119.738H172.665V118.49H177.807ZM174.406 116.179H176.032V125.645C176.032 125.967 176.081 126.21 176.181 126.374C176.281 126.538 176.409 126.646 176.568 126.699C176.726 126.752 176.896 126.778 177.077 126.778C177.212 126.778 177.353 126.767 177.499 126.743C177.652 126.714 177.766 126.69 177.842 126.673L177.851 128C177.722 128.041 177.552 128.079 177.341 128.114C177.136 128.155 176.887 128.176 176.594 128.176C176.196 128.176 175.829 128.097 175.495 127.938C175.161 127.78 174.895 127.517 174.696 127.147C174.502 126.772 174.406 126.269 174.406 125.636V116.179ZM181.621 118.49V128H179.986V118.49H181.621ZM179.863 115.968C179.863 115.704 179.942 115.481 180.1 115.3C180.264 115.118 180.505 115.027 180.821 115.027C181.132 115.027 181.369 115.118 181.533 115.3C181.703 115.481 181.788 115.704 181.788 115.968C181.788 116.22 181.703 116.437 181.533 116.618C181.369 116.794 181.132 116.882 180.821 116.882C180.505 116.882 180.264 116.794 180.1 116.618C179.942 116.437 179.863 116.22 179.863 115.968ZM188.353 118.49V119.738H183.211V118.49H188.353ZM184.951 116.179H186.577V125.645C186.577 125.967 186.627 126.21 186.727 126.374C186.826 126.538 186.955 126.646 187.113 126.699C187.272 126.752 187.441 126.778 187.623 126.778C187.758 126.778 187.898 126.767 188.045 126.743C188.197 126.714 188.312 126.69 188.388 126.673L188.397 128C188.268 128.041 188.098 128.079 187.887 128.114C187.682 128.155 187.433 128.176 187.14 128.176C186.741 128.176 186.375 128.097 186.041 127.938C185.707 127.78 185.44 127.517 185.241 127.147C185.048 126.772 184.951 126.269 184.951 125.636V116.179ZM196.218 125.803V118.49H197.853V128H196.297L196.218 125.803ZM196.526 123.799L197.203 123.781C197.203 124.414 197.135 125 197 125.539C196.871 126.072 196.661 126.535 196.368 126.928C196.075 127.32 195.691 127.628 195.216 127.851C194.742 128.067 194.164 128.176 193.485 128.176C193.022 128.176 192.597 128.108 192.21 127.974C191.829 127.839 191.501 127.631 191.226 127.35C190.951 127.068 190.737 126.702 190.584 126.251C190.438 125.8 190.365 125.258 190.365 124.625V118.49H191.991V124.643C191.991 125.07 192.037 125.425 192.131 125.706C192.231 125.981 192.363 126.201 192.527 126.365C192.697 126.523 192.884 126.635 193.089 126.699C193.3 126.764 193.517 126.796 193.74 126.796C194.431 126.796 194.979 126.664 195.383 126.4C195.787 126.131 196.078 125.771 196.253 125.319C196.435 124.862 196.526 124.355 196.526 123.799ZM204.453 118.49V119.738H199.311V118.49H204.453ZM201.052 116.179H202.677V125.645C202.677 125.967 202.727 126.21 202.827 126.374C202.927 126.538 203.055 126.646 203.214 126.699C203.372 126.752 203.542 126.778 203.723 126.778C203.858 126.778 203.999 126.767 204.145 126.743C204.298 126.714 204.412 126.69 204.488 126.673L204.497 128C204.368 128.041 204.198 128.079 203.987 128.114C203.782 128.155 203.533 128.176 203.24 128.176C202.842 128.176 202.475 128.097 202.141 127.938C201.807 127.78 201.541 127.517 201.342 127.147C201.148 126.772 201.052 126.269 201.052 125.636V116.179ZM208.267 118.49V128H206.632V118.49H208.267ZM206.509 115.968C206.509 115.704 206.588 115.481 206.746 115.3C206.91 115.118 207.151 115.027 207.467 115.027C207.777 115.027 208.015 115.118 208.179 115.3C208.349 115.481 208.434 115.704 208.434 115.968C208.434 116.22 208.349 116.437 208.179 116.618C208.015 116.794 207.777 116.882 207.467 116.882C207.151 116.882 206.91 116.794 206.746 116.618C206.588 116.437 206.509 116.22 206.509 115.968ZM210.586 123.351V123.148C210.586 122.463 210.686 121.827 210.885 121.241C211.084 120.649 211.372 120.137 211.747 119.703C212.122 119.264 212.576 118.924 213.109 118.684C213.642 118.438 214.24 118.314 214.902 118.314C215.57 118.314 216.17 118.438 216.704 118.684C217.243 118.924 217.7 119.264 218.075 119.703C218.456 120.137 218.746 120.649 218.945 121.241C219.144 121.827 219.244 122.463 219.244 123.148V123.351C219.244 124.036 219.144 124.672 218.945 125.258C218.746 125.844 218.456 126.356 218.075 126.796C217.7 127.229 217.246 127.569 216.712 127.815C216.185 128.056 215.587 128.176 214.919 128.176C214.251 128.176 213.651 128.056 213.118 127.815C212.584 127.569 212.127 127.229 211.747 126.796C211.372 126.356 211.084 125.844 210.885 125.258C210.686 124.672 210.586 124.036 210.586 123.351ZM212.212 123.148V123.351C212.212 123.825 212.268 124.273 212.379 124.695C212.491 125.111 212.658 125.48 212.88 125.803C213.109 126.125 213.393 126.38 213.733 126.567C214.073 126.749 214.468 126.84 214.919 126.84C215.365 126.84 215.754 126.749 216.088 126.567C216.428 126.38 216.709 126.125 216.932 125.803C217.155 125.48 217.322 125.111 217.433 124.695C217.55 124.273 217.609 123.825 217.609 123.351V123.148C217.609 122.68 217.55 122.237 217.433 121.821C217.322 121.399 217.152 121.027 216.923 120.705C216.701 120.377 216.419 120.119 216.08 119.932C215.746 119.744 215.353 119.65 214.902 119.65C214.457 119.65 214.064 119.744 213.724 119.932C213.39 120.119 213.109 120.377 212.88 120.705C212.658 121.027 212.491 121.399 212.379 121.821C212.268 122.237 212.212 122.68 212.212 123.148ZM223.049 120.521V128H221.423V118.49H222.961L223.049 120.521ZM222.662 122.885L221.985 122.858C221.991 122.208 222.088 121.607 222.275 121.057C222.463 120.5 222.726 120.017 223.066 119.606C223.406 119.196 223.81 118.88 224.279 118.657C224.754 118.429 225.278 118.314 225.852 118.314C226.321 118.314 226.743 118.379 227.118 118.508C227.493 118.631 227.812 118.83 228.076 119.105C228.346 119.381 228.551 119.738 228.691 120.178C228.832 120.611 228.902 121.142 228.902 121.769V128H227.267V121.751C227.267 121.253 227.194 120.854 227.048 120.556C226.901 120.251 226.687 120.031 226.406 119.896C226.125 119.756 225.779 119.686 225.369 119.686C224.965 119.686 224.596 119.771 224.262 119.94C223.933 120.11 223.649 120.345 223.409 120.644C223.175 120.942 222.99 121.285 222.855 121.672C222.726 122.053 222.662 122.457 222.662 122.885Z" fill="black"/>
<rect x="131" width="48.0049" height="48" rx="24" fill="#1977CC"/>
<path d="M166.799 20.5156C167.698 20.7891 167.698 22 166.799 22.2734L155.901 25.6328C155.12 25.8672 154.417 25.75 154.065 25.6328L146.448 23.2891C145.94 23.6016 145.667 24.1484 145.627 24.7344C145.979 24.9297 146.252 25.3203 146.252 25.75C146.252 26.1797 146.018 26.5312 145.706 26.7656L146.682 31.2578C146.76 31.6484 146.487 32 146.096 32H143.87C143.479 32 143.206 31.6484 143.284 31.2578L144.26 26.7656C143.948 26.5312 143.752 26.1797 143.752 25.75C143.752 25.3203 143.987 24.9297 144.377 24.6953C144.417 24.0312 144.651 23.3672 145.081 22.8594L143.167 22.2734C142.268 22 142.268 20.7891 143.167 20.5156L154.065 17.1562C154.651 16.9609 155.315 16.9609 155.901 17.1562L166.799 20.5156ZM156.252 26.8438L161.917 25.0859L162.502 29.5C162.502 30.9062 159.143 32 155.002 32C150.823 32 147.502 30.9062 147.502 29.5L148.049 25.0859L153.713 26.8438C154.182 27 155.159 27.1562 156.252 26.8438Z" fill="white"/>
<defs>
<filter id="filter0_d_83_462" x="0.2" y="7.2" width="305.6" height="191.6" filterUnits="userSpaceOnUse" color-interpolation-filters="sRGB">
<feFlood flood-opacity="0" result="BackgroundImageFix"/>
<feColorMatrix in="SourceAlpha" type="matrix" values="0 0 0 0 0 0 0 0 0 0 0 0 0 0 0 0 0 0 127 0" result="hardAlpha"/>
<feOffset dy="4"/>
<feGaussianBlur stdDeviation="6.9"/>
<feComposite in2="hardAlpha" operator="out"/>
<feColorMatrix type="matrix" values="0 0 0 0 0.901961 0 0 0 0 0.956863 0 0 0 0 0.996078 0 0 0 1 0"/>
<feBlend mode="normal" in2="BackgroundImageFix" result="effect1_dropShadow_83_462"/>
<feBlend mode="normal" in="SourceGraphic" in2="effect1_dropShadow_83_462" result="shape"/>
</filter>
</defs>
</svg>
