<svg width="321" height="334" viewBox="0 0 321 334" fill="none" xmlns="http://www.w3.org/2000/svg">
<circle cx="20" cy="21" r="15" stroke="#1782CF" stroke-width="2"/>
<path d="M22.5806 14.1876V28H20.4899V16.2783H20.409L17.1042 18.4365V16.4402L20.5506 14.1876H22.5806Z" fill="#1782CF"/>
<path d="M53.3624 28V14.1876H58.542C59.6031 14.1876 60.4934 14.3854 61.2128 14.7811C61.9367 15.1768 62.483 15.7208 62.8516 16.4132C63.2248 17.1011 63.4114 17.8835 63.4114 18.7603C63.4114 19.646 63.2248 20.4329 62.8516 21.1208C62.4785 21.8087 61.9277 22.3505 61.1993 22.7462C60.4709 23.1373 59.5739 23.3329 58.5083 23.3329H55.0754V21.2759H58.1711C58.7916 21.2759 59.2996 21.168 59.6953 20.9522C60.091 20.7363 60.3832 20.4396 60.5721 20.0619C60.7654 19.6842 60.8621 19.2503 60.8621 18.7603C60.8621 18.2702 60.7654 17.8385 60.5721 17.4653C60.3832 17.0922 60.0887 16.8021 59.6885 16.5953C59.2929 16.384 58.7826 16.2783 58.1576 16.2783H55.8645V28H53.3624ZM69.9147 28.2023C68.876 28.2023 67.979 27.9865 67.2237 27.5549C66.4728 27.1187 65.895 26.5028 65.4904 25.7069C65.0857 24.9066 64.8834 23.9646 64.8834 22.881C64.8834 21.8154 65.0857 20.8802 65.4904 20.0754C65.8995 19.2661 66.4705 18.6366 67.2034 18.187C67.9363 17.7329 68.7973 17.5058 69.7865 17.5058C70.425 17.5058 71.0275 17.6092 71.594 17.816C72.165 18.0184 72.6686 18.3331 73.1047 18.7603C73.5454 19.1874 73.8916 19.7314 74.1434 20.3924C74.3951 21.0488 74.521 21.8312 74.521 22.7394V23.488H66.0299V21.8424H72.1808C72.1763 21.3748 72.0751 20.9589 71.8773 20.5947C71.6794 20.226 71.4029 19.936 71.0477 19.7247C70.697 19.5134 70.2878 19.4077 69.8202 19.4077C69.3212 19.4077 68.8828 19.5291 68.5051 19.7719C68.1274 20.0102 67.8329 20.3249 67.6216 20.7161C67.4148 21.1028 67.3091 21.5277 67.3046 21.9908V23.4273C67.3046 24.0298 67.4148 24.5469 67.6351 24.9785C67.8554 25.4057 68.1634 25.7339 68.559 25.9632C68.9547 26.188 69.4178 26.3004 69.9484 26.3004C70.3036 26.3004 70.6251 26.251 70.9128 26.1521C71.2006 26.0486 71.4501 25.898 71.6614 25.7002C71.8728 25.5023 72.0324 25.2573 72.1403 24.965L74.4199 25.2213C74.276 25.8238 74.0017 26.3499 73.5971 26.7995C73.1969 27.2446 72.6843 27.5908 72.0594 27.8381C71.4344 28.0809 70.7195 28.2023 69.9147 28.2023ZM76.5865 28V17.6407H78.9538V19.3672H79.0617C79.2505 18.7692 79.5742 18.3084 80.0328 17.9847C80.496 17.6564 81.0243 17.4923 81.6178 17.4923C81.7527 17.4923 81.9033 17.4991 82.0696 17.5126C82.2405 17.5215 82.3821 17.5373 82.4945 17.5598V19.8056C82.3911 19.7697 82.227 19.7382 82.0022 19.7112C81.7819 19.6797 81.5683 19.664 81.3615 19.664C80.9164 19.664 80.5162 19.7607 80.161 19.954C79.8103 20.1428 79.5338 20.4059 79.3314 20.7431C79.1291 21.0803 79.0279 21.4692 79.0279 21.9099V28H76.5865ZM92.3042 20.3789L90.0785 20.6217C90.0156 20.3969 89.9054 20.1856 89.7481 19.9877C89.5952 19.7899 89.3884 19.6303 89.1276 19.5089C88.8668 19.3875 88.5476 19.3268 88.1699 19.3268C87.6618 19.3268 87.2347 19.4369 86.8885 19.6573C86.5468 19.8776 86.3781 20.1631 86.3826 20.5138C86.3781 20.815 86.4883 21.0601 86.7131 21.2489C86.9424 21.4378 87.3201 21.5929 87.8462 21.7143L89.6132 22.092C90.5934 22.3033 91.3218 22.6382 91.7984 23.0969C92.2794 23.5555 92.5222 24.1557 92.5267 24.8976C92.5222 25.5496 92.3312 26.1251 91.9535 26.6242C91.5803 27.1187 91.061 27.5054 90.3955 27.7842C89.7301 28.0629 88.9657 28.2023 88.1025 28.2023C86.8345 28.2023 85.8139 27.9371 85.0405 27.4065C84.2672 26.8714 83.8063 26.1273 83.6579 25.1741L86.0387 24.9448C86.1466 25.4124 86.3759 25.7654 86.7266 26.0037C87.0773 26.242 87.5337 26.3611 88.0957 26.3611C88.6757 26.3611 89.1411 26.242 89.4918 26.0037C89.847 25.7654 90.0246 25.4709 90.0246 25.1202C90.0246 24.8234 89.9099 24.5784 89.6806 24.385C89.4558 24.1917 89.1051 24.0433 88.6285 23.9399L86.8615 23.569C85.8678 23.3621 85.1327 23.0137 84.6561 22.5236C84.1795 22.029 83.9434 21.404 83.9479 20.6487C83.9434 20.0102 84.1165 19.4572 84.4673 18.9896C84.8225 18.5175 85.3148 18.1533 85.9443 17.897C86.5782 17.6362 87.3089 17.5058 88.1362 17.5058C89.3502 17.5058 90.3056 17.7643 91.0025 18.2814C91.7039 18.7985 92.1378 19.4976 92.3042 20.3789ZM99.0586 28.2023C98.047 28.2023 97.1702 27.9798 96.4283 27.5346C95.6865 27.0895 95.1109 26.4668 94.7018 25.6665C94.2971 24.8661 94.0948 23.9309 94.0948 22.8608C94.0948 21.7907 94.2971 20.8532 94.7018 20.0484C95.1109 19.2436 95.6865 18.6186 96.4283 18.1735C97.1702 17.7284 98.047 17.5058 99.0586 17.5058C100.07 17.5058 100.947 17.7284 101.689 18.1735C102.431 18.6186 103.004 19.2436 103.409 20.0484C103.818 20.8532 104.022 21.7907 104.022 22.8608C104.022 23.9309 103.818 24.8661 103.409 25.6665C103.004 26.4668 102.431 27.0895 101.689 27.5346C100.947 27.9798 100.07 28.2023 99.0586 28.2023ZM99.0721 26.2465C99.6207 26.2465 100.079 26.0958 100.448 25.7946C100.817 25.4889 101.091 25.0797 101.271 24.5671C101.455 24.0546 101.547 23.4835 101.547 22.8541C101.547 22.2201 101.455 21.6468 101.271 21.1343C101.091 20.6172 100.817 20.2058 100.448 19.9C100.079 19.5943 99.6207 19.4414 99.0721 19.4414C98.5101 19.4414 98.0425 19.5943 97.6693 19.9C97.3006 20.2058 97.0241 20.6172 96.8397 21.1343C96.6599 21.6468 96.57 22.2201 96.57 22.8541C96.57 23.4835 96.6599 24.0546 96.8397 24.5671C97.0241 25.0797 97.3006 25.4889 97.6693 25.7946C98.0425 26.0958 98.5101 26.2465 99.0721 26.2465ZM108.536 21.9301V28H106.095V17.6407H108.428V19.401H108.55C108.788 18.821 109.168 18.3601 109.689 18.0184C110.215 17.6767 110.865 17.5058 111.639 17.5058C112.353 17.5058 112.976 17.6587 113.507 17.9644C114.042 18.2702 114.455 18.713 114.748 19.2931C115.044 19.8731 115.191 20.5767 115.186 21.404V28H112.745V21.7817C112.745 21.0893 112.565 20.5475 112.205 20.1563C111.85 19.7652 111.357 19.5696 110.728 19.5696C110.301 19.5696 109.921 19.664 109.588 19.8528C109.26 20.0372 109.001 20.3047 108.813 20.6554C108.628 21.0061 108.536 21.431 108.536 21.9301ZM120.649 28.2091C119.993 28.2091 119.401 28.0922 118.875 27.8584C118.354 27.6201 117.94 27.2694 117.634 26.8063C117.333 26.3431 117.182 25.7721 117.182 25.0932C117.182 24.5087 117.29 24.0253 117.506 23.6432C117.722 23.261 118.016 22.9552 118.39 22.7259C118.763 22.4966 119.183 22.3235 119.651 22.2066C120.123 22.0852 120.611 21.9975 121.114 21.9436C121.721 21.8806 122.214 21.8244 122.591 21.775C122.969 21.721 123.243 21.6401 123.414 21.5322C123.589 21.4198 123.677 21.2467 123.677 21.0129V20.9724C123.677 20.4643 123.527 20.0709 123.225 19.7921C122.924 19.5134 122.49 19.374 121.924 19.374C121.326 19.374 120.851 19.5044 120.501 19.7652C120.154 20.0259 119.921 20.3339 119.799 20.6891L117.52 20.3654C117.699 19.7359 117.996 19.2099 118.41 18.7872C118.823 18.3601 119.329 18.0409 119.927 17.8295C120.525 17.6137 121.186 17.5058 121.91 17.5058C122.409 17.5058 122.906 17.5643 123.401 17.6812C123.895 17.7981 124.347 17.9914 124.756 18.2612C125.165 18.5264 125.494 18.8884 125.741 19.347C125.993 19.8056 126.119 20.3789 126.119 21.0668V28H123.772V26.5769H123.691C123.542 26.8647 123.333 27.1345 123.063 27.3863C122.798 27.6336 122.463 27.8336 122.059 27.9865C121.658 28.1349 121.188 28.2091 120.649 28.2091ZM121.283 26.4151C121.773 26.4151 122.198 26.3184 122.558 26.1251C122.917 25.9272 123.194 25.6665 123.387 25.3427C123.585 25.019 123.684 24.666 123.684 24.2839V23.0631C123.607 23.1261 123.477 23.1845 123.293 23.2385C123.113 23.2925 122.911 23.3397 122.686 23.3801C122.461 23.4206 122.238 23.4566 122.018 23.488C121.798 23.5195 121.607 23.5465 121.445 23.569C121.081 23.6184 120.755 23.6994 120.467 23.8118C120.179 23.9242 119.952 24.0815 119.786 24.2839C119.619 24.4817 119.536 24.738 119.536 25.0527C119.536 25.5023 119.7 25.8418 120.028 26.0711C120.357 26.3004 120.775 26.4151 121.283 26.4151ZM131.015 14.1876V28H128.574V14.1876H131.015ZM140.847 14.1876V28H138.344V14.1876H140.847ZM145.89 21.9301V28H143.448V17.6407H145.782V19.401H145.903C146.141 18.821 146.521 18.3601 147.043 18.0184C147.569 17.6767 148.219 17.5058 148.992 17.5058C149.707 17.5058 150.33 17.6587 150.86 17.9644C151.395 18.2702 151.809 18.713 152.101 19.2931C152.398 19.8731 152.544 20.5767 152.54 21.404V28H150.098V21.7817C150.098 21.0893 149.918 20.5475 149.559 20.1563C149.203 19.7652 148.711 19.5696 148.082 19.5696C147.654 19.5696 147.274 19.664 146.942 19.8528C146.614 20.0372 146.355 20.3047 146.166 20.6554C145.982 21.0061 145.89 21.431 145.89 21.9301ZM160.269 17.6407V19.5291H154.145V17.6407H160.269ZM155.676 28V16.6628C155.676 15.9658 155.82 15.3858 156.107 14.9227C156.4 14.4596 156.791 14.1134 157.281 13.8841C157.771 13.6548 158.315 13.5401 158.913 13.5401C159.336 13.5401 159.711 13.5739 160.039 13.6413C160.367 13.7087 160.61 13.7694 160.768 13.8234L160.282 15.7118C160.179 15.6803 160.048 15.6489 159.891 15.6174C159.734 15.5814 159.558 15.5634 159.365 15.5634C158.911 15.5634 158.589 15.6736 158.4 15.8939C158.216 16.1097 158.124 16.42 158.124 16.8246V28H155.676ZM166.31 28.2023C165.298 28.2023 164.421 27.9798 163.68 27.5346C162.938 27.0895 162.362 26.4668 161.953 25.6665C161.548 24.8661 161.346 23.9309 161.346 22.8608C161.346 21.7907 161.548 20.8532 161.953 20.0484C162.362 19.2436 162.938 18.6186 163.68 18.1735C164.421 17.7284 165.298 17.5058 166.31 17.5058C167.321 17.5058 168.198 17.7284 168.94 18.1735C169.682 18.6186 170.255 19.2436 170.66 20.0484C171.069 20.8532 171.274 21.7907 171.274 22.8608C171.274 23.9309 171.069 24.8661 170.66 25.6665C170.255 26.4668 169.682 27.0895 168.94 27.5346C168.198 27.9798 167.321 28.2023 166.31 28.2023ZM166.323 26.2465C166.872 26.2465 167.33 26.0958 167.699 25.7946C168.068 25.4889 168.342 25.0797 168.522 24.5671C168.706 24.0546 168.798 23.4835 168.798 22.8541C168.798 22.2201 168.706 21.6468 168.522 21.1343C168.342 20.6172 168.068 20.2058 167.699 19.9C167.33 19.5943 166.872 19.4414 166.323 19.4414C165.761 19.4414 165.294 19.5943 164.92 19.9C164.552 20.2058 164.275 20.6172 164.091 21.1343C163.911 21.6468 163.821 22.2201 163.821 22.8541C163.821 23.4835 163.911 24.0546 164.091 24.5671C164.275 25.0797 164.552 25.4889 164.92 25.7946C165.294 26.0958 165.761 26.2465 166.323 26.2465ZM173.346 28V17.6407H175.713V19.3672H175.821C176.01 18.7692 176.334 18.3084 176.792 17.9847C177.255 17.6564 177.784 17.4923 178.377 17.4923C178.512 17.4923 178.663 17.4991 178.829 17.5126C179 17.5215 179.141 17.5373 179.254 17.5598V19.8056C179.15 19.7697 178.986 19.7382 178.762 19.7112C178.541 19.6797 178.328 19.664 178.121 19.664C177.676 19.664 177.276 19.7607 176.92 19.954C176.57 20.1428 176.293 20.4059 176.091 20.7431C175.888 21.0803 175.787 21.4692 175.787 21.9099V28H173.346ZM180.876 28V17.6407H183.209V19.401H183.331C183.547 18.8075 183.904 18.3444 184.403 18.0116C184.902 17.6744 185.498 17.5058 186.19 17.5058C186.892 17.5058 187.483 17.6767 187.964 18.0184C188.45 18.3556 188.792 18.8165 188.989 19.401H189.097C189.327 18.8254 189.713 18.3668 190.257 18.0251C190.806 17.6789 191.456 17.5058 192.206 17.5058C193.16 17.5058 193.937 17.8071 194.54 18.4095C195.142 19.012 195.444 19.8911 195.444 21.0466V28H192.995V21.4243C192.995 20.7813 192.825 20.3115 192.483 20.0147C192.141 19.7135 191.723 19.5628 191.228 19.5628C190.639 19.5628 190.179 19.7472 189.846 20.1159C189.518 20.4801 189.354 20.9544 189.354 21.5389V28H186.959V21.3231C186.959 20.7881 186.797 20.3609 186.474 20.0417C186.154 19.7224 185.736 19.5628 185.219 19.5628C184.869 19.5628 184.549 19.6528 184.262 19.8326C183.974 20.008 183.745 20.2575 183.574 20.5812C183.403 20.9005 183.317 21.2736 183.317 21.7008V28H180.876ZM200.902 28.2091C200.245 28.2091 199.654 28.0922 199.128 27.8584C198.606 27.6201 198.193 27.2694 197.887 26.8063C197.586 26.3431 197.435 25.7721 197.435 25.0932C197.435 24.5087 197.543 24.0253 197.759 23.6432C197.974 23.261 198.269 22.9552 198.642 22.7259C199.015 22.4966 199.436 22.3235 199.903 22.2066C200.375 22.0852 200.863 21.9975 201.367 21.9436C201.974 21.8806 202.466 21.8244 202.844 21.775C203.222 21.721 203.496 21.6401 203.667 21.5322C203.842 21.4198 203.93 21.2467 203.93 21.0129V20.9724C203.93 20.4643 203.779 20.0709 203.478 19.7921C203.177 19.5134 202.743 19.374 202.176 19.374C201.578 19.374 201.104 19.5044 200.753 19.7652C200.407 20.0259 200.173 20.3339 200.052 20.6891L197.772 20.3654C197.952 19.7359 198.249 19.2099 198.662 18.7872C199.076 18.3601 199.582 18.0409 200.18 17.8295C200.778 17.6137 201.439 17.5058 202.163 17.5058C202.662 17.5058 203.159 17.5643 203.653 17.6812C204.148 17.7981 204.6 17.9914 205.009 18.2612C205.418 18.5264 205.746 18.8884 205.994 19.347C206.245 19.8056 206.371 20.3789 206.371 21.0668V28H204.024V26.5769H203.943C203.795 26.8647 203.586 27.1345 203.316 27.3863C203.051 27.6336 202.716 27.8336 202.311 27.9865C201.911 28.1349 201.441 28.2091 200.902 28.2091ZM201.536 26.4151C202.026 26.4151 202.45 26.3184 202.81 26.1251C203.17 25.9272 203.446 25.6665 203.64 25.3427C203.838 25.019 203.936 24.666 203.936 24.2839V23.0631C203.86 23.1261 203.73 23.1845 203.545 23.2385C203.365 23.2925 203.163 23.3397 202.938 23.3801C202.714 23.4206 202.491 23.4566 202.271 23.488C202.05 23.5195 201.859 23.5465 201.697 23.569C201.333 23.6184 201.007 23.6994 200.719 23.8118C200.432 23.9242 200.205 24.0815 200.038 24.2839C199.872 24.4817 199.789 24.738 199.789 25.0527C199.789 25.5023 199.953 25.8418 200.281 26.0711C200.609 26.3004 201.027 26.4151 201.536 26.4151ZM213.999 17.6407V19.5291H208.044V17.6407H213.999ZM209.514 15.1588H211.956V24.8841C211.956 25.2123 212.005 25.4641 212.104 25.6395C212.207 25.8103 212.342 25.9272 212.509 25.9902C212.675 26.0531 212.859 26.0846 213.062 26.0846C213.214 26.0846 213.354 26.0734 213.48 26.0509C213.61 26.0284 213.709 26.0082 213.776 25.9902L214.188 27.8988C214.058 27.9438 213.871 27.9933 213.628 28.0472C213.39 28.1012 213.098 28.1326 212.751 28.1416C212.14 28.1596 211.589 28.0674 211.099 27.8651C210.609 27.6583 210.22 27.3391 209.932 26.9074C209.649 26.4758 209.51 25.9362 209.514 25.2888V15.1588ZM216.041 28V17.6407H218.482V28H216.041ZM217.268 16.1704C216.882 16.1704 216.549 16.0423 216.27 15.786C215.991 15.5252 215.852 15.2127 215.852 14.8485C215.852 14.4798 215.991 14.1674 216.27 13.9111C216.549 13.6503 216.882 13.5199 217.268 13.5199C217.66 13.5199 217.992 13.6503 218.267 13.9111C218.545 14.1674 218.685 14.4798 218.685 14.8485C218.685 15.2127 218.545 15.5252 218.267 15.786C217.992 16.0423 217.66 16.1704 217.268 16.1704ZM225.512 28.2023C224.5 28.2023 223.623 27.9798 222.881 27.5346C222.139 27.0895 221.564 26.4668 221.155 25.6665C220.75 24.8661 220.548 23.9309 220.548 22.8608C220.548 21.7907 220.75 20.8532 221.155 20.0484C221.564 19.2436 222.139 18.6186 222.881 18.1735C223.623 17.7284 224.5 17.5058 225.512 17.5058C226.523 17.5058 227.4 17.7284 228.142 18.1735C228.884 18.6186 229.457 19.2436 229.862 20.0484C230.271 20.8532 230.475 21.7907 230.475 22.8608C230.475 23.9309 230.271 24.8661 229.862 25.6665C229.457 26.4668 228.884 27.0895 228.142 27.5346C227.4 27.9798 226.523 28.2023 225.512 28.2023ZM225.525 26.2465C226.074 26.2465 226.532 26.0958 226.901 25.7946C227.27 25.4889 227.544 25.0797 227.724 24.5671C227.908 24.0546 228 23.4835 228 22.8541C228 22.2201 227.908 21.6468 227.724 21.1343C227.544 20.6172 227.27 20.2058 226.901 19.9C226.532 19.5943 226.074 19.4414 225.525 19.4414C224.963 19.4414 224.495 19.5943 224.122 19.9C223.754 20.2058 223.477 20.6172 223.293 21.1343C223.113 21.6468 223.023 22.2201 223.023 22.8541C223.023 23.4835 223.113 24.0546 223.293 24.5671C223.477 25.0797 223.754 25.4889 224.122 25.7946C224.495 26.0958 224.963 26.2465 225.525 26.2465ZM234.989 21.9301V28H232.548V17.6407H234.881V19.401H235.003C235.241 18.821 235.621 18.3601 236.142 18.0184C236.668 17.6767 237.318 17.5058 238.092 17.5058C238.806 17.5058 239.429 17.6587 239.96 17.9644C240.495 18.2702 240.908 18.713 241.201 19.2931C241.497 19.8731 241.644 20.5767 241.639 21.404V28H239.198V21.7817C239.198 21.0893 239.018 20.5475 238.658 20.1563C238.303 19.7652 237.811 19.5696 237.181 19.5696C236.754 19.5696 236.374 19.664 236.041 19.8528C235.713 20.0372 235.454 20.3047 235.266 20.6554C235.081 21.0061 234.989 21.431 234.989 21.9301Z" fill="#393939"/>
<circle cx="20" cy="94" r="15" stroke="#A3ABBB" stroke-width="2"/>
<path d="M16.0049 101V99.4893L20.6787 94.6468C21.1778 94.1208 21.5892 93.6599 21.9129 93.2642C22.2412 92.8641 22.4862 92.4841 22.6481 92.1244C22.8099 91.7647 22.8909 91.3826 22.8909 90.9779C22.8909 90.5193 22.783 90.1236 22.5671 89.7909C22.3513 89.4537 22.0568 89.1952 21.6836 89.0153C21.3104 88.831 20.89 88.7388 20.4224 88.7388C19.9279 88.7388 19.4962 88.84 19.1275 89.0423C18.7588 89.2446 18.4756 89.5301 18.2777 89.8988C18.0799 90.2675 17.981 90.6991 17.981 91.1937H15.9914C15.9914 90.3529 16.1847 89.6178 16.5714 88.9883C16.9581 88.3589 17.4887 87.871 18.1631 87.5248C18.8375 87.1741 19.6041 86.9987 20.4629 86.9987C21.3307 86.9987 22.095 87.1719 22.756 87.5181C23.4214 87.8598 23.9407 88.3274 24.3139 88.9209C24.6871 89.5099 24.8737 90.1753 24.8737 90.9172C24.8737 91.4298 24.777 91.9311 24.5837 92.4212C24.3949 92.9113 24.0644 93.4576 23.5923 94.0601C23.1202 94.6581 22.4637 95.3842 21.6229 96.2385L18.878 99.1116V99.2127H25.0963V101H16.0049Z" fill="#A3ABBB"/>
<path d="M65.7045 94.0938C65.7045 95.582 65.4257 96.8567 64.8682 97.9178C64.3152 98.9744 63.5598 99.7838 62.6021 100.346C61.6489 100.908 60.5676 101.189 59.3581 101.189C58.1486 101.189 57.065 100.908 56.1073 100.346C55.1541 99.7793 54.3987 98.9677 53.8412 97.9111C53.2882 96.85 53.0117 95.5776 53.0117 94.0938C53.0117 92.6055 53.2882 91.3331 53.8412 90.2765C54.3987 89.2154 55.1541 88.4038 56.1073 87.8418C57.065 87.2798 58.1486 86.9987 59.3581 86.9987C60.5676 86.9987 61.6489 87.2798 62.6021 87.8418C63.5598 88.4038 64.3152 89.2154 64.8682 90.2765C65.4257 91.3331 65.7045 92.6055 65.7045 94.0938ZM63.1889 94.0938C63.1889 93.0462 63.0247 92.1627 62.6965 91.4433C62.3728 90.7194 61.9232 90.1731 61.3477 89.8044C60.7721 89.4312 60.1089 89.2446 59.3581 89.2446C58.6072 89.2446 57.944 89.4312 57.3685 89.8044C56.793 90.1731 56.3411 90.7194 56.0129 91.4433C55.6892 92.1627 55.5273 93.0462 55.5273 94.0938C55.5273 95.1414 55.6892 96.0272 56.0129 96.7511C56.3411 97.4705 56.793 98.0168 57.3685 98.3899C57.944 98.7586 58.6072 98.943 59.3581 98.943C60.1089 98.943 60.7721 98.7586 61.3477 98.3899C61.9232 98.0168 62.3728 97.4705 62.6965 96.7511C63.0247 96.0272 63.1889 95.1414 63.1889 94.0938ZM67.9622 101V90.6407H70.3294V92.3672H70.4373C70.6262 91.7692 70.9499 91.3084 71.4085 90.9847C71.8716 90.6564 72.3999 90.4923 72.9934 90.4923C73.1283 90.4923 73.279 90.4991 73.4453 90.5126C73.6162 90.5215 73.7578 90.5373 73.8702 90.5598V92.8056C73.7668 92.7697 73.6027 92.7382 73.3779 92.7112C73.1576 92.6797 72.944 92.664 72.7372 92.664C72.292 92.664 71.8919 92.7607 71.5367 92.954C71.186 93.1428 70.9094 93.4059 70.7071 93.7431C70.5048 94.0803 70.4036 94.4692 70.4036 94.9099V101H67.9622ZM79.5709 105.101C78.6941 105.101 77.941 104.981 77.3115 104.743C76.682 104.509 76.1762 104.195 75.794 103.799C75.4119 103.403 75.1466 102.965 74.9982 102.484L77.1969 101.951C77.2958 102.153 77.4397 102.353 77.6285 102.551C77.8173 102.754 78.0714 102.92 78.3906 103.05C78.7143 103.185 79.1212 103.253 79.6113 103.253C80.3037 103.253 80.877 103.084 81.3311 102.747C81.7853 102.414 82.0123 101.866 82.0123 101.101V99.1386H81.8909C81.765 99.3904 81.5807 99.6489 81.3379 99.9142C81.0996 100.179 80.7826 100.402 80.3869 100.582C79.9958 100.762 79.5034 100.852 78.9099 100.852C78.1141 100.852 77.3924 100.665 76.745 100.292C76.102 99.9142 75.5895 99.3521 75.2073 98.6058C74.8296 97.8549 74.6407 96.9152 74.6407 95.7866C74.6407 94.6491 74.8296 93.6891 75.2073 92.9068C75.5895 92.12 76.1043 91.5242 76.7517 91.1195C77.3992 90.7104 78.1208 90.5058 78.9167 90.5058C79.5237 90.5058 80.0227 90.6092 80.4139 90.816C80.8096 91.0184 81.1243 91.2634 81.3581 91.5512C81.5919 91.8344 81.7695 92.102 81.8909 92.3538H82.0258V90.6407H84.4335V101.169C84.4335 102.054 84.2222 102.787 83.7996 103.367C83.3769 103.947 82.7992 104.381 82.0663 104.669C81.3334 104.957 80.5016 105.101 79.5709 105.101ZM79.5911 98.9362C80.1082 98.9362 80.5488 98.8103 80.913 98.5585C81.2772 98.3068 81.5537 97.9448 81.7425 97.4727C81.9314 97.0006 82.0258 96.4341 82.0258 95.7731C82.0258 95.1212 81.9314 94.5502 81.7425 94.0601C81.5582 93.57 81.2839 93.1901 80.9197 92.9203C80.56 92.646 80.1172 92.5089 79.5911 92.5089C79.0471 92.5089 78.5929 92.6505 78.2287 92.9338C77.8645 93.217 77.5903 93.606 77.4059 94.1005C77.2216 94.5906 77.1294 95.1482 77.1294 95.7731C77.1294 96.4071 77.2216 96.9624 77.4059 97.439C77.5948 97.9111 77.8713 98.2798 78.2355 98.5451C78.6042 98.8058 79.056 98.9362 79.5911 98.9362ZM89.9167 101.209C89.2602 101.209 88.669 101.092 88.1429 100.858C87.6214 100.62 87.2077 100.269 86.902 99.8063C86.6007 99.3431 86.4501 98.7721 86.4501 98.0932C86.4501 97.5087 86.558 97.0253 86.7738 96.6432C86.9896 96.261 87.2841 95.9552 87.6573 95.7259C88.0305 95.4966 88.4509 95.3235 88.9185 95.2066C89.3906 95.0852 89.8785 94.9975 90.382 94.9436C90.989 94.8806 91.4814 94.8244 91.8591 94.775C92.2367 94.721 92.511 94.6401 92.6819 94.5322C92.8572 94.4198 92.9449 94.2467 92.9449 94.0129V93.9724C92.9449 93.4643 92.7943 93.0709 92.493 92.7921C92.1918 92.5134 91.7579 92.374 91.1914 92.374C90.5934 92.374 90.119 92.5044 89.7683 92.7652C89.4221 93.0259 89.1883 93.3339 89.0669 93.6891L86.7873 93.3654C86.9672 92.7359 87.2639 92.2099 87.6776 91.7872C88.0912 91.3601 88.597 91.0409 89.195 90.8295C89.793 90.6137 90.454 90.5058 91.1779 90.5058C91.677 90.5058 92.1738 90.5643 92.6684 90.6812C93.163 90.7981 93.6148 90.9914 94.024 91.2612C94.4331 91.5264 94.7614 91.8884 95.0087 92.347C95.2604 92.8056 95.3863 93.3789 95.3863 94.0668V101H93.0393V99.5769H92.9584C92.81 99.8647 92.6009 100.134 92.3312 100.386C92.0659 100.634 91.7309 100.834 91.3262 100.987C90.9261 101.135 90.4562 101.209 89.9167 101.209ZM90.5507 99.4151C91.0407 99.4151 91.4656 99.3184 91.8253 99.1251C92.185 98.9272 92.4615 98.6665 92.6549 98.3427C92.8527 98.019 92.9516 97.666 92.9516 97.2839V96.0631C92.8752 96.1261 92.7448 96.1845 92.5605 96.2385C92.3806 96.2925 92.1783 96.3397 91.9535 96.3801C91.7287 96.4206 91.5061 96.4566 91.2858 96.488C91.0655 96.5195 90.8744 96.5465 90.7125 96.569C90.3483 96.6184 90.0223 96.6994 89.7346 96.8118C89.4468 96.9242 89.2198 97.0815 89.0534 97.2839C88.887 97.4817 88.8039 97.738 88.8039 98.0527C88.8039 98.5023 88.968 98.8418 89.2962 99.0711C89.6244 99.3004 90.0426 99.4151 90.5507 99.4151ZM100.283 94.9301V101H97.8413V90.6407H100.175V92.401H100.296C100.535 91.821 100.914 91.3601 101.436 91.0184C101.962 90.6767 102.612 90.5058 103.385 90.5058C104.1 90.5058 104.723 90.6587 105.253 90.9644C105.788 91.2702 106.202 91.713 106.494 92.2931C106.791 92.8731 106.937 93.5767 106.933 94.404V101H104.491V94.7817C104.491 94.0893 104.311 93.5475 103.952 93.1563C103.596 92.7652 103.104 92.5696 102.475 92.5696C102.048 92.5696 101.668 92.664 101.335 92.8528C101.007 93.0372 100.748 93.3047 100.559 93.6554C100.375 94.0061 100.283 94.431 100.283 94.9301ZM109.415 101V90.6407H111.856V101H109.415ZM110.642 89.1704C110.255 89.1704 109.923 89.0423 109.644 88.786C109.365 88.5252 109.226 88.2127 109.226 87.8485C109.226 87.4798 109.365 87.1674 109.644 86.9111C109.923 86.6503 110.255 86.5199 110.642 86.5199C111.033 86.5199 111.366 86.6503 111.64 86.9111C111.919 87.1674 112.058 87.4798 112.058 87.8485C112.058 88.2127 111.919 88.5252 111.64 88.786C111.366 89.0423 111.033 89.1704 110.642 89.1704ZM114.232 101V99.4488L119.573 92.7517V92.664H114.407V90.6407H122.561V92.3065L117.476 98.889V98.9767H122.736V101H114.232ZM128.012 101.209C127.356 101.209 126.764 101.092 126.238 100.858C125.717 100.62 125.303 100.269 124.997 99.8063C124.696 99.3431 124.545 98.7721 124.545 98.0932C124.545 97.5087 124.653 97.0253 124.869 96.6432C125.085 96.261 125.38 95.9552 125.753 95.7259C126.126 95.4966 126.546 95.3235 127.014 95.2066C127.486 95.0852 127.974 94.9975 128.477 94.9436C129.084 94.8806 129.577 94.8244 129.954 94.775C130.332 94.721 130.606 94.6401 130.777 94.5322C130.953 94.4198 131.04 94.2467 131.04 94.0129V93.9724C131.04 93.4643 130.89 93.0709 130.588 92.7921C130.287 92.5134 129.853 92.374 129.287 92.374C128.689 92.374 128.214 92.5044 127.864 92.7652C127.518 93.0259 127.284 93.3339 127.162 93.6891L124.883 93.3654C125.063 92.7359 125.359 92.2099 125.773 91.7872C126.187 91.3601 126.692 91.0409 127.29 90.8295C127.888 90.6137 128.549 90.5058 129.273 90.5058C129.772 90.5058 130.269 90.5643 130.764 90.6812C131.258 90.7981 131.71 90.9914 132.119 91.2612C132.529 91.5264 132.857 91.8884 133.104 92.347C133.356 92.8056 133.482 93.3789 133.482 94.0668V101H131.135V99.5769H131.054C130.905 99.8647 130.696 100.134 130.427 100.386C130.161 100.634 129.826 100.834 129.422 100.987C129.021 101.135 128.552 101.209 128.012 101.209ZM128.646 99.4151C129.136 99.4151 129.561 99.3184 129.921 99.1251C130.28 98.9272 130.557 98.6665 130.75 98.3427C130.948 98.019 131.047 97.666 131.047 97.2839V96.0631C130.971 96.1261 130.84 96.1845 130.656 96.2385C130.476 96.2925 130.274 96.3397 130.049 96.3801C129.824 96.4206 129.602 96.4566 129.381 96.488C129.161 96.5195 128.97 96.5465 128.808 96.569C128.444 96.6184 128.118 96.6994 127.83 96.8118C127.542 96.9242 127.315 97.0815 127.149 97.2839C126.982 97.4817 126.899 97.738 126.899 98.0527C126.899 98.5023 127.063 98.8418 127.392 99.0711C127.72 99.3004 128.138 99.4151 128.646 99.4151ZM141.11 90.6407V92.5291H135.154V90.6407H141.11ZM136.625 88.1588H139.066V97.8841C139.066 98.2123 139.116 98.4641 139.214 98.6395C139.318 98.8103 139.453 98.9272 139.619 98.9902C139.785 99.0531 139.97 99.0846 140.172 99.0846C140.325 99.0846 140.464 99.0734 140.59 99.0509C140.721 99.0284 140.82 99.0082 140.887 98.9902L141.298 100.899C141.168 100.944 140.981 100.993 140.739 101.047C140.5 101.101 140.208 101.133 139.862 101.142C139.25 101.16 138.7 101.067 138.21 100.865C137.719 100.658 137.331 100.339 137.043 99.9074C136.759 99.4758 136.62 98.9362 136.625 98.2888V88.1588ZM143.151 101V90.6407H145.593V101H143.151ZM144.379 89.1704C143.992 89.1704 143.66 89.0423 143.381 88.786C143.102 88.5252 142.963 88.2127 142.963 87.8485C142.963 87.4798 143.102 87.1674 143.381 86.9111C143.66 86.6503 143.992 86.5199 144.379 86.5199C144.77 86.5199 145.103 86.6503 145.377 86.9111C145.656 87.1674 145.795 87.4798 145.795 87.8485C145.795 88.2127 145.656 88.5252 145.377 88.786C145.103 89.0423 144.77 89.1704 144.379 89.1704ZM152.622 101.202C151.611 101.202 150.734 100.98 149.992 100.535C149.25 100.09 148.674 99.4668 148.265 98.6665C147.861 97.8661 147.658 96.9309 147.658 95.8608C147.658 94.7907 147.861 93.8532 148.265 93.0484C148.674 92.2436 149.25 91.6186 149.992 91.1735C150.734 90.7284 151.611 90.5058 152.622 90.5058C153.634 90.5058 154.511 90.7284 155.252 91.1735C155.994 91.6186 156.568 92.2436 156.972 93.0484C157.381 93.8532 157.586 94.7907 157.586 95.8608C157.586 96.9309 157.381 97.8661 156.972 98.6665C156.568 99.4668 155.994 100.09 155.252 100.535C154.511 100.98 153.634 101.202 152.622 101.202ZM152.636 99.2465C153.184 99.2465 153.643 99.0958 154.012 98.7946C154.38 98.4889 154.654 98.0797 154.834 97.5671C155.019 97.0546 155.111 96.4835 155.111 95.8541C155.111 95.2201 155.019 94.6468 154.834 94.1343C154.654 93.6172 154.38 93.2058 154.012 92.9C153.643 92.5943 153.184 92.4414 152.636 92.4414C152.074 92.4414 151.606 92.5943 151.233 92.9C150.864 93.2058 150.588 93.6172 150.403 94.1343C150.223 94.6468 150.134 95.2201 150.134 95.8541C150.134 96.4835 150.223 97.0546 150.403 97.5671C150.588 98.0797 150.864 98.4889 151.233 98.7946C151.606 99.0958 152.074 99.2465 152.636 99.2465ZM162.1 94.9301V101H159.658V90.6407H161.992V92.401H162.113C162.351 91.821 162.731 91.3601 163.253 91.0184C163.779 90.6767 164.429 90.5058 165.202 90.5058C165.917 90.5058 166.54 90.6587 167.07 90.9644C167.605 91.2702 168.019 91.713 168.311 92.2931C168.608 92.8731 168.754 93.5767 168.75 94.404V101H166.308V94.7817C166.308 94.0893 166.128 93.5475 165.769 93.1563C165.413 92.7652 164.921 92.5696 164.292 92.5696C163.864 92.5696 163.485 92.664 163.152 92.8528C162.824 93.0372 162.565 93.3047 162.376 93.6554C162.192 94.0061 162.1 94.431 162.1 94.9301ZM178.552 87.1876V101H176.05V87.1876H178.552ZM183.596 94.9301V101H181.154V90.6407H183.488V92.401H183.609C183.847 91.821 184.227 91.3601 184.749 91.0184C185.275 90.6767 185.925 90.5058 186.698 90.5058C187.413 90.5058 188.036 90.6587 188.566 90.9644C189.101 91.2702 189.515 91.713 189.807 92.2931C190.104 92.8731 190.25 93.5767 190.245 94.404V101H187.804V94.7817C187.804 94.0893 187.624 93.5475 187.264 93.1563C186.909 92.7652 186.417 92.5696 185.787 92.5696C185.36 92.5696 184.98 92.664 184.648 92.8528C184.319 93.0372 184.061 93.3047 183.872 93.6554C183.688 94.0061 183.596 94.431 183.596 94.9301ZM197.975 90.6407V92.5291H191.851V90.6407H197.975ZM193.382 101V89.6628C193.382 88.9658 193.525 88.3858 193.813 87.9227C194.106 87.4596 194.497 87.1134 194.987 86.8841C195.477 86.6548 196.021 86.5401 196.619 86.5401C197.042 86.5401 197.417 86.5739 197.745 86.6413C198.073 86.7087 198.316 86.7694 198.474 86.8234L197.988 88.7118C197.885 88.6803 197.754 88.6489 197.597 88.6174C197.439 88.5814 197.264 88.5634 197.071 88.5634C196.617 88.5634 196.295 88.6736 196.106 88.8939C195.922 89.1097 195.83 89.42 195.83 89.8246V101H193.382ZM204.016 101.202C203.004 101.202 202.127 100.98 201.385 100.535C200.644 100.09 200.068 99.4668 199.659 98.6665C199.254 97.8661 199.052 96.9309 199.052 95.8608C199.052 94.7907 199.254 93.8532 199.659 93.0484C200.068 92.2436 200.644 91.6186 201.385 91.1735C202.127 90.7284 203.004 90.5058 204.016 90.5058C205.027 90.5058 205.904 90.7284 206.646 91.1735C207.388 91.6186 207.961 92.2436 208.366 93.0484C208.775 93.8532 208.98 94.7907 208.98 95.8608C208.98 96.9309 208.775 97.8661 208.366 98.6665C207.961 99.4668 207.388 100.09 206.646 100.535C205.904 100.98 205.027 101.202 204.016 101.202ZM204.029 99.2465C204.578 99.2465 205.036 99.0958 205.405 98.7946C205.774 98.4889 206.048 98.0797 206.228 97.5671C206.412 97.0546 206.504 96.4835 206.504 95.8541C206.504 95.2201 206.412 94.6468 206.228 94.1343C206.048 93.6172 205.774 93.2058 205.405 92.9C205.036 92.5943 204.578 92.4414 204.029 92.4414C203.467 92.4414 203 92.5943 202.626 92.9C202.258 93.2058 201.981 93.6172 201.797 94.1343C201.617 94.6468 201.527 95.2201 201.527 95.8541C201.527 96.4835 201.617 97.0546 201.797 97.5671C201.981 98.0797 202.258 98.4889 202.626 98.7946C203 99.0958 203.467 99.2465 204.029 99.2465ZM211.052 101V90.6407H213.419V92.3672H213.527C213.716 91.7692 214.04 91.3084 214.498 90.9847C214.961 90.6564 215.49 90.4923 216.083 90.4923C216.218 90.4923 216.369 90.4991 216.535 90.5126C216.706 90.5215 216.847 90.5373 216.96 90.5598V92.8056C216.856 92.7697 216.692 92.7382 216.467 92.7112C216.247 92.6797 216.034 92.664 215.827 92.664C215.382 92.664 214.981 92.7607 214.626 92.954C214.276 93.1428 213.999 93.4059 213.797 93.7431C213.594 94.0803 213.493 94.4692 213.493 94.9099V101H211.052ZM218.582 101V90.6407H220.915V92.401H221.037C221.253 91.8075 221.61 91.3444 222.109 91.0116C222.608 90.6744 223.204 90.5058 223.896 90.5058C224.598 90.5058 225.189 90.6767 225.67 91.0184C226.156 91.3556 226.497 91.8165 226.695 92.401H226.803C227.032 91.8254 227.419 91.3668 227.963 91.0251C228.512 90.6789 229.161 90.5058 229.912 90.5058C230.866 90.5058 231.643 90.8071 232.246 91.4095C232.848 92.012 233.15 92.8911 233.15 94.0466V101H230.701V94.4243C230.701 93.7813 230.531 93.3115 230.189 93.0147C229.847 92.7135 229.429 92.5628 228.934 92.5628C228.345 92.5628 227.885 92.7472 227.552 93.1159C227.224 93.4801 227.059 93.9544 227.059 94.5389V101H224.665V94.3231C224.665 93.7881 224.503 93.3609 224.18 93.0417C223.86 92.7224 223.442 92.5628 222.925 92.5628C222.574 92.5628 222.255 92.6528 221.967 92.8326C221.68 93.008 221.45 93.2575 221.28 93.5812C221.109 93.9005 221.023 94.2736 221.023 94.7008V101H218.582ZM238.607 101.209C237.951 101.209 237.36 101.092 236.834 100.858C236.312 100.62 235.898 100.269 235.593 99.8063C235.291 99.3431 235.141 98.7721 235.141 98.0932C235.141 97.5087 235.249 97.0253 235.465 96.6432C235.68 96.261 235.975 95.9552 236.348 95.7259C236.721 95.4966 237.142 95.3235 237.609 95.2066C238.081 95.0852 238.569 94.9975 239.073 94.9436C239.68 94.8806 240.172 94.8244 240.55 94.775C240.928 94.721 241.202 94.6401 241.373 94.5322C241.548 94.4198 241.636 94.2467 241.636 94.0129V93.9724C241.636 93.4643 241.485 93.0709 241.184 92.7921C240.883 92.5134 240.449 92.374 239.882 92.374C239.284 92.374 238.81 92.5044 238.459 92.7652C238.113 93.0259 237.879 93.3339 237.758 93.6891L235.478 93.3654C235.658 92.7359 235.955 92.2099 236.368 91.7872C236.782 91.3601 237.288 91.0409 237.886 90.8295C238.484 90.6137 239.145 90.5058 239.869 90.5058C240.368 90.5058 240.865 90.5643 241.359 90.6812C241.854 90.7981 242.306 90.9914 242.715 91.2612C243.124 91.5264 243.452 91.8884 243.699 92.347C243.951 92.8056 244.077 93.3789 244.077 94.0668V101H241.73V99.5769H241.649C241.501 99.8647 241.292 100.134 241.022 100.386C240.757 100.634 240.422 100.834 240.017 100.987C239.617 101.135 239.147 101.209 238.607 101.209ZM239.241 99.4151C239.732 99.4151 240.156 99.3184 240.516 99.1251C240.876 98.9272 241.152 98.6665 241.346 98.3427C241.543 98.019 241.642 97.666 241.642 97.2839V96.0631C241.566 96.1261 241.436 96.1845 241.251 96.2385C241.071 96.2925 240.869 96.3397 240.644 96.3801C240.419 96.4206 240.197 96.4566 239.977 96.488C239.756 96.5195 239.565 96.5465 239.403 96.569C239.039 96.6184 238.713 96.6994 238.425 96.8118C238.138 96.9242 237.911 97.0815 237.744 97.2839C237.578 97.4817 237.495 97.738 237.495 98.0527C237.495 98.5023 237.659 98.8418 237.987 99.0711C238.315 99.3004 238.733 99.4151 239.241 99.4151ZM251.705 90.6407V92.5291H245.75V90.6407H251.705ZM247.22 88.1588H249.661V97.8841C249.661 98.2123 249.711 98.4641 249.81 98.6395C249.913 98.8103 250.048 98.9272 250.214 98.9902C250.381 99.0531 250.565 99.0846 250.768 99.0846C250.92 99.0846 251.06 99.0734 251.186 99.0509C251.316 99.0284 251.415 99.0082 251.482 98.9902L251.894 100.899C251.763 100.944 251.577 100.993 251.334 101.047C251.096 101.101 250.803 101.133 250.457 101.142C249.846 101.16 249.295 101.067 248.805 100.865C248.315 100.658 247.926 100.339 247.638 99.9074C247.355 99.4758 247.215 98.9362 247.22 98.2888V88.1588ZM253.747 101V90.6407H256.188V101H253.747ZM254.974 89.1704C254.588 89.1704 254.255 89.0423 253.976 88.786C253.697 88.5252 253.558 88.2127 253.558 87.8485C253.558 87.4798 253.697 87.1674 253.976 86.9111C254.255 86.6503 254.588 86.5199 254.974 86.5199C255.365 86.5199 255.698 86.6503 255.972 86.9111C256.251 87.1674 256.391 87.4798 256.391 87.8485C256.391 88.2127 256.251 88.5252 255.972 88.786C255.698 89.0423 255.365 89.1704 254.974 89.1704ZM263.218 101.202C262.206 101.202 261.329 100.98 260.587 100.535C259.845 100.09 259.27 99.4668 258.861 98.6665C258.456 97.8661 258.254 96.9309 258.254 95.8608C258.254 94.7907 258.456 93.8532 258.861 93.0484C259.27 92.2436 259.845 91.6186 260.587 91.1735C261.329 90.7284 262.206 90.5058 263.218 90.5058C264.229 90.5058 265.106 90.7284 265.848 91.1735C266.59 91.6186 267.163 92.2436 267.568 93.0484C267.977 93.8532 268.181 94.7907 268.181 95.8608C268.181 96.9309 267.977 97.8661 267.568 98.6665C267.163 99.4668 266.59 100.09 265.848 100.535C265.106 100.98 264.229 101.202 263.218 101.202ZM263.231 99.2465C263.78 99.2465 264.238 99.0958 264.607 98.7946C264.976 98.4889 265.25 98.0797 265.43 97.5671C265.614 97.0546 265.706 96.4835 265.706 95.8541C265.706 95.2201 265.614 94.6468 265.43 94.1343C265.25 93.6172 264.976 93.2058 264.607 92.9C264.238 92.5943 263.78 92.4414 263.231 92.4414C262.669 92.4414 262.201 92.5943 261.828 92.9C261.46 93.2058 261.183 93.6172 260.999 94.1343C260.819 94.6468 260.729 95.2201 260.729 95.8541C260.729 96.4835 260.819 97.0546 260.999 97.5671C261.183 98.0797 261.46 98.4889 261.828 98.7946C262.201 99.0958 262.669 99.2465 263.231 99.2465ZM272.695 94.9301V101H270.254V90.6407H272.587V92.401H272.709C272.947 91.821 273.327 91.3601 273.848 91.0184C274.374 90.6767 275.024 90.5058 275.797 90.5058C276.512 90.5058 277.135 90.6587 277.666 90.9644C278.201 91.2702 278.614 91.713 278.907 92.2931C279.203 92.8731 279.349 93.5767 279.345 94.404V101H276.904V94.7817C276.904 94.0893 276.724 93.5475 276.364 93.1563C276.009 92.7652 275.516 92.5696 274.887 92.5696C274.46 92.5696 274.08 92.664 273.747 92.8528C273.419 93.0372 273.16 93.3047 272.972 93.6554C272.787 94.0061 272.695 94.431 272.695 94.9301Z" fill="#A3ABBB"/>
<circle cx="20" cy="240" r="15" stroke="#A3ABBB" stroke-width="2"/>
<path d="M15.3254 244.302V242.616L21.2941 233.188H22.6228V235.67H21.7797L17.5106 242.427V242.535H25.6915V244.302H15.3254ZM21.8742 247V243.79L21.8876 243.021V233.188H23.8637V247H21.8742Z" fill="#A3ABBB"/>
<path d="M55.8645 233.188V247H53.3624V233.188H55.8645ZM60.9076 240.93V247H58.4661V236.641H60.7997V238.401H60.9211C61.1594 237.821 61.5393 237.36 62.0609 237.018C62.5869 236.677 63.2366 236.506 64.01 236.506C64.7249 236.506 65.3476 236.659 65.8782 236.964C66.4132 237.27 66.8269 237.713 67.1191 238.293C67.4159 238.873 67.562 239.577 67.5575 240.404V247H65.1161V240.782C65.1161 240.089 64.9362 239.548 64.5765 239.156C64.2213 238.765 63.729 238.57 63.0995 238.57C62.6724 238.57 62.2924 238.664 61.9597 238.853C61.6315 239.037 61.3729 239.305 61.1841 239.655C60.9998 240.006 60.9076 240.431 60.9076 240.93ZM78.9217 236.641L75.2326 247H72.5348L68.8457 236.641H71.449L73.8297 244.336H73.9377L76.3251 236.641H78.9217ZM84.8449 247.202C83.8063 247.202 82.9093 246.987 82.1539 246.555C81.4031 246.119 80.8253 245.503 80.4206 244.707C80.016 243.907 79.8137 242.965 79.8137 241.881C79.8137 240.815 80.016 239.88 80.4206 239.075C80.8298 238.266 81.4008 237.637 82.1337 237.187C82.8666 236.733 83.7276 236.506 84.7168 236.506C85.3553 236.506 85.9578 236.609 86.5243 236.816C87.0953 237.018 87.5989 237.333 88.035 237.76C88.4756 238.187 88.8218 238.731 89.0736 239.392C89.3254 240.049 89.4513 240.831 89.4513 241.739V242.488H80.9602V240.842H87.111C87.1065 240.375 87.0054 239.959 86.8075 239.595C86.6097 239.226 86.3332 238.936 85.978 238.725C85.6273 238.513 85.2181 238.408 84.7505 238.408C84.2514 238.408 83.8131 238.529 83.4354 238.772C83.0577 239.01 82.7632 239.325 82.5519 239.716C82.345 240.103 82.2394 240.528 82.2349 240.991V242.427C82.2349 243.03 82.345 243.547 82.5653 243.979C82.7857 244.406 83.0937 244.734 83.4893 244.963C83.885 245.188 84.3481 245.3 84.8787 245.3C85.2339 245.3 85.5553 245.251 85.8431 245.152C86.1309 245.049 86.3804 244.898 86.5917 244.7C86.803 244.502 86.9627 244.257 87.0706 243.965L89.3502 244.221C89.2063 244.824 88.932 245.35 88.5273 245.8C88.1272 246.245 87.6146 246.591 86.9896 246.838C86.3647 247.081 85.6498 247.202 84.8449 247.202ZM99.7044 239.379L97.4788 239.622C97.4158 239.397 97.3057 239.186 97.1483 238.988C96.9954 238.79 96.7886 238.63 96.5278 238.509C96.267 238.387 95.9478 238.327 95.5701 238.327C95.0621 238.327 94.6349 238.437 94.2887 238.657C93.947 238.878 93.7784 239.163 93.7829 239.514C93.7784 239.815 93.8885 240.06 94.1133 240.249C94.3427 240.438 94.7203 240.593 95.2464 240.714L97.0134 241.092C97.9936 241.303 98.722 241.638 99.1986 242.097C99.6797 242.555 99.9225 243.156 99.927 243.898C99.9225 244.55 99.7314 245.125 99.3537 245.624C98.9805 246.119 98.4612 246.505 97.7958 246.784C97.1303 247.063 96.366 247.202 95.5027 247.202C94.2347 247.202 93.2141 246.937 92.4408 246.406C91.6674 245.871 91.2065 245.127 91.0582 244.174L93.4389 243.945C93.5468 244.412 93.7761 244.765 94.1268 245.004C94.4775 245.242 94.9339 245.361 95.4959 245.361C96.076 245.361 96.5413 245.242 96.892 245.004C97.2472 244.765 97.4248 244.471 97.4248 244.12C97.4248 243.823 97.3102 243.578 97.0809 243.385C96.856 243.192 96.5053 243.043 96.0287 242.94L94.2617 242.569C93.2681 242.362 92.5329 242.014 92.0563 241.524C91.5797 241.029 91.3437 240.404 91.3482 239.649C91.3437 239.01 91.5168 238.457 91.8675 237.99C92.2227 237.517 92.715 237.153 93.3445 236.897C93.9785 236.636 94.7091 236.506 95.5364 236.506C96.7504 236.506 97.7058 236.764 98.4027 237.281C99.1042 237.798 99.538 238.498 99.7044 239.379ZM107.113 236.641V238.529H101.158V236.641H107.113ZM102.628 234.159H105.07V243.884C105.07 244.212 105.119 244.464 105.218 244.639C105.321 244.81 105.456 244.927 105.623 244.99C105.789 245.053 105.973 245.085 106.176 245.085C106.328 245.085 106.468 245.073 106.594 245.051C106.724 245.028 106.823 245.008 106.891 244.99L107.302 246.899C107.172 246.944 106.985 246.993 106.742 247.047C106.504 247.101 106.212 247.133 105.865 247.142C105.254 247.16 104.703 247.067 104.213 246.865C103.723 246.658 103.334 246.339 103.046 245.907C102.763 245.476 102.624 244.936 102.628 244.289V234.159ZM109.155 247V236.641H111.488V238.401H111.61C111.826 237.807 112.183 237.344 112.682 237.012C113.181 236.674 113.777 236.506 114.469 236.506C115.171 236.506 115.762 236.677 116.243 237.018C116.729 237.356 117.071 237.816 117.268 238.401H117.376C117.606 237.825 117.992 237.367 118.536 237.025C119.085 236.679 119.735 236.506 120.485 236.506C121.439 236.506 122.216 236.807 122.819 237.41C123.421 238.012 123.723 238.891 123.723 240.047V247H121.274V240.424C121.274 239.781 121.104 239.311 120.762 239.015C120.42 238.713 120.002 238.563 119.507 238.563C118.918 238.563 118.458 238.747 118.125 239.116C117.797 239.48 117.633 239.954 117.633 240.539V247H115.238V240.323C115.238 239.788 115.076 239.361 114.753 239.042C114.433 238.722 114.015 238.563 113.498 238.563C113.148 238.563 112.828 238.653 112.541 238.833C112.253 239.008 112.024 239.257 111.853 239.581C111.682 239.9 111.596 240.274 111.596 240.701V247H109.155ZM130.786 247.202C129.747 247.202 128.85 246.987 128.095 246.555C127.344 246.119 126.766 245.503 126.361 244.707C125.957 243.907 125.754 242.965 125.754 241.881C125.754 240.815 125.957 239.88 126.361 239.075C126.771 238.266 127.342 237.637 128.074 237.187C128.807 236.733 129.668 236.506 130.658 236.506C131.296 236.506 131.899 236.609 132.465 236.816C133.036 237.018 133.54 237.333 133.976 237.76C134.416 238.187 134.763 238.731 135.014 239.392C135.266 240.049 135.392 240.831 135.392 241.739V242.488H126.901V240.842H133.052C133.047 240.375 132.946 239.959 132.748 239.595C132.55 239.226 132.274 238.936 131.919 238.725C131.568 238.513 131.159 238.408 130.691 238.408C130.192 238.408 129.754 238.529 129.376 238.772C128.998 239.01 128.704 239.325 128.493 239.716C128.286 240.103 128.18 240.528 128.176 240.991V242.427C128.176 243.03 128.286 243.547 128.506 243.979C128.726 244.406 129.034 244.734 129.43 244.963C129.826 245.188 130.289 245.3 130.819 245.3C131.175 245.3 131.496 245.251 131.784 245.152C132.072 245.049 132.321 244.898 132.532 244.7C132.744 244.502 132.903 244.257 133.011 243.965L135.291 244.221C135.147 244.824 134.873 245.35 134.468 245.8C134.068 246.245 133.555 246.591 132.93 246.838C132.305 247.081 131.591 247.202 130.786 247.202ZM139.899 240.93V247H137.458V236.641H139.791V238.401H139.912C140.151 237.821 140.531 237.36 141.052 237.018C141.578 236.677 142.228 236.506 143.001 236.506C143.716 236.506 144.339 236.659 144.87 236.964C145.405 237.27 145.818 237.713 146.111 238.293C146.407 238.873 146.553 239.577 146.549 240.404V247H144.107V240.782C144.107 240.089 143.928 239.548 143.568 239.156C143.213 238.765 142.72 238.57 142.091 238.57C141.664 238.57 141.284 238.664 140.951 238.853C140.623 239.037 140.364 239.305 140.176 239.655C139.991 240.006 139.899 240.431 139.899 240.93ZM154.204 236.641V238.529H148.248V236.641H154.204ZM149.719 234.159H152.16V243.884C152.16 244.212 152.21 244.464 152.309 244.639C152.412 244.81 152.547 244.927 152.713 244.99C152.88 245.053 153.064 245.085 153.266 245.085C153.419 245.085 153.559 245.073 153.684 245.051C153.815 245.028 153.914 245.008 153.981 244.99L154.393 246.899C154.262 246.944 154.076 246.993 153.833 247.047C153.594 247.101 153.302 247.133 152.956 247.142C152.345 247.16 151.794 247.067 151.304 246.865C150.814 246.658 150.425 246.339 150.137 245.907C149.854 245.476 149.714 244.936 149.719 244.289V234.159ZM164.285 239.379L162.059 239.622C161.996 239.397 161.886 239.186 161.729 238.988C161.576 238.79 161.369 238.63 161.108 238.509C160.847 238.387 160.528 238.327 160.151 238.327C159.642 238.327 159.215 238.437 158.869 238.657C158.527 238.878 158.359 239.163 158.363 239.514C158.359 239.815 158.469 240.06 158.694 240.249C158.923 240.438 159.301 240.593 159.827 240.714L161.594 241.092C162.574 241.303 163.302 241.638 163.779 242.097C164.26 242.555 164.503 243.156 164.507 243.898C164.503 244.55 164.312 245.125 163.934 245.624C163.561 246.119 163.042 246.505 162.376 246.784C161.711 247.063 160.946 247.202 160.083 247.202C158.815 247.202 157.795 246.937 157.021 246.406C156.248 245.871 155.787 245.127 155.639 244.174L158.019 243.945C158.127 244.412 158.357 244.765 158.707 245.004C159.058 245.242 159.514 245.361 160.076 245.361C160.656 245.361 161.122 245.242 161.472 245.004C161.828 244.765 162.005 244.471 162.005 244.12C162.005 243.823 161.891 243.578 161.661 243.385C161.436 243.192 161.086 243.043 160.609 242.94L158.842 242.569C157.848 242.362 157.113 242.014 156.637 241.524C156.16 241.029 155.924 240.404 155.929 239.649C155.924 239.01 156.097 238.457 156.448 237.99C156.803 237.517 157.295 237.153 157.925 236.897C158.559 236.636 159.29 236.506 160.117 236.506C161.331 236.506 162.286 236.764 162.983 237.281C163.685 237.798 164.118 238.498 164.285 239.379Z" fill="#A3ABBB"/>
<circle cx="20" cy="313" r="15" stroke="#A3ABBB" stroke-width="2"/>
<path d="M20.4992 320.189C19.6539 320.189 18.894 320.027 18.2196 319.703C17.5496 319.375 17.0146 318.925 16.6144 318.354C16.2143 317.783 16.0007 317.131 15.9737 316.399H17.997C18.0465 316.992 18.3095 317.48 18.7861 317.862C19.2627 318.244 19.8337 318.435 20.4992 318.435C21.0297 318.435 21.4996 318.314 21.9087 318.071C22.3224 317.824 22.6461 317.484 22.8799 317.053C23.1182 316.621 23.2374 316.129 23.2374 315.576C23.2374 315.014 23.116 314.512 22.8732 314.072C22.6304 313.631 22.2954 313.285 21.8683 313.033C21.4456 312.781 20.96 312.653 20.4115 312.649C19.9933 312.649 19.5729 312.721 19.1503 312.864C18.7276 313.008 18.3859 313.197 18.1251 313.431L16.2165 313.148L16.9921 306.188H24.5862V307.975H18.7254L18.287 311.839H18.3679C18.6377 311.579 18.9952 311.361 19.4403 311.185C19.8899 311.01 20.371 310.922 20.8836 310.922C21.7244 310.922 22.473 311.122 23.1294 311.522C23.7904 311.923 24.3097 312.469 24.6874 313.161C25.0696 313.849 25.2584 314.64 25.2539 315.535C25.2584 316.43 25.0561 317.228 24.6469 317.929C24.2423 318.631 23.6802 319.184 22.9608 319.589C22.2459 319.989 21.4254 320.189 20.4992 320.189Z" fill="#A3ABBB"/>
<path d="M58.0429 320H53.3624V306.188H58.1373C59.5087 306.188 60.6867 306.464 61.6714 307.017C62.6606 307.566 63.4204 308.355 63.951 309.384C64.4815 310.414 64.7468 311.646 64.7468 313.08C64.7468 314.519 64.4793 315.756 63.9442 316.79C63.4137 317.824 62.6471 318.617 61.6444 319.17C60.6462 319.723 59.4458 320 58.0429 320ZM55.8645 317.835H57.9215C58.8837 317.835 59.6863 317.66 60.3293 317.309C60.9722 316.954 61.4556 316.425 61.7793 315.724C62.103 315.018 62.2649 314.137 62.2649 313.08C62.2649 312.024 62.103 311.147 61.7793 310.45C61.4556 309.749 60.9767 309.225 60.3427 308.879C59.7133 308.528 58.9309 308.353 57.9957 308.353H55.8645V317.835ZM71.535 320.202C70.5233 320.202 69.6466 319.98 68.9047 319.535C68.1628 319.09 67.5873 318.467 67.1781 317.666C66.7735 316.866 66.5711 315.931 66.5711 314.861C66.5711 313.791 66.7735 312.853 67.1781 312.048C67.5873 311.244 68.1628 310.619 68.9047 310.173C69.6466 309.728 70.5233 309.506 71.535 309.506C72.5466 309.506 73.4234 309.728 74.1653 310.173C74.9072 310.619 75.4804 311.244 75.8851 312.048C76.2942 312.853 76.4988 313.791 76.4988 314.861C76.4988 315.931 76.2942 316.866 75.8851 317.666C75.4804 318.467 74.9072 319.09 74.1653 319.535C73.4234 319.98 72.5466 320.202 71.535 320.202ZM71.5485 318.246C72.097 318.246 72.5556 318.096 72.9243 317.795C73.293 317.489 73.5673 317.08 73.7471 316.567C73.9315 316.055 74.0236 315.484 74.0236 314.854C74.0236 314.22 73.9315 313.647 73.7471 313.134C73.5673 312.617 73.293 312.206 72.9243 311.9C72.5556 311.594 72.097 311.441 71.5485 311.441C70.9864 311.441 70.5188 311.594 70.1456 311.9C69.777 312.206 69.5004 312.617 69.3161 313.134C69.1362 313.647 69.0463 314.22 69.0463 314.854C69.0463 315.484 69.1362 316.055 69.3161 316.567C69.5004 317.08 69.777 317.489 70.1456 317.795C70.5188 318.096 70.9864 318.246 71.5485 318.246ZM83.0897 320.202C82.0556 320.202 81.1676 319.975 80.4257 319.521C79.6883 319.067 79.1196 318.44 78.7194 317.639C78.3237 316.835 78.1259 315.908 78.1259 314.861C78.1259 313.809 78.3282 312.88 78.7329 312.075C79.1375 311.266 79.7086 310.637 80.4459 310.187C81.1878 309.733 82.0646 309.506 83.0762 309.506C83.917 309.506 84.6612 309.661 85.3086 309.971C85.9606 310.277 86.4799 310.711 86.8666 311.273C87.2532 311.83 87.4735 312.482 87.5275 313.229H85.194C85.0995 312.73 84.8747 312.314 84.5195 311.981C84.1688 311.644 83.699 311.475 83.11 311.475C82.6109 311.475 82.1725 311.61 81.7948 311.88C81.4171 312.145 81.1226 312.527 80.9113 313.026C80.7045 313.525 80.6011 314.123 80.6011 314.82C80.6011 315.526 80.7045 316.133 80.9113 316.641C81.1181 317.145 81.4081 317.534 81.7813 317.808C82.159 318.078 82.6019 318.213 83.11 318.213C83.4697 318.213 83.7911 318.145 84.0744 318.01C84.3622 317.871 84.6027 317.671 84.796 317.41C84.9894 317.149 85.122 316.832 85.194 316.459H87.5275C87.469 317.192 87.2532 317.842 86.88 318.408C86.5069 318.97 85.9988 319.411 85.3558 319.73C84.7129 320.045 83.9575 320.202 83.0897 320.202ZM96.135 315.643V309.641H98.5764V320H96.2091V318.159H96.1012C95.8674 318.739 95.483 319.213 94.948 319.582C94.4174 319.951 93.7632 320.135 92.9854 320.135C92.3064 320.135 91.7062 319.984 91.1846 319.683C90.6675 319.377 90.2629 318.934 89.9706 318.354C89.6784 317.77 89.5323 317.064 89.5323 316.237V309.641H91.9737V315.859C91.9737 316.515 92.1536 317.037 92.5133 317.424C92.8729 317.81 93.3451 318.004 93.9296 318.004C94.2893 318.004 94.6377 317.916 94.9749 317.741C95.3122 317.565 95.5887 317.305 95.8045 316.958C96.0248 316.608 96.135 316.169 96.135 315.643ZM101.087 320V309.641H103.421V311.401H103.542C103.758 310.807 104.115 310.344 104.614 310.012C105.113 309.674 105.709 309.506 106.402 309.506C107.103 309.506 107.694 309.677 108.175 310.018C108.661 310.356 109.003 310.816 109.2 311.401H109.308C109.538 310.825 109.924 310.367 110.468 310.025C111.017 309.679 111.667 309.506 112.417 309.506C113.371 309.506 114.149 309.807 114.751 310.41C115.354 311.012 115.655 311.891 115.655 313.047V320H113.207V313.424C113.207 312.781 113.036 312.311 112.694 312.015C112.352 311.713 111.934 311.563 111.44 311.563C110.851 311.563 110.39 311.747 110.057 312.116C109.729 312.48 109.565 312.954 109.565 313.539V320H107.17V313.323C107.17 312.788 107.009 312.361 106.685 312.042C106.366 311.722 105.947 311.563 105.43 311.563C105.08 311.563 104.76 311.653 104.473 311.833C104.185 312.008 103.956 312.257 103.785 312.581C103.614 312.9 103.528 313.274 103.528 313.701V320H101.087ZM122.718 320.202C121.679 320.202 120.782 319.987 120.027 319.555C119.276 319.119 118.698 318.503 118.293 317.707C117.889 316.907 117.687 315.965 117.687 314.881C117.687 313.815 117.889 312.88 118.293 312.075C118.703 311.266 119.274 310.637 120.007 310.187C120.739 309.733 121.6 309.506 122.59 309.506C123.228 309.506 123.831 309.609 124.397 309.816C124.968 310.018 125.472 310.333 125.908 310.76C126.348 311.187 126.695 311.731 126.946 312.392C127.198 313.049 127.324 313.831 127.324 314.739V315.488H118.833V313.842H124.984C124.979 313.375 124.878 312.959 124.68 312.595C124.483 312.226 124.206 311.936 123.851 311.725C123.5 311.513 123.091 311.408 122.623 311.408C122.124 311.408 121.686 311.529 121.308 311.772C120.931 312.01 120.636 312.325 120.425 312.716C120.218 313.103 120.112 313.528 120.108 313.991V315.427C120.108 316.03 120.218 316.547 120.438 316.979C120.659 317.406 120.967 317.734 121.362 317.963C121.758 318.188 122.221 318.3 122.752 318.3C123.107 318.3 123.428 318.251 123.716 318.152C124.004 318.049 124.253 317.898 124.465 317.7C124.676 317.502 124.836 317.257 124.943 316.965L127.223 317.221C127.079 317.824 126.805 318.35 126.4 318.8C126 319.245 125.487 319.591 124.862 319.838C124.238 320.081 123.523 320.202 122.718 320.202ZM131.831 313.93V320H129.39V309.641H131.723V311.401H131.845C132.083 310.821 132.463 310.36 132.984 310.018C133.51 309.677 134.16 309.506 134.933 309.506C135.648 309.506 136.271 309.659 136.802 309.964C137.337 310.27 137.75 310.713 138.043 311.293C138.339 311.873 138.485 312.577 138.481 313.404V320H136.04V313.782C136.04 313.089 135.86 312.548 135.5 312.156C135.145 311.765 134.652 311.57 134.023 311.57C133.596 311.57 133.216 311.664 132.883 311.853C132.555 312.037 132.296 312.305 132.108 312.655C131.923 313.006 131.831 313.431 131.831 313.93ZM146.136 309.641V311.529H140.181V309.641H146.136ZM141.651 307.159H144.092V316.884C144.092 317.212 144.142 317.464 144.241 317.639C144.344 317.81 144.479 317.927 144.645 317.99C144.812 318.053 144.996 318.085 145.198 318.085C145.351 318.085 145.491 318.073 145.617 318.051C145.747 318.028 145.846 318.008 145.913 317.99L146.325 319.899C146.194 319.944 146.008 319.993 145.765 320.047C145.527 320.101 145.234 320.133 144.888 320.142C144.277 320.16 143.726 320.067 143.236 319.865C142.746 319.658 142.357 319.339 142.069 318.907C141.786 318.476 141.646 317.936 141.651 317.289V307.159ZM156.217 312.379L153.991 312.622C153.928 312.397 153.818 312.186 153.661 311.988C153.508 311.79 153.301 311.63 153.04 311.509C152.78 311.387 152.46 311.327 152.083 311.327C151.575 311.327 151.147 311.437 150.801 311.657C150.459 311.878 150.291 312.163 150.295 312.514C150.291 312.815 150.401 313.06 150.626 313.249C150.855 313.438 151.233 313.593 151.759 313.714L153.526 314.092C154.506 314.303 155.234 314.638 155.711 315.097C156.192 315.555 156.435 316.156 156.439 316.898C156.435 317.55 156.244 318.125 155.866 318.624C155.493 319.119 154.974 319.505 154.308 319.784C153.643 320.063 152.878 320.202 152.015 320.202C150.747 320.202 149.727 319.937 148.953 319.406C148.18 318.871 147.719 318.127 147.571 317.174L149.951 316.945C150.059 317.412 150.289 317.765 150.639 318.004C150.99 318.242 151.446 318.361 152.008 318.361C152.588 318.361 153.054 318.242 153.405 318.004C153.76 317.765 153.937 317.471 153.937 317.12C153.937 316.823 153.823 316.578 153.593 316.385C153.369 316.192 153.018 316.043 152.541 315.94L150.774 315.569C149.781 315.362 149.045 315.014 148.569 314.524C148.092 314.029 147.856 313.404 147.861 312.649C147.856 312.01 148.029 311.457 148.38 310.99C148.735 310.517 149.228 310.153 149.857 309.897C150.491 309.636 151.222 309.506 152.049 309.506C153.263 309.506 154.218 309.764 154.915 310.281C155.617 310.798 156.051 311.498 156.217 312.379ZM163.271 320V306.188H168.451C169.512 306.188 170.403 306.372 171.122 306.741C171.846 307.109 172.392 307.626 172.761 308.292C173.134 308.953 173.321 309.724 173.321 310.605C173.321 311.491 173.132 312.26 172.754 312.912C172.381 313.559 171.83 314.06 171.102 314.416C170.373 314.766 169.479 314.942 168.417 314.942H164.728V312.864H168.08C168.701 312.864 169.209 312.779 169.604 312.608C170 312.433 170.292 312.179 170.481 311.846C170.675 311.509 170.771 311.095 170.771 310.605C170.771 310.115 170.675 309.697 170.481 309.351C170.288 309 169.993 308.735 169.598 308.555C169.202 308.371 168.692 308.278 168.067 308.278H165.774V320H163.271ZM170.407 313.741L173.826 320H171.034L167.676 313.741H170.407ZM179.954 320.202C178.915 320.202 178.018 319.987 177.263 319.555C176.512 319.119 175.934 318.503 175.529 317.707C175.125 316.907 174.922 315.965 174.922 314.881C174.922 313.815 175.125 312.88 175.529 312.075C175.938 311.266 176.51 310.637 177.242 310.187C177.975 309.733 178.836 309.506 179.825 309.506C180.464 309.506 181.066 309.609 181.633 309.816C182.204 310.018 182.708 310.333 183.144 310.76C183.584 311.187 183.931 311.731 184.182 312.392C184.434 313.049 184.56 313.831 184.56 314.739V315.488H176.069V313.842H182.22C182.215 313.375 182.114 312.959 181.916 312.595C181.718 312.226 181.442 311.936 181.087 311.725C180.736 311.513 180.327 311.408 179.859 311.408C179.36 311.408 178.922 311.529 178.544 311.772C178.166 312.01 177.872 312.325 177.661 312.716C177.454 313.103 177.348 313.528 177.344 313.991V315.427C177.344 316.03 177.454 316.547 177.674 316.979C177.894 317.406 178.202 317.734 178.598 317.963C178.994 318.188 179.457 318.3 179.987 318.3C180.343 318.3 180.664 318.251 180.952 318.152C181.24 318.049 181.489 317.898 181.7 317.7C181.912 317.502 182.071 317.257 182.179 316.965L184.459 317.221C184.315 317.824 184.041 318.35 183.636 318.8C183.236 319.245 182.723 319.591 182.098 319.838C181.473 320.081 180.758 320.202 179.954 320.202ZM193.538 323.885V318.368H193.437C193.311 318.62 193.129 318.887 192.891 319.17C192.653 319.449 192.338 319.688 191.947 319.885C191.556 320.083 191.063 320.182 190.47 320.182C189.656 320.182 188.928 319.973 188.285 319.555C187.642 319.137 187.134 318.53 186.76 317.734C186.387 316.938 186.201 315.971 186.201 314.834C186.201 313.683 186.389 312.712 186.767 311.92C187.149 311.124 187.664 310.524 188.312 310.12C188.959 309.71 189.681 309.506 190.476 309.506C191.083 309.506 191.583 309.609 191.974 309.816C192.365 310.018 192.675 310.263 192.904 310.551C193.134 310.834 193.311 311.102 193.437 311.354H193.586V309.641H195.987V323.885H193.538ZM191.151 318.179C191.668 318.179 192.109 318.04 192.473 317.761C192.837 317.478 193.114 317.084 193.302 316.581C193.491 316.077 193.586 315.49 193.586 314.82C193.586 314.15 193.491 313.568 193.302 313.074C193.118 312.579 192.844 312.195 192.48 311.92C192.12 311.646 191.677 311.509 191.151 311.509C190.607 311.509 190.153 311.651 189.789 311.934C189.424 312.217 189.15 312.608 188.966 313.107C188.781 313.606 188.689 314.177 188.689 314.82C188.689 315.468 188.781 316.046 188.966 316.554C189.155 317.057 189.431 317.455 189.795 317.747C190.164 318.035 190.616 318.179 191.151 318.179ZM205.098 315.643V309.641H207.54V320H205.172V318.159H205.064C204.831 318.739 204.446 319.213 203.911 319.582C203.381 319.951 202.726 320.135 201.949 320.135C201.27 320.135 200.669 319.984 200.148 319.683C199.631 319.377 199.226 318.934 198.934 318.354C198.642 317.77 198.496 317.064 198.496 316.237V309.641H200.937V315.859C200.937 316.515 201.117 317.037 201.477 317.424C201.836 317.81 202.308 318.004 202.893 318.004C203.253 318.004 203.601 317.916 203.938 317.741C204.275 317.565 204.552 317.305 204.768 316.958C204.988 316.608 205.098 316.169 205.098 315.643ZM210.05 320V309.641H212.492V320H210.05ZM211.278 308.17C210.891 308.17 210.558 308.042 210.28 307.786C210.001 307.525 209.861 307.213 209.861 306.849C209.861 306.48 210.001 306.167 210.28 305.911C210.558 305.65 210.891 305.52 211.278 305.52C211.669 305.52 212.002 305.65 212.276 305.911C212.555 306.167 212.694 306.48 212.694 306.849C212.694 307.213 212.555 307.525 212.276 307.786C212.002 308.042 211.669 308.17 211.278 308.17ZM215.002 320V309.641H217.37V311.367H217.477C217.666 310.769 217.99 310.308 218.449 309.985C218.912 309.656 219.44 309.492 220.034 309.492C220.168 309.492 220.319 309.499 220.485 309.513C220.656 309.522 220.798 309.537 220.91 309.56V311.806C220.807 311.77 220.643 311.738 220.418 311.711C220.198 311.68 219.984 311.664 219.777 311.664C219.332 311.664 218.932 311.761 218.577 311.954C218.226 312.143 217.95 312.406 217.747 312.743C217.545 313.08 217.444 313.469 217.444 313.91V320H215.002ZM226.692 320.202C225.653 320.202 224.756 319.987 224.001 319.555C223.25 319.119 222.672 318.503 222.268 317.707C221.863 316.907 221.661 315.965 221.661 314.881C221.661 313.815 221.863 312.88 222.268 312.075C222.677 311.266 223.248 310.637 223.981 310.187C224.714 309.733 225.575 309.506 226.564 309.506C227.202 309.506 227.805 309.609 228.371 309.816C228.942 310.018 229.446 310.333 229.882 310.76C230.323 311.187 230.669 311.731 230.921 312.392C231.172 313.049 231.298 313.831 231.298 314.739V315.488H222.807V313.842H228.958C228.954 313.375 228.852 312.959 228.655 312.595C228.457 312.226 228.18 311.936 227.825 311.725C227.474 311.513 227.065 311.408 226.597 311.408C226.098 311.408 225.66 311.529 225.282 311.772C224.905 312.01 224.61 312.325 224.399 312.716C224.192 313.103 224.086 313.528 224.082 313.991V315.427C224.082 316.03 224.192 316.547 224.412 316.979C224.633 317.406 224.941 317.734 225.336 317.963C225.732 318.188 226.195 318.3 226.726 318.3C227.081 318.3 227.402 318.251 227.69 318.152C227.978 318.049 228.227 317.898 228.439 317.7C228.65 317.502 228.81 317.257 228.918 316.965L231.197 317.221C231.053 317.824 230.779 318.35 230.374 318.8C229.974 319.245 229.462 319.591 228.837 319.838C228.212 320.081 227.497 320.202 226.692 320.202ZM237.208 320.182C236.394 320.182 235.666 319.973 235.023 319.555C234.38 319.137 233.872 318.53 233.499 317.734C233.125 316.938 232.939 315.971 232.939 314.834C232.939 313.683 233.128 312.712 233.505 311.92C233.888 311.124 234.402 310.524 235.05 310.12C235.697 309.71 236.419 309.506 237.215 309.506C237.822 309.506 238.321 309.609 238.712 309.816C239.103 310.018 239.413 310.263 239.643 310.551C239.872 310.834 240.05 311.102 240.176 311.354H240.277V306.188H242.725V320H240.324V318.368H240.176C240.05 318.62 239.868 318.887 239.629 319.17C239.391 319.449 239.076 319.688 238.685 319.885C238.294 320.083 237.802 320.182 237.208 320.182ZM237.889 318.179C238.406 318.179 238.847 318.04 239.211 317.761C239.575 317.478 239.852 317.084 240.041 316.581C240.229 316.077 240.324 315.49 240.324 314.82C240.324 314.15 240.229 313.568 240.041 313.074C239.856 312.579 239.582 312.195 239.218 311.92C238.858 311.646 238.415 311.509 237.889 311.509C237.345 311.509 236.891 311.651 236.527 311.934C236.163 312.217 235.888 312.608 235.704 313.107C235.52 313.606 235.427 314.177 235.427 314.82C235.427 315.468 235.52 316.046 235.704 316.554C235.893 317.057 236.169 317.455 236.534 317.747C236.902 318.035 237.354 318.179 237.889 318.179Z" fill="#A3ABBB"/>
<circle cx="20" cy="167" r="15" stroke="#A3ABBB" stroke-width="2"/>
<path d="M20.5169 174.189C19.5906 174.189 18.7633 174.029 18.0349 173.71C17.3111 173.391 16.7378 172.948 16.3151 172.381C15.897 171.81 15.6722 171.149 15.6407 170.399H17.7584C17.7854 170.808 17.9225 171.163 18.1698 171.464C18.4216 171.761 18.7498 171.99 19.1545 172.152C19.5592 172.314 20.0088 172.395 20.5034 172.395C21.0474 172.395 21.5285 172.3 21.9467 172.112C22.3693 171.923 22.6998 171.66 22.9381 171.322C23.1764 170.981 23.2955 170.587 23.2955 170.142C23.2955 169.679 23.1764 169.272 22.9381 168.922C22.7043 168.566 22.3603 168.288 21.9062 168.085C21.4566 167.883 20.9125 167.782 20.2741 167.782H19.1073V166.082H20.2741C20.7866 166.082 21.2363 165.99 21.6229 165.806C22.0141 165.621 22.3198 165.365 22.5402 165.037C22.7605 164.704 22.8706 164.315 22.8706 163.87C22.8706 163.443 22.774 163.072 22.5806 162.757C22.3918 162.438 22.122 162.188 21.7713 162.009C21.4251 161.829 21.0159 161.739 20.5438 161.739C20.0942 161.739 19.6738 161.822 19.2826 161.988C18.896 162.15 18.5812 162.384 18.3384 162.69C18.0956 162.991 17.9653 163.353 17.9473 163.776H15.9307C15.9532 163.029 16.1735 162.373 16.5917 161.806C17.0143 161.24 17.5718 160.797 18.2643 160.478C18.9567 160.158 19.7255 159.999 20.5708 159.999C21.4566 159.999 22.2209 160.172 22.8639 160.518C23.5113 160.86 24.0104 161.316 24.3611 161.887C24.7163 162.458 24.8917 163.083 24.8872 163.762C24.8917 164.535 24.6759 165.192 24.2397 165.731C23.8081 166.271 23.2326 166.633 22.5132 166.817V166.925C23.4304 167.065 24.1408 167.429 24.6444 168.018C25.1525 168.607 25.4043 169.337 25.3998 170.21C25.4043 170.97 25.1929 171.651 24.7658 172.253C24.3431 172.856 23.7654 173.33 23.0325 173.676C22.2996 174.018 21.4611 174.189 20.5169 174.189Z" fill="#A3ABBB"/>
<path d="M65.7045 167.094C65.7045 168.582 65.4257 169.857 64.8682 170.918C64.3152 171.974 63.5598 172.784 62.6021 173.346C61.6489 173.908 60.5676 174.189 59.3581 174.189C58.1486 174.189 57.065 173.908 56.1073 173.346C55.1541 172.779 54.3987 171.968 53.8412 170.911C53.2882 169.85 53.0117 168.578 53.0117 167.094C53.0117 165.606 53.2882 164.333 53.8412 163.276C54.3987 162.215 55.1541 161.404 56.1073 160.842C57.065 160.28 58.1486 159.999 59.3581 159.999C60.5676 159.999 61.6489 160.28 62.6021 160.842C63.5598 161.404 64.3152 162.215 64.8682 163.276C65.4257 164.333 65.7045 165.606 65.7045 167.094ZM63.1889 167.094C63.1889 166.046 63.0247 165.163 62.6965 164.443C62.3728 163.719 61.9232 163.173 61.3477 162.804C60.7721 162.431 60.1089 162.245 59.3581 162.245C58.6072 162.245 57.944 162.431 57.3685 162.804C56.793 163.173 56.3411 163.719 56.0129 164.443C55.6892 165.163 55.5273 166.046 55.5273 167.094C55.5273 168.141 55.6892 169.027 56.0129 169.751C56.3411 170.47 56.793 171.017 57.3685 171.39C57.944 171.759 58.6072 171.943 59.3581 171.943C60.1089 171.943 60.7721 171.759 61.3477 171.39C61.9232 171.017 62.3728 170.47 62.6965 169.751C63.0247 169.027 63.1889 168.141 63.1889 167.094ZM67.9622 174V163.641H70.3294V165.367H70.4373C70.6262 164.769 70.9499 164.308 71.4085 163.985C71.8716 163.656 72.3999 163.492 72.9934 163.492C73.1283 163.492 73.279 163.499 73.4453 163.513C73.6162 163.522 73.7578 163.537 73.8702 163.56V165.806C73.7668 165.77 73.6027 165.738 73.3779 165.711C73.1576 165.68 72.944 165.664 72.7372 165.664C72.292 165.664 71.8919 165.761 71.5367 165.954C71.186 166.143 70.9094 166.406 70.7071 166.743C70.5048 167.08 70.4036 167.469 70.4036 167.91V174H67.9622ZM79.5709 178.101C78.6941 178.101 77.941 177.981 77.3115 177.743C76.682 177.509 76.1762 177.195 75.794 176.799C75.4119 176.403 75.1466 175.965 74.9982 175.484L77.1969 174.951C77.2958 175.153 77.4397 175.353 77.6285 175.551C77.8173 175.754 78.0714 175.92 78.3906 176.05C78.7143 176.185 79.1212 176.253 79.6113 176.253C80.3037 176.253 80.877 176.084 81.3311 175.747C81.7853 175.414 82.0123 174.866 82.0123 174.101V172.139H81.8909C81.765 172.39 81.5807 172.649 81.3379 172.914C81.0996 173.179 80.7826 173.402 80.3869 173.582C79.9958 173.762 79.5034 173.852 78.9099 173.852C78.1141 173.852 77.3924 173.665 76.745 173.292C76.102 172.914 75.5895 172.352 75.2073 171.606C74.8296 170.855 74.6407 169.915 74.6407 168.787C74.6407 167.649 74.8296 166.689 75.2073 165.907C75.5895 165.12 76.1043 164.524 76.7517 164.12C77.3992 163.71 78.1208 163.506 78.9167 163.506C79.5237 163.506 80.0227 163.609 80.4139 163.816C80.8096 164.018 81.1243 164.263 81.3581 164.551C81.5919 164.834 81.7695 165.102 81.8909 165.354H82.0258V163.641H84.4335V174.169C84.4335 175.054 84.2222 175.787 83.7996 176.367C83.3769 176.947 82.7992 177.381 82.0663 177.669C81.3334 177.957 80.5016 178.101 79.5709 178.101ZM79.5911 171.936C80.1082 171.936 80.5488 171.81 80.913 171.559C81.2772 171.307 81.5537 170.945 81.7425 170.473C81.9314 170.001 82.0258 169.434 82.0258 168.773C82.0258 168.121 81.9314 167.55 81.7425 167.06C81.5582 166.57 81.2839 166.19 80.9197 165.92C80.56 165.646 80.1172 165.509 79.5911 165.509C79.0471 165.509 78.5929 165.651 78.2287 165.934C77.8645 166.217 77.5903 166.606 77.4059 167.101C77.2216 167.591 77.1294 168.148 77.1294 168.773C77.1294 169.407 77.2216 169.962 77.4059 170.439C77.5948 170.911 77.8713 171.28 78.2355 171.545C78.6042 171.806 79.056 171.936 79.5911 171.936ZM89.9167 174.209C89.2602 174.209 88.669 174.092 88.1429 173.858C87.6214 173.62 87.2077 173.269 86.902 172.806C86.6007 172.343 86.4501 171.772 86.4501 171.093C86.4501 170.509 86.558 170.025 86.7738 169.643C86.9896 169.261 87.2841 168.955 87.6573 168.726C88.0305 168.497 88.4509 168.324 88.9185 168.207C89.3906 168.085 89.8785 167.998 90.382 167.944C90.989 167.881 91.4814 167.824 91.8591 167.775C92.2367 167.721 92.511 167.64 92.6819 167.532C92.8572 167.42 92.9449 167.247 92.9449 167.013V166.972C92.9449 166.464 92.7943 166.071 92.493 165.792C92.1918 165.513 91.7579 165.374 91.1914 165.374C90.5934 165.374 90.119 165.504 89.7683 165.765C89.4221 166.026 89.1883 166.334 89.0669 166.689L86.7873 166.365C86.9672 165.736 87.2639 165.21 87.6776 164.787C88.0912 164.36 88.597 164.041 89.195 163.83C89.793 163.614 90.454 163.506 91.1779 163.506C91.677 163.506 92.1738 163.564 92.6684 163.681C93.163 163.798 93.6148 163.991 94.024 164.261C94.4331 164.526 94.7614 164.888 95.0087 165.347C95.2604 165.806 95.3863 166.379 95.3863 167.067V174H93.0393V172.577H92.9584C92.81 172.865 92.6009 173.134 92.3312 173.386C92.0659 173.634 91.7309 173.834 91.3262 173.987C90.9261 174.135 90.4562 174.209 89.9167 174.209ZM90.5507 172.415C91.0407 172.415 91.4656 172.318 91.8253 172.125C92.185 171.927 92.4615 171.666 92.6549 171.343C92.8527 171.019 92.9516 170.666 92.9516 170.284V169.063C92.8752 169.126 92.7448 169.185 92.5605 169.238C92.3806 169.292 92.1783 169.34 91.9535 169.38C91.7287 169.421 91.5061 169.457 91.2858 169.488C91.0655 169.52 90.8744 169.546 90.7125 169.569C90.3483 169.618 90.0223 169.699 89.7346 169.812C89.4468 169.924 89.2198 170.082 89.0534 170.284C88.887 170.482 88.8039 170.738 88.8039 171.053C88.8039 171.502 88.968 171.842 89.2962 172.071C89.6244 172.3 90.0426 172.415 90.5507 172.415ZM100.283 167.93V174H97.8413V163.641H100.175V165.401H100.296C100.535 164.821 100.914 164.36 101.436 164.018C101.962 163.677 102.612 163.506 103.385 163.506C104.1 163.506 104.723 163.659 105.253 163.964C105.788 164.27 106.202 164.713 106.494 165.293C106.791 165.873 106.937 166.577 106.933 167.404V174H104.491V167.782C104.491 167.089 104.311 166.548 103.952 166.156C103.596 165.765 103.104 165.57 102.475 165.57C102.048 165.57 101.668 165.664 101.335 165.853C101.007 166.037 100.748 166.305 100.559 166.655C100.375 167.006 100.283 167.431 100.283 167.93ZM109.415 174V163.641H111.856V174H109.415ZM110.642 162.17C110.255 162.17 109.923 162.042 109.644 161.786C109.365 161.525 109.226 161.213 109.226 160.849C109.226 160.48 109.365 160.167 109.644 159.911C109.923 159.65 110.255 159.52 110.642 159.52C111.033 159.52 111.366 159.65 111.64 159.911C111.919 160.167 112.058 160.48 112.058 160.849C112.058 161.213 111.919 161.525 111.64 161.786C111.366 162.042 111.033 162.17 110.642 162.17ZM114.232 174V172.449L119.573 165.752V165.664H114.407V163.641H122.561V165.307L117.476 171.889V171.977H122.736V174H114.232ZM128.012 174.209C127.356 174.209 126.764 174.092 126.238 173.858C125.717 173.62 125.303 173.269 124.997 172.806C124.696 172.343 124.545 171.772 124.545 171.093C124.545 170.509 124.653 170.025 124.869 169.643C125.085 169.261 125.38 168.955 125.753 168.726C126.126 168.497 126.546 168.324 127.014 168.207C127.486 168.085 127.974 167.998 128.477 167.944C129.084 167.881 129.577 167.824 129.954 167.775C130.332 167.721 130.606 167.64 130.777 167.532C130.953 167.42 131.04 167.247 131.04 167.013V166.972C131.04 166.464 130.89 166.071 130.588 165.792C130.287 165.513 129.853 165.374 129.287 165.374C128.689 165.374 128.214 165.504 127.864 165.765C127.518 166.026 127.284 166.334 127.162 166.689L124.883 166.365C125.063 165.736 125.359 165.21 125.773 164.787C126.187 164.36 126.692 164.041 127.29 163.83C127.888 163.614 128.549 163.506 129.273 163.506C129.772 163.506 130.269 163.564 130.764 163.681C131.258 163.798 131.71 163.991 132.119 164.261C132.529 164.526 132.857 164.888 133.104 165.347C133.356 165.806 133.482 166.379 133.482 167.067V174H131.135V172.577H131.054C130.905 172.865 130.696 173.134 130.427 173.386C130.161 173.634 129.826 173.834 129.422 173.987C129.021 174.135 128.552 174.209 128.012 174.209ZM128.646 172.415C129.136 172.415 129.561 172.318 129.921 172.125C130.28 171.927 130.557 171.666 130.75 171.343C130.948 171.019 131.047 170.666 131.047 170.284V169.063C130.971 169.126 130.84 169.185 130.656 169.238C130.476 169.292 130.274 169.34 130.049 169.38C129.824 169.421 129.602 169.457 129.381 169.488C129.161 169.52 128.97 169.546 128.808 169.569C128.444 169.618 128.118 169.699 127.83 169.812C127.542 169.924 127.315 170.082 127.149 170.284C126.982 170.482 126.899 170.738 126.899 171.053C126.899 171.502 127.063 171.842 127.392 172.071C127.72 172.3 128.138 172.415 128.646 172.415ZM141.11 163.641V165.529H135.154V163.641H141.11ZM136.625 161.159H139.066V170.884C139.066 171.212 139.116 171.464 139.214 171.639C139.318 171.81 139.453 171.927 139.619 171.99C139.785 172.053 139.97 172.085 140.172 172.085C140.325 172.085 140.464 172.073 140.59 172.051C140.721 172.028 140.82 172.008 140.887 171.99L141.298 173.899C141.168 173.944 140.981 173.993 140.739 174.047C140.5 174.101 140.208 174.133 139.862 174.142C139.25 174.16 138.7 174.067 138.21 173.865C137.719 173.658 137.331 173.339 137.043 172.907C136.759 172.476 136.62 171.936 136.625 171.289V161.159ZM143.151 174V163.641H145.593V174H143.151ZM144.379 162.17C143.992 162.17 143.66 162.042 143.381 161.786C143.102 161.525 142.963 161.213 142.963 160.849C142.963 160.48 143.102 160.167 143.381 159.911C143.66 159.65 143.992 159.52 144.379 159.52C144.77 159.52 145.103 159.65 145.377 159.911C145.656 160.167 145.795 160.48 145.795 160.849C145.795 161.213 145.656 161.525 145.377 161.786C145.103 162.042 144.77 162.17 144.379 162.17ZM152.622 174.202C151.611 174.202 150.734 173.98 149.992 173.535C149.25 173.09 148.674 172.467 148.265 171.666C147.861 170.866 147.658 169.931 147.658 168.861C147.658 167.791 147.861 166.853 148.265 166.048C148.674 165.244 149.25 164.619 149.992 164.173C150.734 163.728 151.611 163.506 152.622 163.506C153.634 163.506 154.511 163.728 155.252 164.173C155.994 164.619 156.568 165.244 156.972 166.048C157.381 166.853 157.586 167.791 157.586 168.861C157.586 169.931 157.381 170.866 156.972 171.666C156.568 172.467 155.994 173.09 155.252 173.535C154.511 173.98 153.634 174.202 152.622 174.202ZM152.636 172.246C153.184 172.246 153.643 172.096 154.012 171.795C154.38 171.489 154.654 171.08 154.834 170.567C155.019 170.055 155.111 169.484 155.111 168.854C155.111 168.22 155.019 167.647 154.834 167.134C154.654 166.617 154.38 166.206 154.012 165.9C153.643 165.594 153.184 165.441 152.636 165.441C152.074 165.441 151.606 165.594 151.233 165.9C150.864 166.206 150.588 166.617 150.403 167.134C150.223 167.647 150.134 168.22 150.134 168.854C150.134 169.484 150.223 170.055 150.403 170.567C150.588 171.08 150.864 171.489 151.233 171.795C151.606 172.096 152.074 172.246 152.636 172.246ZM162.1 167.93V174H159.658V163.641H161.992V165.401H162.113C162.351 164.821 162.731 164.36 163.253 164.018C163.779 163.677 164.429 163.506 165.202 163.506C165.917 163.506 166.54 163.659 167.07 163.964C167.605 164.27 168.019 164.713 168.311 165.293C168.608 165.873 168.754 166.577 168.75 167.404V174H166.308V167.782C166.308 167.089 166.128 166.548 165.769 166.156C165.413 165.765 164.921 165.57 164.292 165.57C163.864 165.57 163.485 165.664 163.152 165.853C162.824 166.037 162.565 166.305 162.376 166.655C162.192 167.006 162.1 167.431 162.1 167.93ZM178.552 160.188V174H176.05V160.188H178.552ZM183.596 167.93V174H181.154V163.641H183.488V165.401H183.609C183.847 164.821 184.227 164.36 184.749 164.018C185.275 163.677 185.925 163.506 186.698 163.506C187.413 163.506 188.036 163.659 188.566 163.964C189.101 164.27 189.515 164.713 189.807 165.293C190.104 165.873 190.25 166.577 190.245 167.404V174H187.804V167.782C187.804 167.089 187.624 166.548 187.264 166.156C186.909 165.765 186.417 165.57 185.787 165.57C185.36 165.57 184.98 165.664 184.648 165.853C184.319 166.037 184.061 166.305 183.872 166.655C183.688 167.006 183.596 167.431 183.596 167.93ZM197.975 163.641V165.529H191.851V163.641H197.975ZM193.382 174V162.663C193.382 161.966 193.525 161.386 193.813 160.923C194.106 160.46 194.497 160.113 194.987 159.884C195.477 159.655 196.021 159.54 196.619 159.54C197.042 159.54 197.417 159.574 197.745 159.641C198.073 159.709 198.316 159.769 198.474 159.823L197.988 161.712C197.885 161.68 197.754 161.649 197.597 161.617C197.439 161.581 197.264 161.563 197.071 161.563C196.617 161.563 196.295 161.674 196.106 161.894C195.922 162.11 195.83 162.42 195.83 162.825V174H193.382ZM204.016 174.202C203.004 174.202 202.127 173.98 201.385 173.535C200.644 173.09 200.068 172.467 199.659 171.666C199.254 170.866 199.052 169.931 199.052 168.861C199.052 167.791 199.254 166.853 199.659 166.048C200.068 165.244 200.644 164.619 201.385 164.173C202.127 163.728 203.004 163.506 204.016 163.506C205.027 163.506 205.904 163.728 206.646 164.173C207.388 164.619 207.961 165.244 208.366 166.048C208.775 166.853 208.98 167.791 208.98 168.861C208.98 169.931 208.775 170.866 208.366 171.666C207.961 172.467 207.388 173.09 206.646 173.535C205.904 173.98 205.027 174.202 204.016 174.202ZM204.029 172.246C204.578 172.246 205.036 172.096 205.405 171.795C205.774 171.489 206.048 171.08 206.228 170.567C206.412 170.055 206.504 169.484 206.504 168.854C206.504 168.22 206.412 167.647 206.228 167.134C206.048 166.617 205.774 166.206 205.405 165.9C205.036 165.594 204.578 165.441 204.029 165.441C203.467 165.441 203 165.594 202.626 165.9C202.258 166.206 201.981 166.617 201.797 167.134C201.617 167.647 201.527 168.22 201.527 168.854C201.527 169.484 201.617 170.055 201.797 170.567C201.981 171.08 202.258 171.489 202.626 171.795C203 172.096 203.467 172.246 204.029 172.246ZM211.052 174V163.641H213.419V165.367H213.527C213.716 164.769 214.04 164.308 214.498 163.985C214.961 163.656 215.49 163.492 216.083 163.492C216.218 163.492 216.369 163.499 216.535 163.513C216.706 163.522 216.847 163.537 216.96 163.56V165.806C216.856 165.77 216.692 165.738 216.467 165.711C216.247 165.68 216.034 165.664 215.827 165.664C215.382 165.664 214.981 165.761 214.626 165.954C214.276 166.143 213.999 166.406 213.797 166.743C213.594 167.08 213.493 167.469 213.493 167.91V174H211.052ZM218.582 174V163.641H220.915V165.401H221.037C221.253 164.807 221.61 164.344 222.109 164.012C222.608 163.674 223.204 163.506 223.896 163.506C224.598 163.506 225.189 163.677 225.67 164.018C226.156 164.356 226.497 164.816 226.695 165.401H226.803C227.032 164.825 227.419 164.367 227.963 164.025C228.512 163.679 229.161 163.506 229.912 163.506C230.866 163.506 231.643 163.807 232.246 164.41C232.848 165.012 233.15 165.891 233.15 167.047V174H230.701V167.424C230.701 166.781 230.531 166.311 230.189 166.015C229.847 165.713 229.429 165.563 228.934 165.563C228.345 165.563 227.885 165.747 227.552 166.116C227.224 166.48 227.059 166.954 227.059 167.539V174H224.665V167.323C224.665 166.788 224.503 166.361 224.18 166.042C223.86 165.722 223.442 165.563 222.925 165.563C222.574 165.563 222.255 165.653 221.967 165.833C221.68 166.008 221.45 166.257 221.28 166.581C221.109 166.9 221.023 167.274 221.023 167.701V174H218.582ZM238.607 174.209C237.951 174.209 237.36 174.092 236.834 173.858C236.312 173.62 235.898 173.269 235.593 172.806C235.291 172.343 235.141 171.772 235.141 171.093C235.141 170.509 235.249 170.025 235.465 169.643C235.68 169.261 235.975 168.955 236.348 168.726C236.721 168.497 237.142 168.324 237.609 168.207C238.081 168.085 238.569 167.998 239.073 167.944C239.68 167.881 240.172 167.824 240.55 167.775C240.928 167.721 241.202 167.64 241.373 167.532C241.548 167.42 241.636 167.247 241.636 167.013V166.972C241.636 166.464 241.485 166.071 241.184 165.792C240.883 165.513 240.449 165.374 239.882 165.374C239.284 165.374 238.81 165.504 238.459 165.765C238.113 166.026 237.879 166.334 237.758 166.689L235.478 166.365C235.658 165.736 235.955 165.21 236.368 164.787C236.782 164.36 237.288 164.041 237.886 163.83C238.484 163.614 239.145 163.506 239.869 163.506C240.368 163.506 240.865 163.564 241.359 163.681C241.854 163.798 242.306 163.991 242.715 164.261C243.124 164.526 243.452 164.888 243.699 165.347C243.951 165.806 244.077 166.379 244.077 167.067V174H241.73V172.577H241.649C241.501 172.865 241.292 173.134 241.022 173.386C240.757 173.634 240.422 173.834 240.017 173.987C239.617 174.135 239.147 174.209 238.607 174.209ZM239.241 172.415C239.732 172.415 240.156 172.318 240.516 172.125C240.876 171.927 241.152 171.666 241.346 171.343C241.543 171.019 241.642 170.666 241.642 170.284V169.063C241.566 169.126 241.436 169.185 241.251 169.238C241.071 169.292 240.869 169.34 240.644 169.38C240.419 169.421 240.197 169.457 239.977 169.488C239.756 169.52 239.565 169.546 239.403 169.569C239.039 169.618 238.713 169.699 238.425 169.812C238.138 169.924 237.911 170.082 237.744 170.284C237.578 170.482 237.495 170.738 237.495 171.053C237.495 171.502 237.659 171.842 237.987 172.071C238.315 172.3 238.733 172.415 239.241 172.415ZM251.705 163.641V165.529H245.75V163.641H251.705ZM247.22 161.159H249.661V170.884C249.661 171.212 249.711 171.464 249.81 171.639C249.913 171.81 250.048 171.927 250.214 171.99C250.381 172.053 250.565 172.085 250.768 172.085C250.92 172.085 251.06 172.073 251.186 172.051C251.316 172.028 251.415 172.008 251.482 171.99L251.894 173.899C251.763 173.944 251.577 173.993 251.334 174.047C251.096 174.101 250.803 174.133 250.457 174.142C249.846 174.16 249.295 174.067 248.805 173.865C248.315 173.658 247.926 173.339 247.638 172.907C247.355 172.476 247.215 171.936 247.22 171.289V161.159ZM253.747 174V163.641H256.188V174H253.747ZM254.974 162.17C254.588 162.17 254.255 162.042 253.976 161.786C253.697 161.525 253.558 161.213 253.558 160.849C253.558 160.48 253.697 160.167 253.976 159.911C254.255 159.65 254.588 159.52 254.974 159.52C255.365 159.52 255.698 159.65 255.972 159.911C256.251 160.167 256.391 160.48 256.391 160.849C256.391 161.213 256.251 161.525 255.972 161.786C255.698 162.042 255.365 162.17 254.974 162.17ZM263.218 174.202C262.206 174.202 261.329 173.98 260.587 173.535C259.845 173.09 259.27 172.467 258.861 171.666C258.456 170.866 258.254 169.931 258.254 168.861C258.254 167.791 258.456 166.853 258.861 166.048C259.27 165.244 259.845 164.619 260.587 164.173C261.329 163.728 262.206 163.506 263.218 163.506C264.229 163.506 265.106 163.728 265.848 164.173C266.59 164.619 267.163 165.244 267.568 166.048C267.977 166.853 268.181 167.791 268.181 168.861C268.181 169.931 267.977 170.866 267.568 171.666C267.163 172.467 266.59 173.09 265.848 173.535C265.106 173.98 264.229 174.202 263.218 174.202ZM263.231 172.246C263.78 172.246 264.238 172.096 264.607 171.795C264.976 171.489 265.25 171.08 265.43 170.567C265.614 170.055 265.706 169.484 265.706 168.854C265.706 168.22 265.614 167.647 265.43 167.134C265.25 166.617 264.976 166.206 264.607 165.9C264.238 165.594 263.78 165.441 263.231 165.441C262.669 165.441 262.201 165.594 261.828 165.9C261.46 166.206 261.183 166.617 260.999 167.134C260.819 167.647 260.729 168.22 260.729 168.854C260.729 169.484 260.819 170.055 260.999 170.567C261.183 171.08 261.46 171.489 261.828 171.795C262.201 172.096 262.669 172.246 263.231 172.246ZM272.695 167.93V174H270.254V163.641H272.587V165.401H272.709C272.947 164.821 273.327 164.36 273.848 164.018C274.374 163.677 275.024 163.506 275.797 163.506C276.512 163.506 277.135 163.659 277.666 163.964C278.201 164.27 278.614 164.713 278.907 165.293C279.203 165.873 279.349 166.577 279.345 167.404V174H276.904V167.782C276.904 167.089 276.724 166.548 276.364 166.156C276.009 165.765 275.516 165.57 274.887 165.57C274.46 165.57 274.08 165.664 273.747 165.853C273.419 166.037 273.16 166.305 272.972 166.655C272.787 167.006 272.695 167.431 272.695 167.93Z" fill="#A3ABBB"/>
<line x1="20.5" y1="42" x2="20.5" y2="73" stroke="#A3ABBB"/>
<line x1="20.5" y1="115" x2="20.5" y2="146" stroke="#A3ABBB"/>
<line x1="20.5" y1="188" x2="20.5" y2="219" stroke="#A3ABBB"/>
<line x1="20.5" y1="261" x2="20.5" y2="292" stroke="#A3ABBB"/>
</svg>
