<svg width="355" height="31" viewBox="0 0 355 31" fill="none" xmlns="http://www.w3.org/2000/svg">
<path d="M8.952 24.32C7.20267 24.32 5.528 24.0747 3.928 23.584C2.328 23.072 1.05867 22.4213 0.12 21.632L1.56 18.4C2.456 19.104 3.56533 19.6907 4.888 20.16C6.21067 20.6293 7.56533 20.864 8.952 20.864C10.1253 20.864 11.0747 20.736 11.8 20.48C12.5253 20.224 13.0587 19.8827 13.4 19.456C13.7413 19.008 13.912 18.5067 13.912 17.952C13.912 17.2693 13.6667 16.7253 13.176 16.32C12.6853 15.8933 12.0453 15.5627 11.256 15.328C10.488 15.072 9.624 14.8373 8.664 14.624C7.72533 14.4107 6.776 14.1653 5.816 13.888C4.87733 13.5893 4.01333 13.216 3.224 12.768C2.456 12.2987 1.82667 11.68 1.336 10.912C0.845333 10.144 0.6 9.16267 0.6 7.968C0.6 6.752 0.92 5.64267 1.56 4.64C2.22133 3.616 3.21333 2.80533 4.536 2.208C5.88 1.58933 7.576 1.28 9.624 1.28C10.968 1.28 12.3013 1.45067 13.624 1.792C14.9467 2.13333 16.0987 2.624 17.08 3.264L15.768 6.496C14.7653 5.89867 13.7307 5.46133 12.664 5.184C11.5973 4.88533 10.5733 4.736 9.592 4.736C8.44 4.736 7.50133 4.87466 6.776 5.152C6.072 5.42933 5.54933 5.792 5.208 6.24C4.888 6.688 4.728 7.2 4.728 7.776C4.728 8.45867 4.96267 9.01333 5.432 9.44C5.92267 9.84533 6.552 10.1653 7.32 10.4C8.10933 10.6347 8.984 10.8693 9.944 11.104C10.904 11.3173 11.8533 11.5627 12.792 11.84C13.752 12.1173 14.616 12.48 15.384 12.928C16.1733 13.376 16.8027 13.984 17.272 14.752C17.7627 15.52 18.008 16.4907 18.008 17.664C18.008 18.8587 17.6773 19.968 17.016 20.992C16.376 21.9947 15.384 22.8053 14.04 23.424C12.696 24.0213 11 24.32 8.952 24.32ZM29.429 24.224C27.6797 24.224 26.1223 23.8507 24.757 23.104C23.3917 22.336 22.3143 21.2907 21.525 19.968C20.7357 18.6453 20.341 17.1413 20.341 15.456C20.341 13.7493 20.7357 12.2453 21.525 10.944C22.3143 9.62133 23.3917 8.58667 24.757 7.84C26.1223 7.09333 27.6797 6.72 29.429 6.72C31.1997 6.72 32.7677 7.09333 34.133 7.84C35.5197 8.58667 36.597 9.61067 37.365 10.912C38.1543 12.2133 38.549 13.728 38.549 15.456C38.549 17.1413 38.1543 18.6453 37.365 19.968C36.597 21.2907 35.5197 22.336 34.133 23.104C32.7677 23.8507 31.1997 24.224 29.429 24.224ZM29.429 20.8C30.4103 20.8 31.285 20.5867 32.053 20.16C32.821 19.7333 33.4183 19.1147 33.845 18.304C34.293 17.4933 34.517 16.544 34.517 15.456C34.517 14.3467 34.293 13.3973 33.845 12.608C33.4183 11.7973 32.821 11.1787 32.053 10.752C31.285 10.3253 30.421 10.112 29.461 10.112C28.4797 10.112 27.605 10.3253 26.837 10.752C26.0903 11.1787 25.493 11.7973 25.045 12.608C24.597 13.3973 24.373 14.3467 24.373 15.456C24.373 16.544 24.597 17.4933 25.045 18.304C25.493 19.1147 26.0903 19.7333 26.837 20.16C27.605 20.5867 28.469 20.8 29.429 20.8ZM63.942 6.72C65.3073 6.72 66.5127 6.98667 67.558 7.52C68.6247 8.05333 69.4567 8.87467 70.054 9.984C70.6513 11.072 70.95 12.48 70.95 14.208V24H66.95V14.72C66.95 13.2053 66.6193 12.0747 65.958 11.328C65.2967 10.5813 64.3473 10.208 63.11 10.208C62.2353 10.208 61.4567 10.4 60.774 10.784C60.1127 11.168 59.59 11.7333 59.206 12.48C58.8433 13.2267 58.662 14.176 58.662 15.328V24H54.662V14.72C54.662 13.2053 54.3313 12.0747 53.67 11.328C53.0087 10.5813 52.0593 10.208 50.822 10.208C49.9473 10.208 49.1687 10.4 48.486 10.784C47.8247 11.168 47.302 11.7333 46.918 12.48C46.5553 13.2267 46.374 14.176 46.374 15.328V24H42.374V6.912H46.182V11.456L45.51 10.112C46.086 9.00267 46.918 8.16 48.006 7.584C49.1153 7.008 50.374 6.72 51.782 6.72C53.382 6.72 54.7687 7.11467 55.942 7.904C57.1367 8.69333 57.926 9.888 58.31 11.488L56.742 10.944C57.2967 9.664 58.214 8.64 59.494 7.872C60.774 7.104 62.2567 6.72 63.942 6.72ZM84.1248 24.224C82.2261 24.224 80.5621 23.8507 79.1328 23.104C77.7248 22.336 76.6261 21.2907 75.8368 19.968C75.0688 18.6453 74.6848 17.1413 74.6848 15.456C74.6848 13.7493 75.0581 12.2453 75.8048 10.944C76.5728 9.62133 77.6181 8.58667 78.9408 7.84C80.2848 7.09333 81.8101 6.72 83.5168 6.72C85.1808 6.72 86.6634 7.08267 87.9648 7.808C89.2661 8.53333 90.2901 9.55733 91.0368 10.88C91.7834 12.2027 92.1568 13.76 92.1568 15.552C92.1568 15.7227 92.1461 15.9147 92.1248 16.128C92.1248 16.3413 92.1141 16.544 92.0928 16.736H77.8528V14.08H89.9808L88.4128 14.912C88.4341 13.9307 88.2314 13.0667 87.8048 12.32C87.3781 11.5733 86.7914 10.9867 86.0448 10.56C85.3194 10.1333 84.4768 9.92 83.5168 9.92C82.5354 9.92 81.6714 10.1333 80.9248 10.56C80.1994 10.9867 79.6234 11.584 79.1968 12.352C78.7914 13.0987 78.5888 13.984 78.5888 15.008V15.648C78.5888 16.672 78.8234 17.5787 79.2928 18.368C79.7621 19.1573 80.4234 19.7653 81.2768 20.192C82.1301 20.6187 83.1114 20.832 84.2208 20.832C85.1808 20.832 86.0448 20.6827 86.8128 20.384C87.5808 20.0853 88.2634 19.616 88.8608 18.976L91.0048 21.44C90.2368 22.336 89.2661 23.0293 88.0928 23.52C86.9408 23.9893 85.6181 24.224 84.1248 24.224ZM112.523 24.224C110.773 24.224 109.216 23.8507 107.851 23.104C106.485 22.336 105.408 21.2907 104.619 19.968C103.829 18.6453 103.435 17.1413 103.435 15.456C103.435 13.7493 103.829 12.2453 104.619 10.944C105.408 9.62133 106.485 8.58667 107.851 7.84C109.216 7.09333 110.773 6.72 112.523 6.72C114.293 6.72 115.861 7.09333 117.227 7.84C118.613 8.58667 119.691 9.61067 120.459 10.912C121.248 12.2133 121.643 13.728 121.643 15.456C121.643 17.1413 121.248 18.6453 120.459 19.968C119.691 21.2907 118.613 22.336 117.227 23.104C115.861 23.8507 114.293 24.224 112.523 24.224ZM112.523 20.8C113.504 20.8 114.379 20.5867 115.147 20.16C115.915 19.7333 116.512 19.1147 116.939 18.304C117.387 17.4933 117.611 16.544 117.611 15.456C117.611 14.3467 117.387 13.3973 116.939 12.608C116.512 11.7973 115.915 11.1787 115.147 10.752C114.379 10.3253 113.515 10.112 112.555 10.112C111.573 10.112 110.699 10.3253 109.931 10.752C109.184 11.1787 108.587 11.7973 108.139 12.608C107.691 13.3973 107.467 14.3467 107.467 15.456C107.467 16.544 107.691 17.4933 108.139 18.304C108.587 19.1147 109.184 19.7333 109.931 20.16C110.699 20.5867 111.563 20.8 112.523 20.8ZM126.012 24V5.952C126.012 4.16 126.534 2.73067 127.58 1.664C128.646 0.576 130.161 0.0319996 132.124 0.0319996C132.828 0.0319996 133.489 0.106666 134.108 0.255999C134.748 0.405333 135.281 0.639999 135.708 0.959999L134.62 3.968C134.321 3.73333 133.98 3.56267 133.596 3.456C133.212 3.328 132.817 3.264 132.412 3.264C131.58 3.264 130.95 3.49867 130.524 3.968C130.097 4.416 129.884 5.09867 129.884 6.016V7.936L130.012 9.728V24H126.012ZM123.196 10.24V7.04H134.588V10.24H123.196ZM157.004 24.32C155.255 24.32 153.644 24.032 152.172 23.456C150.7 22.88 149.42 22.08 148.332 21.056C147.244 20.0107 146.401 18.7947 145.804 17.408C145.207 16 144.908 14.464 144.908 12.8C144.908 11.136 145.207 9.61067 145.804 8.224C146.401 6.816 147.244 5.6 148.332 4.576C149.42 3.53067 150.7 2.72 152.172 2.144C153.644 1.568 155.244 1.28 156.972 1.28C158.721 1.28 160.321 1.568 161.772 2.144C163.244 2.72 164.524 3.53067 165.612 4.576C166.7 5.6 167.543 6.816 168.14 8.224C168.737 9.61067 169.036 11.136 169.036 12.8C169.036 14.464 168.737 16 168.14 17.408C167.543 18.816 166.7 20.032 165.612 21.056C164.524 22.08 163.244 22.88 161.772 23.456C160.321 24.032 158.732 24.32 157.004 24.32ZM156.972 20.672C158.103 20.672 159.148 20.48 160.108 20.096C161.068 19.712 161.9 19.168 162.604 18.464C163.308 17.7387 163.852 16.9067 164.236 15.968C164.641 15.008 164.844 13.952 164.844 12.8C164.844 11.648 164.641 10.6027 164.236 9.664C163.852 8.704 163.308 7.872 162.604 7.168C161.9 6.44267 161.068 5.888 160.108 5.504C159.148 5.12 158.103 4.928 156.972 4.928C155.841 4.928 154.796 5.12 153.836 5.504C152.897 5.888 152.065 6.44267 151.34 7.168C150.636 7.872 150.081 8.704 149.676 9.664C149.292 10.6027 149.1 11.648 149.1 12.8C149.1 13.9307 149.292 14.976 149.676 15.936C150.081 16.896 150.636 17.7387 151.34 18.464C152.044 19.168 152.876 19.712 153.836 20.096C154.796 20.48 155.841 20.672 156.972 20.672ZM180.294 24.224C178.843 24.224 177.563 23.9573 176.454 23.424C175.344 22.8693 174.48 22.0373 173.862 20.928C173.243 19.7973 172.934 18.3787 172.934 16.672V6.912H176.934V16.128C176.934 17.664 177.275 18.816 177.958 19.584C178.662 20.3307 179.654 20.704 180.934 20.704C181.872 20.704 182.683 20.512 183.366 20.128C184.07 19.744 184.614 19.168 184.998 18.4C185.403 17.632 185.606 16.6827 185.606 15.552V6.912H189.606V24H185.798V19.392L186.47 20.8C185.894 21.9093 185.051 22.7627 183.942 23.36C182.832 23.936 181.616 24.224 180.294 24.224ZM194.843 24V6.912H198.651V11.616L198.203 10.24C198.715 9.088 199.515 8.21333 200.603 7.616C201.712 7.01867 203.088 6.72 204.731 6.72V10.528C204.56 10.4853 204.4 10.464 204.251 10.464C204.101 10.4427 203.952 10.432 203.803 10.432C202.288 10.432 201.083 10.88 200.187 11.776C199.291 12.6507 198.843 13.9627 198.843 15.712V24H194.843Z" fill="black"/>
<path d="M224.452 24.32C222.703 24.32 221.028 24.0747 219.428 23.584C217.828 23.072 216.559 22.4213 215.62 21.632L217.06 18.4C217.956 19.104 219.065 19.6907 220.388 20.16C221.711 20.6293 223.065 20.864 224.452 20.864C225.625 20.864 226.575 20.736 227.3 20.48C228.025 20.224 228.559 19.8827 228.9 19.456C229.241 19.008 229.412 18.5067 229.412 17.952C229.412 17.2693 229.167 16.7253 228.676 16.32C228.185 15.8933 227.545 15.5627 226.756 15.328C225.988 15.072 225.124 14.8373 224.164 14.624C223.225 14.4107 222.276 14.1653 221.316 13.888C220.377 13.5893 219.513 13.216 218.724 12.768C217.956 12.2987 217.327 11.68 216.836 10.912C216.345 10.144 216.1 9.16267 216.1 7.968C216.1 6.752 216.42 5.64267 217.06 4.64C217.721 3.616 218.713 2.80533 220.036 2.208C221.38 1.58933 223.076 1.28 225.124 1.28C226.468 1.28 227.801 1.45067 229.124 1.792C230.447 2.13333 231.599 2.624 232.58 3.264L231.268 6.496C230.265 5.89867 229.231 5.46133 228.164 5.184C227.097 4.88533 226.073 4.736 225.092 4.736C223.94 4.736 223.001 4.87466 222.276 5.152C221.572 5.42933 221.049 5.792 220.708 6.24C220.388 6.688 220.228 7.2 220.228 7.776C220.228 8.45867 220.463 9.01333 220.932 9.44C221.423 9.84533 222.052 10.1653 222.82 10.4C223.609 10.6347 224.484 10.8693 225.444 11.104C226.404 11.3173 227.353 11.5627 228.292 11.84C229.252 12.1173 230.116 12.48 230.884 12.928C231.673 13.376 232.303 13.984 232.772 14.752C233.263 15.52 233.508 16.4907 233.508 17.664C233.508 18.8587 233.177 19.968 232.516 20.992C231.876 21.9947 230.884 22.8053 229.54 23.424C228.196 24.0213 226.5 24.32 224.452 24.32ZM243.681 24.224C241.804 24.224 240.353 23.744 239.329 22.784C238.305 21.8027 237.793 20.3627 237.793 18.464V3.136H241.793V18.368C241.793 19.1787 241.996 19.808 242.401 20.256C242.828 20.704 243.414 20.928 244.161 20.928C245.057 20.928 245.804 20.6933 246.401 20.224L247.521 23.072C247.052 23.456 246.476 23.744 245.793 23.936C245.11 24.128 244.406 24.224 243.681 24.224ZM234.977 10.24V7.04H246.369V10.24H234.977ZM261.34 24V20.544L261.116 19.808V13.76C261.116 12.5867 260.764 11.68 260.06 11.04C259.356 10.3787 258.289 10.048 256.86 10.048C255.9 10.048 254.95 10.1973 254.012 10.496C253.094 10.7947 252.316 11.2107 251.676 11.744L250.108 8.832C251.025 8.128 252.113 7.60533 253.372 7.264C254.652 6.90133 255.974 6.72 257.34 6.72C259.814 6.72 261.724 7.31733 263.068 8.512C264.433 9.68533 265.116 11.5093 265.116 13.984V24H261.34ZM255.964 24.224C254.684 24.224 253.564 24.0107 252.604 23.584C251.644 23.136 250.897 22.528 250.364 21.76C249.852 20.9707 249.596 20.0853 249.596 19.104C249.596 18.144 249.82 17.28 250.268 16.512C250.737 15.744 251.494 15.136 252.54 14.688C253.585 14.24 254.972 14.016 256.7 14.016H261.66V16.672H256.988C255.622 16.672 254.705 16.896 254.236 17.344C253.766 17.7707 253.532 18.304 253.532 18.944C253.532 19.6693 253.82 20.2453 254.396 20.672C254.972 21.0987 255.772 21.312 256.796 21.312C257.777 21.312 258.652 21.088 259.42 20.64C260.209 20.192 260.774 19.5307 261.116 18.656L261.788 21.056C261.404 22.0587 260.71 22.8373 259.708 23.392C258.726 23.9467 257.478 24.224 255.964 24.224ZM270.249 24V6.912H274.057V11.616L273.609 10.24C274.121 9.088 274.921 8.21333 276.009 7.616C277.118 7.01867 278.494 6.72 280.137 6.72V10.528C279.966 10.4853 279.806 10.464 279.657 10.464C279.508 10.4427 279.358 10.432 279.209 10.432C277.694 10.432 276.489 10.88 275.593 11.776C274.697 12.6507 274.249 13.9627 274.249 15.712V24H270.249ZM290.587 24.224C288.71 24.224 287.259 23.744 286.235 22.784C285.211 21.8027 284.699 20.3627 284.699 18.464V3.136H288.699V18.368C288.699 19.1787 288.902 19.808 289.307 20.256C289.734 20.704 290.321 20.928 291.067 20.928C291.963 20.928 292.71 20.6933 293.307 20.224L294.427 23.072C293.958 23.456 293.382 23.744 292.699 23.936C292.017 24.128 291.313 24.224 290.587 24.224ZM281.883 10.24V7.04H293.275V10.24H281.883ZM304.95 24.224C303.499 24.224 302.219 23.9573 301.11 23.424C300 22.8693 299.136 22.0373 298.518 20.928C297.899 19.7973 297.59 18.3787 297.59 16.672V6.912H301.59V16.128C301.59 17.664 301.931 18.816 302.614 19.584C303.318 20.3307 304.31 20.704 305.59 20.704C306.528 20.704 307.339 20.512 308.022 20.128C308.726 19.744 309.27 19.168 309.654 18.4C310.059 17.632 310.262 16.6827 310.262 15.552V6.912H314.262V24H310.454V19.392L311.126 20.8C310.55 21.9093 309.707 22.7627 308.598 23.36C307.488 23.936 306.272 24.224 304.95 24.224ZM328.971 24.224C327.584 24.224 326.315 23.904 325.163 23.264C324.032 22.624 323.126 21.664 322.443 20.384C321.782 19.0827 321.451 17.44 321.451 15.456C321.451 13.4507 321.771 11.808 322.411 10.528C323.072 9.248 323.968 8.29867 325.099 7.68C326.23 7.04 327.52 6.72 328.971 6.72C330.656 6.72 332.139 7.08267 333.419 7.808C334.72 8.53333 335.744 9.54667 336.491 10.848C337.259 12.1493 337.643 13.6853 337.643 15.456C337.643 17.2267 337.259 18.7733 336.491 20.096C335.744 21.3973 334.72 22.4107 333.419 23.136C332.139 23.8613 330.656 24.224 328.971 24.224ZM319.499 30.208V6.912H323.307V10.944L323.179 15.488L323.499 20.032V30.208H319.499ZM328.523 20.8C329.483 20.8 330.336 20.5867 331.083 20.16C331.851 19.7333 332.459 19.1147 332.907 18.304C333.355 17.4933 333.579 16.544 333.579 15.456C333.579 14.3467 333.355 13.3973 332.907 12.608C332.459 11.7973 331.851 11.1787 331.083 10.752C330.336 10.3253 329.483 10.112 328.523 10.112C327.563 10.112 326.699 10.3253 325.931 10.752C325.163 11.1787 324.555 11.7973 324.107 12.608C323.659 13.3973 323.435 14.3467 323.435 15.456C323.435 16.544 323.659 17.4933 324.107 18.304C324.555 19.1147 325.163 19.7333 325.931 20.16C326.699 20.5867 327.563 20.8 328.523 20.8ZM346.717 24.224C345.287 24.224 343.911 24.0427 342.589 23.68C341.287 23.296 340.253 22.8373 339.485 22.304L341.021 19.264C341.789 19.7547 342.706 20.16 343.773 20.48C344.839 20.8 345.906 20.96 346.973 20.96C348.231 20.96 349.138 20.7893 349.693 20.448C350.269 20.1067 350.557 19.648 350.557 19.072C350.557 18.6027 350.365 18.2507 349.981 18.016C349.597 17.76 349.095 17.568 348.477 17.44C347.858 17.312 347.165 17.1947 346.397 17.088C345.65 16.9813 344.893 16.8427 344.125 16.672C343.378 16.48 342.695 16.2133 342.077 15.872C341.458 15.5093 340.957 15.0293 340.573 14.432C340.189 13.8347 339.997 13.0453 339.997 12.064C339.997 10.976 340.306 10.0373 340.924 9.248C341.543 8.43733 342.407 7.81867 343.516 7.392C344.647 6.944 345.981 6.72 347.517 6.72C348.669 6.72 349.831 6.848 351.005 7.104C352.178 7.36 353.149 7.72267 353.917 8.192L352.381 11.232C351.57 10.7413 350.749 10.4107 349.917 10.24C349.106 10.048 348.295 9.952 347.485 9.952C346.269 9.952 345.362 10.1333 344.765 10.496C344.189 10.8587 343.901 11.3173 343.901 11.872C343.901 12.384 344.093 12.768 344.477 13.024C344.861 13.28 345.362 13.4827 345.981 13.632C346.599 13.7813 347.282 13.9093 348.029 14.016C348.797 14.1013 349.554 14.24 350.301 14.432C351.047 14.624 351.73 14.8907 352.349 15.232C352.989 15.552 353.501 16.0107 353.885 16.608C354.269 17.2053 354.461 17.984 354.461 18.944C354.461 20.0107 354.141 20.9387 353.501 21.728C352.882 22.5173 351.997 23.136 350.845 23.584C349.693 24.0107 348.317 24.224 346.717 24.224Z" fill="white"/>
</svg>
