<svg width="321" height="261" viewBox="0 0 321 261" fill="none" xmlns="http://www.w3.org/2000/svg">
<circle cx="20" cy="21" r="15" stroke="#1782CF" stroke-width="2"/>
<path d="M22.5806 14.1876V28H20.4899V16.2783H20.409L17.1042 18.4365V16.4402L20.5506 14.1876H22.5806Z" fill="#1782CF"/>
<path d="M53.3624 28V14.1876H58.542C59.6031 14.1876 60.4934 14.3854 61.2128 14.7811C61.9367 15.1768 62.483 15.7208 62.8516 16.4132C63.2248 17.1011 63.4114 17.8835 63.4114 18.7603C63.4114 19.646 63.2248 20.4329 62.8516 21.1208C62.4785 21.8087 61.9277 22.3505 61.1993 22.7462C60.4709 23.1373 59.5739 23.3329 58.5083 23.3329H55.0754V21.2759H58.1711C58.7916 21.2759 59.2996 21.168 59.6953 20.9522C60.091 20.7363 60.3832 20.4396 60.5721 20.0619C60.7654 19.6842 60.8621 19.2503 60.8621 18.7603C60.8621 18.2702 60.7654 17.8385 60.5721 17.4653C60.3832 17.0922 60.0887 16.8021 59.6885 16.5953C59.2929 16.384 58.7826 16.2783 58.1576 16.2783H55.8645V28H53.3624ZM69.9147 28.2023C68.876 28.2023 67.979 27.9865 67.2237 27.5549C66.4728 27.1187 65.895 26.5028 65.4904 25.7069C65.0857 24.9066 64.8834 23.9646 64.8834 22.881C64.8834 21.8154 65.0857 20.8802 65.4904 20.0754C65.8995 19.2661 66.4705 18.6366 67.2034 18.187C67.9363 17.7329 68.7973 17.5058 69.7865 17.5058C70.425 17.5058 71.0275 17.6092 71.594 17.816C72.165 18.0184 72.6686 18.3331 73.1047 18.7603C73.5454 19.1874 73.8916 19.7314 74.1434 20.3924C74.3951 21.0488 74.521 21.8312 74.521 22.7394V23.488H66.0299V21.8424H72.1808C72.1763 21.3748 72.0751 20.9589 71.8773 20.5947C71.6794 20.226 71.4029 19.936 71.0477 19.7247C70.697 19.5134 70.2878 19.4077 69.8202 19.4077C69.3212 19.4077 68.8828 19.5291 68.5051 19.7719C68.1274 20.0102 67.8329 20.3249 67.6216 20.7161C67.4148 21.1028 67.3091 21.5277 67.3046 21.9908V23.4273C67.3046 24.0298 67.4148 24.5469 67.6351 24.9785C67.8554 25.4057 68.1634 25.7339 68.559 25.9632C68.9547 26.188 69.4178 26.3004 69.9484 26.3004C70.3036 26.3004 70.6251 26.251 70.9128 26.1521C71.2006 26.0486 71.4501 25.898 71.6614 25.7002C71.8728 25.5023 72.0324 25.2573 72.1403 24.965L74.4199 25.2213C74.276 25.8238 74.0017 26.3499 73.5971 26.7995C73.1969 27.2446 72.6843 27.5908 72.0594 27.8381C71.4344 28.0809 70.7195 28.2023 69.9147 28.2023ZM76.5865 28V17.6407H78.9538V19.3672H79.0617C79.2505 18.7692 79.5742 18.3084 80.0328 17.9847C80.496 17.6564 81.0243 17.4923 81.6178 17.4923C81.7527 17.4923 81.9033 17.4991 82.0696 17.5126C82.2405 17.5215 82.3821 17.5373 82.4945 17.5598V19.8056C82.3911 19.7697 82.227 19.7382 82.0022 19.7112C81.7819 19.6797 81.5683 19.664 81.3615 19.664C80.9164 19.664 80.5162 19.7607 80.161 19.954C79.8103 20.1428 79.5338 20.4059 79.3314 20.7431C79.1291 21.0803 79.0279 21.4692 79.0279 21.9099V28H76.5865ZM92.3042 20.3789L90.0785 20.6217C90.0156 20.3969 89.9054 20.1856 89.7481 19.9877C89.5952 19.7899 89.3884 19.6303 89.1276 19.5089C88.8668 19.3875 88.5476 19.3268 88.1699 19.3268C87.6618 19.3268 87.2347 19.4369 86.8885 19.6573C86.5468 19.8776 86.3781 20.1631 86.3826 20.5138C86.3781 20.815 86.4883 21.0601 86.7131 21.2489C86.9424 21.4378 87.3201 21.5929 87.8462 21.7143L89.6132 22.092C90.5934 22.3033 91.3218 22.6382 91.7984 23.0969C92.2794 23.5555 92.5222 24.1557 92.5267 24.8976C92.5222 25.5496 92.3312 26.1251 91.9535 26.6242C91.5803 27.1187 91.061 27.5054 90.3955 27.7842C89.7301 28.0629 88.9657 28.2023 88.1025 28.2023C86.8345 28.2023 85.8139 27.9371 85.0405 27.4065C84.2672 26.8714 83.8063 26.1273 83.6579 25.1741L86.0387 24.9448C86.1466 25.4124 86.3759 25.7654 86.7266 26.0037C87.0773 26.242 87.5337 26.3611 88.0957 26.3611C88.6757 26.3611 89.1411 26.242 89.4918 26.0037C89.847 25.7654 90.0246 25.4709 90.0246 25.1202C90.0246 24.8234 89.9099 24.5784 89.6806 24.385C89.4558 24.1917 89.1051 24.0433 88.6285 23.9399L86.8615 23.569C85.8678 23.3621 85.1327 23.0137 84.6561 22.5236C84.1795 22.029 83.9434 21.404 83.9479 20.6487C83.9434 20.0102 84.1165 19.4572 84.4673 18.9896C84.8225 18.5175 85.3148 18.1533 85.9443 17.897C86.5782 17.6362 87.3089 17.5058 88.1362 17.5058C89.3502 17.5058 90.3056 17.7643 91.0025 18.2814C91.7039 18.7985 92.1378 19.4976 92.3042 20.3789ZM99.0586 28.2023C98.047 28.2023 97.1702 27.9798 96.4283 27.5346C95.6865 27.0895 95.1109 26.4668 94.7018 25.6665C94.2971 24.8661 94.0948 23.9309 94.0948 22.8608C94.0948 21.7907 94.2971 20.8532 94.7018 20.0484C95.1109 19.2436 95.6865 18.6186 96.4283 18.1735C97.1702 17.7284 98.047 17.5058 99.0586 17.5058C100.07 17.5058 100.947 17.7284 101.689 18.1735C102.431 18.6186 103.004 19.2436 103.409 20.0484C103.818 20.8532 104.022 21.7907 104.022 22.8608C104.022 23.9309 103.818 24.8661 103.409 25.6665C103.004 26.4668 102.431 27.0895 101.689 27.5346C100.947 27.9798 100.07 28.2023 99.0586 28.2023ZM99.0721 26.2465C99.6207 26.2465 100.079 26.0958 100.448 25.7946C100.817 25.4889 101.091 25.0797 101.271 24.5671C101.455 24.0546 101.547 23.4835 101.547 22.8541C101.547 22.2201 101.455 21.6468 101.271 21.1343C101.091 20.6172 100.817 20.2058 100.448 19.9C100.079 19.5943 99.6207 19.4414 99.0721 19.4414C98.5101 19.4414 98.0425 19.5943 97.6693 19.9C97.3006 20.2058 97.0241 20.6172 96.8397 21.1343C96.6599 21.6468 96.57 22.2201 96.57 22.8541C96.57 23.4835 96.6599 24.0546 96.8397 24.5671C97.0241 25.0797 97.3006 25.4889 97.6693 25.7946C98.0425 26.0958 98.5101 26.2465 99.0721 26.2465ZM108.536 21.9301V28H106.095V17.6407H108.428V19.401H108.55C108.788 18.821 109.168 18.3601 109.689 18.0184C110.215 17.6767 110.865 17.5058 111.639 17.5058C112.353 17.5058 112.976 17.6587 113.507 17.9644C114.042 18.2702 114.455 18.713 114.748 19.2931C115.044 19.8731 115.191 20.5767 115.186 21.404V28H112.745V21.7817C112.745 21.0893 112.565 20.5475 112.205 20.1563C111.85 19.7652 111.357 19.5696 110.728 19.5696C110.301 19.5696 109.921 19.664 109.588 19.8528C109.26 20.0372 109.001 20.3047 108.813 20.6554C108.628 21.0061 108.536 21.431 108.536 21.9301ZM120.649 28.2091C119.993 28.2091 119.401 28.0922 118.875 27.8584C118.354 27.6201 117.94 27.2694 117.634 26.8063C117.333 26.3431 117.182 25.7721 117.182 25.0932C117.182 24.5087 117.29 24.0253 117.506 23.6432C117.722 23.261 118.016 22.9552 118.39 22.7259C118.763 22.4966 119.183 22.3235 119.651 22.2066C120.123 22.0852 120.611 21.9975 121.114 21.9436C121.721 21.8806 122.214 21.8244 122.591 21.775C122.969 21.721 123.243 21.6401 123.414 21.5322C123.589 21.4198 123.677 21.2467 123.677 21.0129V20.9724C123.677 20.4643 123.527 20.0709 123.225 19.7921C122.924 19.5134 122.49 19.374 121.924 19.374C121.326 19.374 120.851 19.5044 120.501 19.7652C120.154 20.0259 119.921 20.3339 119.799 20.6891L117.52 20.3654C117.699 19.7359 117.996 19.2099 118.41 18.7872C118.823 18.3601 119.329 18.0409 119.927 17.8295C120.525 17.6137 121.186 17.5058 121.91 17.5058C122.409 17.5058 122.906 17.5643 123.401 17.6812C123.895 17.7981 124.347 17.9914 124.756 18.2612C125.165 18.5264 125.494 18.8884 125.741 19.347C125.993 19.8056 126.119 20.3789 126.119 21.0668V28H123.772V26.5769H123.691C123.542 26.8647 123.333 27.1345 123.063 27.3863C122.798 27.6336 122.463 27.8336 122.059 27.9865C121.658 28.1349 121.188 28.2091 120.649 28.2091ZM121.283 26.4151C121.773 26.4151 122.198 26.3184 122.558 26.1251C122.917 25.9272 123.194 25.6665 123.387 25.3427C123.585 25.019 123.684 24.666 123.684 24.2839V23.0631C123.607 23.1261 123.477 23.1845 123.293 23.2385C123.113 23.2925 122.911 23.3397 122.686 23.3801C122.461 23.4206 122.238 23.4566 122.018 23.488C121.798 23.5195 121.607 23.5465 121.445 23.569C121.081 23.6184 120.755 23.6994 120.467 23.8118C120.179 23.9242 119.952 24.0815 119.786 24.2839C119.619 24.4817 119.536 24.738 119.536 25.0527C119.536 25.5023 119.7 25.8418 120.028 26.0711C120.357 26.3004 120.775 26.4151 121.283 26.4151ZM131.015 14.1876V28H128.574V14.1876H131.015ZM140.847 14.1876V28H138.344V14.1876H140.847ZM145.89 21.9301V28H143.448V17.6407H145.782V19.401H145.903C146.141 18.821 146.521 18.3601 147.043 18.0184C147.569 17.6767 148.219 17.5058 148.992 17.5058C149.707 17.5058 150.33 17.6587 150.86 17.9644C151.395 18.2702 151.809 18.713 152.101 19.2931C152.398 19.8731 152.544 20.5767 152.54 21.404V28H150.098V21.7817C150.098 21.0893 149.918 20.5475 149.559 20.1563C149.203 19.7652 148.711 19.5696 148.082 19.5696C147.654 19.5696 147.274 19.664 146.942 19.8528C146.614 20.0372 146.355 20.3047 146.166 20.6554C145.982 21.0061 145.89 21.431 145.89 21.9301ZM160.269 17.6407V19.5291H154.145V17.6407H160.269ZM155.676 28V16.6628C155.676 15.9658 155.82 15.3858 156.107 14.9227C156.4 14.4596 156.791 14.1134 157.281 13.8841C157.771 13.6548 158.315 13.5401 158.913 13.5401C159.336 13.5401 159.711 13.5739 160.039 13.6413C160.367 13.7087 160.61 13.7694 160.768 13.8234L160.282 15.7118C160.179 15.6803 160.048 15.6489 159.891 15.6174C159.734 15.5814 159.558 15.5634 159.365 15.5634C158.911 15.5634 158.589 15.6736 158.4 15.8939C158.216 16.1097 158.124 16.42 158.124 16.8246V28H155.676ZM166.31 28.2023C165.298 28.2023 164.421 27.9798 163.68 27.5346C162.938 27.0895 162.362 26.4668 161.953 25.6665C161.548 24.8661 161.346 23.9309 161.346 22.8608C161.346 21.7907 161.548 20.8532 161.953 20.0484C162.362 19.2436 162.938 18.6186 163.68 18.1735C164.421 17.7284 165.298 17.5058 166.31 17.5058C167.321 17.5058 168.198 17.7284 168.94 18.1735C169.682 18.6186 170.255 19.2436 170.66 20.0484C171.069 20.8532 171.274 21.7907 171.274 22.8608C171.274 23.9309 171.069 24.8661 170.66 25.6665C170.255 26.4668 169.682 27.0895 168.94 27.5346C168.198 27.9798 167.321 28.2023 166.31 28.2023ZM166.323 26.2465C166.872 26.2465 167.33 26.0958 167.699 25.7946C168.068 25.4889 168.342 25.0797 168.522 24.5671C168.706 24.0546 168.798 23.4835 168.798 22.8541C168.798 22.2201 168.706 21.6468 168.522 21.1343C168.342 20.6172 168.068 20.2058 167.699 19.9C167.33 19.5943 166.872 19.4414 166.323 19.4414C165.761 19.4414 165.294 19.5943 164.92 19.9C164.552 20.2058 164.275 20.6172 164.091 21.1343C163.911 21.6468 163.821 22.2201 163.821 22.8541C163.821 23.4835 163.911 24.0546 164.091 24.5671C164.275 25.0797 164.552 25.4889 164.92 25.7946C165.294 26.0958 165.761 26.2465 166.323 26.2465ZM173.346 28V17.6407H175.713V19.3672H175.821C176.01 18.7692 176.334 18.3084 176.792 17.9847C177.255 17.6564 177.784 17.4923 178.377 17.4923C178.512 17.4923 178.663 17.4991 178.829 17.5126C179 17.5215 179.141 17.5373 179.254 17.5598V19.8056C179.15 19.7697 178.986 19.7382 178.762 19.7112C178.541 19.6797 178.328 19.664 178.121 19.664C177.676 19.664 177.276 19.7607 176.92 19.954C176.57 20.1428 176.293 20.4059 176.091 20.7431C175.888 21.0803 175.787 21.4692 175.787 21.9099V28H173.346ZM180.876 28V17.6407H183.209V19.401H183.331C183.547 18.8075 183.904 18.3444 184.403 18.0116C184.902 17.6744 185.498 17.5058 186.19 17.5058C186.892 17.5058 187.483 17.6767 187.964 18.0184C188.45 18.3556 188.792 18.8165 188.989 19.401H189.097C189.327 18.8254 189.713 18.3668 190.257 18.0251C190.806 17.6789 191.456 17.5058 192.206 17.5058C193.16 17.5058 193.937 17.8071 194.54 18.4095C195.142 19.012 195.444 19.8911 195.444 21.0466V28H192.995V21.4243C192.995 20.7813 192.825 20.3115 192.483 20.0147C192.141 19.7135 191.723 19.5628 191.228 19.5628C190.639 19.5628 190.179 19.7472 189.846 20.1159C189.518 20.4801 189.354 20.9544 189.354 21.5389V28H186.959V21.3231C186.959 20.7881 186.797 20.3609 186.474 20.0417C186.154 19.7224 185.736 19.5628 185.219 19.5628C184.869 19.5628 184.549 19.6528 184.262 19.8326C183.974 20.008 183.745 20.2575 183.574 20.5812C183.403 20.9005 183.317 21.2736 183.317 21.7008V28H180.876ZM200.902 28.2091C200.245 28.2091 199.654 28.0922 199.128 27.8584C198.606 27.6201 198.193 27.2694 197.887 26.8063C197.586 26.3431 197.435 25.7721 197.435 25.0932C197.435 24.5087 197.543 24.0253 197.759 23.6432C197.974 23.261 198.269 22.9552 198.642 22.7259C199.015 22.4966 199.436 22.3235 199.903 22.2066C200.375 22.0852 200.863 21.9975 201.367 21.9436C201.974 21.8806 202.466 21.8244 202.844 21.775C203.222 21.721 203.496 21.6401 203.667 21.5322C203.842 21.4198 203.93 21.2467 203.93 21.0129V20.9724C203.93 20.4643 203.779 20.0709 203.478 19.7921C203.177 19.5134 202.743 19.374 202.176 19.374C201.578 19.374 201.104 19.5044 200.753 19.7652C200.407 20.0259 200.173 20.3339 200.052 20.6891L197.772 20.3654C197.952 19.7359 198.249 19.2099 198.662 18.7872C199.076 18.3601 199.582 18.0409 200.18 17.8295C200.778 17.6137 201.439 17.5058 202.163 17.5058C202.662 17.5058 203.159 17.5643 203.653 17.6812C204.148 17.7981 204.6 17.9914 205.009 18.2612C205.418 18.5264 205.746 18.8884 205.994 19.347C206.245 19.8056 206.371 20.3789 206.371 21.0668V28H204.024V26.5769H203.943C203.795 26.8647 203.586 27.1345 203.316 27.3863C203.051 27.6336 202.716 27.8336 202.311 27.9865C201.911 28.1349 201.441 28.2091 200.902 28.2091ZM201.536 26.4151C202.026 26.4151 202.45 26.3184 202.81 26.1251C203.17 25.9272 203.446 25.6665 203.64 25.3427C203.838 25.019 203.936 24.666 203.936 24.2839V23.0631C203.86 23.1261 203.73 23.1845 203.545 23.2385C203.365 23.2925 203.163 23.3397 202.938 23.3801C202.714 23.4206 202.491 23.4566 202.271 23.488C202.05 23.5195 201.859 23.5465 201.697 23.569C201.333 23.6184 201.007 23.6994 200.719 23.8118C200.432 23.9242 200.205 24.0815 200.038 24.2839C199.872 24.4817 199.789 24.738 199.789 25.0527C199.789 25.5023 199.953 25.8418 200.281 26.0711C200.609 26.3004 201.027 26.4151 201.536 26.4151ZM213.999 17.6407V19.5291H208.044V17.6407H213.999ZM209.514 15.1588H211.956V24.8841C211.956 25.2123 212.005 25.4641 212.104 25.6395C212.207 25.8103 212.342 25.9272 212.509 25.9902C212.675 26.0531 212.859 26.0846 213.062 26.0846C213.214 26.0846 213.354 26.0734 213.48 26.0509C213.61 26.0284 213.709 26.0082 213.776 25.9902L214.188 27.8988C214.058 27.9438 213.871 27.9933 213.628 28.0472C213.39 28.1012 213.098 28.1326 212.751 28.1416C212.14 28.1596 211.589 28.0674 211.099 27.8651C210.609 27.6583 210.22 27.3391 209.932 26.9074C209.649 26.4758 209.51 25.9362 209.514 25.2888V15.1588ZM216.041 28V17.6407H218.482V28H216.041ZM217.268 16.1704C216.882 16.1704 216.549 16.0423 216.27 15.786C215.991 15.5252 215.852 15.2127 215.852 14.8485C215.852 14.4798 215.991 14.1674 216.27 13.9111C216.549 13.6503 216.882 13.5199 217.268 13.5199C217.66 13.5199 217.992 13.6503 218.267 13.9111C218.545 14.1674 218.685 14.4798 218.685 14.8485C218.685 15.2127 218.545 15.5252 218.267 15.786C217.992 16.0423 217.66 16.1704 217.268 16.1704ZM225.512 28.2023C224.5 28.2023 223.623 27.9798 222.881 27.5346C222.139 27.0895 221.564 26.4668 221.155 25.6665C220.75 24.8661 220.548 23.9309 220.548 22.8608C220.548 21.7907 220.75 20.8532 221.155 20.0484C221.564 19.2436 222.139 18.6186 222.881 18.1735C223.623 17.7284 224.5 17.5058 225.512 17.5058C226.523 17.5058 227.4 17.7284 228.142 18.1735C228.884 18.6186 229.457 19.2436 229.862 20.0484C230.271 20.8532 230.475 21.7907 230.475 22.8608C230.475 23.9309 230.271 24.8661 229.862 25.6665C229.457 26.4668 228.884 27.0895 228.142 27.5346C227.4 27.9798 226.523 28.2023 225.512 28.2023ZM225.525 26.2465C226.074 26.2465 226.532 26.0958 226.901 25.7946C227.27 25.4889 227.544 25.0797 227.724 24.5671C227.908 24.0546 228 23.4835 228 22.8541C228 22.2201 227.908 21.6468 227.724 21.1343C227.544 20.6172 227.27 20.2058 226.901 19.9C226.532 19.5943 226.074 19.4414 225.525 19.4414C224.963 19.4414 224.495 19.5943 224.122 19.9C223.754 20.2058 223.477 20.6172 223.293 21.1343C223.113 21.6468 223.023 22.2201 223.023 22.8541C223.023 23.4835 223.113 24.0546 223.293 24.5671C223.477 25.0797 223.754 25.4889 224.122 25.7946C224.495 26.0958 224.963 26.2465 225.525 26.2465ZM234.989 21.9301V28H232.548V17.6407H234.881V19.401H235.003C235.241 18.821 235.621 18.3601 236.142 18.0184C236.668 17.6767 237.318 17.5058 238.092 17.5058C238.806 17.5058 239.429 17.6587 239.96 17.9644C240.495 18.2702 240.908 18.713 241.201 19.2931C241.497 19.8731 241.644 20.5767 241.639 21.404V28H239.198V21.7817C239.198 21.0893 239.018 20.5475 238.658 20.1563C238.303 19.7652 237.811 19.5696 237.181 19.5696C236.754 19.5696 236.374 19.664 236.041 19.8528C235.713 20.0372 235.454 20.3047 235.266 20.6554C235.081 21.0061 234.989 21.431 234.989 21.9301Z" fill="#393939"/>
<circle cx="20" cy="94" r="15" stroke="#1782CF" stroke-width="2"/>
<path d="M16.0049 101V99.4893L20.6787 94.6468C21.1778 94.1208 21.5892 93.6599 21.9129 93.2642C22.2412 92.8641 22.4862 92.4841 22.6481 92.1244C22.8099 91.7647 22.8909 91.3826 22.8909 90.9779C22.8909 90.5193 22.783 90.1236 22.5671 89.7909C22.3513 89.4537 22.0568 89.1952 21.6836 89.0153C21.3104 88.831 20.89 88.7388 20.4224 88.7388C19.9279 88.7388 19.4962 88.84 19.1275 89.0423C18.7588 89.2446 18.4756 89.5301 18.2777 89.8988C18.0799 90.2675 17.981 90.6991 17.981 91.1937H15.9914C15.9914 90.3529 16.1847 89.6178 16.5714 88.9883C16.9581 88.3589 17.4887 87.871 18.1631 87.5248C18.8375 87.1741 19.6041 86.9987 20.4629 86.9987C21.3307 86.9987 22.095 87.1719 22.756 87.5181C23.4214 87.8598 23.9407 88.3274 24.3139 88.9209C24.6871 89.5099 24.8737 90.1753 24.8737 90.9172C24.8737 91.4298 24.777 91.9311 24.5837 92.4212C24.3949 92.9113 24.0644 93.4576 23.5923 94.0601C23.1202 94.6581 22.4637 95.3842 21.6229 96.2385L18.878 99.1116V99.2127H25.0963V101H16.0049Z" fill="#1782CF"/>
<path d="M60.8688 90.9847C60.8059 90.3956 60.5406 89.937 60.073 89.6088C59.6099 89.2806 59.0074 89.1165 58.2655 89.1165C57.7439 89.1165 57.2966 89.1952 56.9234 89.3525C56.5502 89.5099 56.2647 89.7235 56.0668 89.9932C55.869 90.263 55.7678 90.571 55.7633 90.9172C55.7633 91.205 55.8285 91.4545 55.9589 91.6658C56.0938 91.8772 56.2759 92.057 56.5052 92.2054C56.7345 92.3493 56.9886 92.4707 57.2673 92.5696C57.5461 92.6685 57.8271 92.7517 58.1104 92.8191L59.4053 93.1428C59.9268 93.2642 60.4282 93.4284 60.9093 93.6352C61.3949 93.842 61.8288 94.1028 62.2109 94.4175C62.5976 94.7323 62.9033 95.1122 63.1282 95.5573C63.353 96.0024 63.4654 96.524 63.4654 97.122C63.4654 97.9313 63.2586 98.644 62.8449 99.26C62.4312 99.8714 61.8332 100.35 61.0509 100.697C60.2731 101.038 59.3311 101.209 58.225 101.209C57.1504 101.209 56.2175 101.043 55.4261 100.71C54.6393 100.377 54.0233 99.8917 53.5782 99.2532C53.1375 98.6148 52.8992 97.8369 52.8633 96.9197H55.325C55.3609 97.4008 55.5093 97.8009 55.7701 98.1202C56.0309 98.4394 56.3703 98.6777 56.7885 98.8351C57.2111 98.9924 57.6832 99.0711 58.2048 99.0711C58.7488 99.0711 59.2254 98.9902 59.6346 98.8283C60.0482 98.662 60.372 98.4327 60.6058 98.1404C60.8396 97.8436 60.9587 97.4974 60.9632 97.1018C60.9587 96.7421 60.8531 96.4453 60.6462 96.2115C60.4394 95.9732 60.1494 95.7754 59.7762 95.618C59.4075 95.4562 58.9759 95.3123 58.4813 95.1864L56.9099 94.7817C55.7723 94.4895 54.8731 94.0466 54.2121 93.4531C53.5557 92.8551 53.2275 92.0615 53.2275 91.0723C53.2275 90.2585 53.4478 89.5459 53.8884 88.9344C54.3335 88.3229 54.9383 87.8485 55.7026 87.5113C56.467 87.1696 57.3325 86.9987 58.2992 86.9987C59.2794 86.9987 60.1382 87.1696 60.8756 87.5113C61.6174 87.8485 62.1997 88.3184 62.6223 88.9209C63.045 89.5189 63.263 90.2068 63.2765 90.9847H60.8688ZM70.7611 90.6407V92.5291H64.8058V90.6407H70.7611ZM66.2761 88.1588H68.7175V97.8841C68.7175 98.2123 68.767 98.4641 68.8659 98.6395C68.9693 98.8103 69.1042 98.9272 69.2706 98.9902C69.4369 99.0531 69.6213 99.0846 69.8236 99.0846C69.9765 99.0846 70.1159 99.0734 70.2418 99.0509C70.3721 99.0284 70.4711 99.0082 70.5385 98.9902L70.9499 100.899C70.8195 100.944 70.6329 100.993 70.3901 101.047C70.1518 101.101 69.8596 101.133 69.5134 101.142C68.9019 101.16 68.3511 101.067 67.861 100.865C67.3709 100.658 66.982 100.339 66.6942 99.9074C66.411 99.4758 66.2716 98.9362 66.2761 98.2888V88.1588ZM75.7839 101.209C75.1275 101.209 74.5362 101.092 74.0102 100.858C73.4886 100.62 73.0749 100.269 72.7692 99.8063C72.4679 99.3431 72.3173 98.7721 72.3173 98.0932C72.3173 97.5087 72.4252 97.0253 72.6411 96.6432C72.8569 96.261 73.1514 95.9552 73.5246 95.7259C73.8977 95.4966 74.3181 95.3235 74.7858 95.2066C75.2579 95.0852 75.7457 94.9975 76.2493 94.9436C76.8563 94.8806 77.3486 94.8244 77.7263 94.775C78.104 94.721 78.3782 94.6401 78.5491 94.5322C78.7244 94.4198 78.8121 94.2467 78.8121 94.0129V93.9724C78.8121 93.4643 78.6615 93.0709 78.3603 92.7921C78.059 92.5134 77.6251 92.374 77.0586 92.374C76.4606 92.374 75.9862 92.5044 75.6355 92.7652C75.2893 93.0259 75.0555 93.3339 74.9341 93.6891L72.6545 93.3654C72.8344 92.7359 73.1311 92.2099 73.5448 91.7872C73.9584 91.3601 74.4643 91.0409 75.0623 90.8295C75.6603 90.6137 76.3212 90.5058 77.0451 90.5058C77.5442 90.5058 78.041 90.5643 78.5356 90.6812C79.0302 90.7981 79.4821 90.9914 79.8912 91.2612C80.3004 91.5264 80.6286 91.8884 80.8759 92.347C81.1277 92.8056 81.2536 93.3789 81.2536 94.0668V101H78.9065V99.5769H78.8256C78.6772 99.8647 78.4682 100.134 78.1984 100.386C77.9331 100.634 77.5981 100.834 77.1935 100.987C76.7933 101.135 76.3235 101.209 75.7839 101.209ZM76.4179 99.4151C76.908 99.4151 77.3329 99.3184 77.6926 99.1251C78.0523 98.9272 78.3288 98.6665 78.5221 98.3427C78.72 98.019 78.8189 97.666 78.8189 97.2839V96.0631C78.7424 96.1261 78.612 96.1845 78.4277 96.2385C78.2478 96.2925 78.0455 96.3397 77.8207 96.3801C77.5959 96.4206 77.3733 96.4566 77.153 96.488C76.9327 96.5195 76.7416 96.5465 76.5797 96.569C76.2156 96.6184 75.8896 96.6994 75.6018 96.8118C75.3141 96.9242 75.087 97.0815 74.9206 97.2839C74.7543 97.4817 74.6711 97.738 74.6711 98.0527C74.6711 98.5023 74.8352 98.8418 75.1634 99.0711C75.4917 99.3004 75.9098 99.4151 76.4179 99.4151ZM83.7085 101V90.6407H86.0758V92.3672H86.1837C86.3725 91.7692 86.6963 91.3084 87.1549 90.9847C87.618 90.6564 88.1463 90.4923 88.7398 90.4923C88.8747 90.4923 89.0253 90.4991 89.1917 90.5126C89.3625 90.5215 89.5042 90.5373 89.6166 90.5598V92.8056C89.5131 92.7697 89.349 92.7382 89.1242 92.7112C88.9039 92.6797 88.6903 92.664 88.4835 92.664C88.0384 92.664 87.6382 92.7607 87.283 92.954C86.9323 93.1428 86.6558 93.4059 86.4535 93.7431C86.2511 94.0803 86.15 94.4692 86.15 94.9099V101H83.7085ZM96.9679 90.6407V92.5291H91.0126V90.6407H96.9679ZM92.4829 88.1588H94.9244V97.8841C94.9244 98.2123 94.9738 98.4641 95.0727 98.6395C95.1761 98.8103 95.311 98.9272 95.4774 98.9902C95.6437 99.0531 95.8281 99.0846 96.0304 99.0846C96.1833 99.0846 96.3227 99.0734 96.4486 99.0509C96.579 99.0284 96.6779 99.0082 96.7453 98.9902L97.1567 100.899C97.0263 100.944 96.8397 100.993 96.5969 101.047C96.3586 101.101 96.0664 101.133 95.7202 101.142C95.1087 101.16 94.5579 101.067 94.0678 100.865C93.5777 100.658 93.1888 100.339 92.9011 99.9074C92.6178 99.4758 92.4784 98.9362 92.4829 98.2888V88.1588ZM105.612 96.6432V90.6407H108.054V101H105.687V99.1588H105.579C105.345 99.7388 104.96 100.213 104.425 100.582C103.895 100.951 103.241 101.135 102.463 101.135C101.784 101.135 101.184 100.984 100.662 100.683C100.145 100.377 99.7404 99.9344 99.4481 99.3544C99.1559 98.7699 99.0097 98.064 99.0097 97.2367V90.6407H101.451V96.859C101.451 97.5154 101.631 98.037 101.991 98.4237C102.35 98.8103 102.823 99.0037 103.407 99.0037C103.767 99.0037 104.115 98.916 104.452 98.7406C104.79 98.5653 105.066 98.3045 105.282 97.9583C105.502 97.6076 105.612 97.1692 105.612 96.6432ZM110.564 104.885V90.6407H112.965V92.3538H113.107C113.233 92.102 113.411 91.8344 113.64 91.5512C113.869 91.2634 114.179 91.0184 114.571 90.816C114.962 90.6092 115.461 90.5058 116.068 90.5058C116.868 90.5058 117.59 90.7104 118.233 91.1195C118.88 91.5242 119.393 92.1244 119.77 92.9203C120.153 93.7116 120.344 94.6828 120.344 95.8338C120.344 96.9714 120.157 97.9381 119.784 98.7339C119.411 99.5297 118.903 100.137 118.26 100.555C117.617 100.973 116.888 101.182 116.075 101.182C115.481 101.182 114.989 101.083 114.598 100.885C114.206 100.688 113.892 100.449 113.653 100.17C113.42 99.8872 113.237 99.6197 113.107 99.3679H113.006V104.885H110.564ZM112.959 95.8203C112.959 96.4903 113.053 97.077 113.242 97.5806C113.435 98.0842 113.712 98.4776 114.072 98.7609C114.436 99.0396 114.876 99.179 115.393 99.179C115.933 99.179 116.385 99.0351 116.749 98.7474C117.113 98.4551 117.387 98.0572 117.572 97.5536C117.761 97.0456 117.855 96.4678 117.855 95.8203C117.855 95.1774 117.763 94.6064 117.579 94.1073C117.394 93.6082 117.12 93.217 116.756 92.9338C116.392 92.6505 115.937 92.5089 115.393 92.5089C114.872 92.5089 114.429 92.646 114.065 92.9203C113.701 93.1946 113.424 93.579 113.235 94.0736C113.051 94.5681 112.959 95.1504 112.959 95.8203ZM129.755 87.1876V101H127.253V87.1876H129.755ZM134.799 94.9301V101H132.357V90.6407H134.691V92.401H134.812C135.05 91.821 135.43 91.3601 135.952 91.0184C136.478 90.6767 137.128 90.5058 137.901 90.5058C138.616 90.5058 139.239 90.6587 139.769 90.9644C140.304 91.2702 140.718 91.713 141.01 92.2931C141.307 92.8731 141.453 93.5767 141.448 94.404V101H139.007V94.7817C139.007 94.0893 138.827 93.5475 138.467 93.1563C138.112 92.7652 137.62 92.5696 136.99 92.5696C136.563 92.5696 136.183 92.664 135.851 92.8528C135.522 93.0372 135.264 93.3047 135.075 93.6554C134.891 94.0061 134.799 94.431 134.799 94.9301ZM149.178 90.6407V92.5291H143.054V90.6407H149.178ZM144.585 101V89.6628C144.585 88.9658 144.728 88.3858 145.016 87.9227C145.309 87.4596 145.7 87.1134 146.19 86.8841C146.68 86.6548 147.224 86.5401 147.822 86.5401C148.245 86.5401 148.62 86.5739 148.948 86.6413C149.276 86.7087 149.519 86.7694 149.677 86.8234L149.191 88.7118C149.088 88.6803 148.957 88.6489 148.8 88.6174C148.642 88.5814 148.467 88.5634 148.274 88.5634C147.82 88.5634 147.498 88.6736 147.309 88.8939C147.125 89.1097 147.033 89.42 147.033 89.8246V101H144.585ZM155.219 101.202C154.207 101.202 153.33 100.98 152.588 100.535C151.847 100.09 151.271 99.4668 150.862 98.6665C150.457 97.8661 150.255 96.9309 150.255 95.8608C150.255 94.7907 150.457 93.8532 150.862 93.0484C151.271 92.2436 151.847 91.6186 152.588 91.1735C153.33 90.7284 154.207 90.5058 155.219 90.5058C156.23 90.5058 157.107 90.7284 157.849 91.1735C158.591 91.6186 159.164 92.2436 159.569 93.0484C159.978 93.8532 160.183 94.7907 160.183 95.8608C160.183 96.9309 159.978 97.8661 159.569 98.6665C159.164 99.4668 158.591 100.09 157.849 100.535C157.107 100.98 156.23 101.202 155.219 101.202ZM155.232 99.2465C155.781 99.2465 156.239 99.0958 156.608 98.7946C156.977 98.4889 157.251 98.0797 157.431 97.5671C157.615 97.0546 157.707 96.4835 157.707 95.8541C157.707 95.2201 157.615 94.6468 157.431 94.1343C157.251 93.6172 156.977 93.2058 156.608 92.9C156.239 92.5943 155.781 92.4414 155.232 92.4414C154.67 92.4414 154.203 92.5943 153.829 92.9C153.461 93.2058 153.184 93.6172 153 94.1343C152.82 94.6468 152.73 95.2201 152.73 95.8541C152.73 96.4835 152.82 97.0546 153 97.5671C153.184 98.0797 153.461 98.4889 153.829 98.7946C154.203 99.0958 154.67 99.2465 155.232 99.2465ZM162.255 101V90.6407H164.622V92.3672H164.73C164.919 91.7692 165.243 91.3084 165.701 90.9847C166.164 90.6564 166.693 90.4923 167.286 90.4923C167.421 90.4923 167.572 90.4991 167.738 90.5126C167.909 90.5215 168.05 90.5373 168.163 90.5598V92.8056C168.059 92.7697 167.895 92.7382 167.67 92.7112C167.45 92.6797 167.237 92.664 167.03 92.664C166.585 92.664 166.184 92.7607 165.829 92.954C165.479 93.1428 165.202 93.4059 165 93.7431C164.797 94.0803 164.696 94.4692 164.696 94.9099V101H162.255ZM169.785 101V90.6407H172.118V92.401H172.24C172.456 91.8075 172.813 91.3444 173.312 91.0116C173.811 90.6744 174.407 90.5058 175.099 90.5058C175.801 90.5058 176.392 90.6767 176.873 91.0184C177.359 91.3556 177.7 91.8165 177.898 92.401H178.006C178.236 91.8254 178.622 91.3668 179.166 91.0251C179.715 90.6789 180.364 90.5058 181.115 90.5058C182.069 90.5058 182.846 90.8071 183.449 91.4095C184.051 92.012 184.353 92.8911 184.353 94.0466V101H181.904V94.4243C181.904 93.7813 181.734 93.3115 181.392 93.0147C181.05 92.7135 180.632 92.5628 180.137 92.5628C179.548 92.5628 179.088 92.7472 178.755 93.1159C178.427 93.4801 178.262 93.9544 178.262 94.5389V101H175.868V94.3231C175.868 93.7881 175.706 93.3609 175.383 93.0417C175.063 92.7224 174.645 92.5628 174.128 92.5628C173.777 92.5628 173.458 92.6528 173.171 92.8326C172.883 93.008 172.653 93.2575 172.483 93.5812C172.312 93.9005 172.226 94.2736 172.226 94.7008V101H169.785ZM189.81 101.209C189.154 101.209 188.563 101.092 188.037 100.858C187.515 100.62 187.101 100.269 186.796 99.8063C186.495 99.3431 186.344 98.7721 186.344 98.0932C186.344 97.5087 186.452 97.0253 186.668 96.6432C186.883 96.261 187.178 95.9552 187.551 95.7259C187.924 95.4966 188.345 95.3235 188.812 95.2066C189.284 95.0852 189.772 94.9975 190.276 94.9436C190.883 94.8806 191.375 94.8244 191.753 94.775C192.131 94.721 192.405 94.6401 192.576 94.5322C192.751 94.4198 192.839 94.2467 192.839 94.0129V93.9724C192.839 93.4643 192.688 93.0709 192.387 92.7921C192.086 92.5134 191.652 92.374 191.085 92.374C190.487 92.374 190.013 92.5044 189.662 92.7652C189.316 93.0259 189.082 93.3339 188.961 93.6891L186.681 93.3654C186.861 92.7359 187.158 92.2099 187.571 91.7872C187.985 91.3601 188.491 91.0409 189.089 90.8295C189.687 90.6137 190.348 90.5058 191.072 90.5058C191.571 90.5058 192.068 90.5643 192.562 90.6812C193.057 90.7981 193.509 90.9914 193.918 91.2612C194.327 91.5264 194.655 91.8884 194.902 92.347C195.154 92.8056 195.28 93.3789 195.28 94.0668V101H192.933V99.5769H192.852C192.704 99.8647 192.495 100.134 192.225 100.386C191.96 100.634 191.625 100.834 191.22 100.987C190.82 101.135 190.35 101.209 189.81 101.209ZM190.444 99.4151C190.935 99.4151 191.359 99.3184 191.719 99.1251C192.079 98.9272 192.355 98.6665 192.549 98.3427C192.747 98.019 192.845 97.666 192.845 97.2839V96.0631C192.769 96.1261 192.639 96.1845 192.454 96.2385C192.274 96.2925 192.072 96.3397 191.847 96.3801C191.622 96.4206 191.4 96.4566 191.18 96.488C190.959 96.5195 190.768 96.5465 190.606 96.569C190.242 96.6184 189.916 96.6994 189.628 96.8118C189.341 96.9242 189.114 97.0815 188.947 97.2839C188.781 97.4817 188.698 97.738 188.698 98.0527C188.698 98.5023 188.862 98.8418 189.19 99.0711C189.518 99.3004 189.936 99.4151 190.444 99.4151ZM202.908 90.6407V92.5291H196.953V90.6407H202.908ZM198.423 88.1588H200.864V97.8841C200.864 98.2123 200.914 98.4641 201.013 98.6395C201.116 98.8103 201.251 98.9272 201.417 98.9902C201.584 99.0531 201.768 99.0846 201.971 99.0846C202.123 99.0846 202.263 99.0734 202.389 99.0509C202.519 99.0284 202.618 99.0082 202.685 98.9902L203.097 100.899C202.966 100.944 202.78 100.993 202.537 101.047C202.299 101.101 202.006 101.133 201.66 101.142C201.049 101.16 200.498 101.067 200.008 100.865C199.518 100.658 199.129 100.339 198.841 99.9074C198.558 99.4758 198.418 98.9362 198.423 98.2888V88.1588ZM204.95 101V90.6407H207.391V101H204.95ZM206.177 89.1704C205.791 89.1704 205.458 89.0423 205.179 88.786C204.9 88.5252 204.761 88.2127 204.761 87.8485C204.761 87.4798 204.9 87.1674 205.179 86.9111C205.458 86.6503 205.791 86.5199 206.177 86.5199C206.568 86.5199 206.901 86.6503 207.175 86.9111C207.454 87.1674 207.594 87.4798 207.594 87.8485C207.594 88.2127 207.454 88.5252 207.175 88.786C206.901 89.0423 206.568 89.1704 206.177 89.1704ZM214.421 101.202C213.409 101.202 212.532 100.98 211.79 100.535C211.048 100.09 210.473 99.4668 210.064 98.6665C209.659 97.8661 209.457 96.9309 209.457 95.8608C209.457 94.7907 209.659 93.8532 210.064 93.0484C210.473 92.2436 211.048 91.6186 211.79 91.1735C212.532 90.7284 213.409 90.5058 214.421 90.5058C215.432 90.5058 216.309 90.7284 217.051 91.1735C217.793 91.6186 218.366 92.2436 218.771 93.0484C219.18 93.8532 219.384 94.7907 219.384 95.8608C219.384 96.9309 219.18 97.8661 218.771 98.6665C218.366 99.4668 217.793 100.09 217.051 100.535C216.309 100.98 215.432 101.202 214.421 101.202ZM214.434 99.2465C214.983 99.2465 215.441 99.0958 215.81 98.7946C216.179 98.4889 216.453 98.0797 216.633 97.5671C216.817 97.0546 216.909 96.4835 216.909 95.8541C216.909 95.2201 216.817 94.6468 216.633 94.1343C216.453 93.6172 216.179 93.2058 215.81 92.9C215.441 92.5943 214.983 92.4414 214.434 92.4414C213.872 92.4414 213.404 92.5943 213.031 92.9C212.663 93.2058 212.386 93.6172 212.202 94.1343C212.022 94.6468 211.932 95.2201 211.932 95.8541C211.932 96.4835 212.022 97.0546 212.202 97.5671C212.386 98.0797 212.663 98.4889 213.031 98.7946C213.404 99.0958 213.872 99.2465 214.434 99.2465ZM223.898 94.9301V101H221.457V90.6407H223.79V92.401H223.912C224.15 91.821 224.53 91.3601 225.051 91.0184C225.577 90.6767 226.227 90.5058 227 90.5058C227.715 90.5058 228.338 90.6587 228.869 90.9644C229.404 91.2702 229.817 91.713 230.11 92.2931C230.406 92.8731 230.552 93.5767 230.548 94.404V101H228.107V94.7817C228.107 94.0893 227.927 93.5475 227.567 93.1563C227.212 92.7652 226.719 92.5696 226.09 92.5696C225.663 92.5696 225.283 92.664 224.95 92.8528C224.622 93.0372 224.363 93.3047 224.175 93.6554C223.99 94.0061 223.898 94.431 223.898 94.9301Z" fill="#393939"/>
<circle cx="20" cy="240" r="15" stroke="#A3ABBB" stroke-width="2"/>
<path d="M15.3254 244.302V242.616L21.2941 233.188H22.6228V235.67H21.7797L17.5106 242.427V242.535H25.6915V244.302H15.3254ZM21.8742 247V243.79L21.8876 243.021V233.188H23.8637V247H21.8742Z" fill="#A3ABBB"/>
<path d="M58.0429 247H53.3624V233.188H58.1373C59.5087 233.188 60.6867 233.464 61.6714 234.017C62.6606 234.566 63.4204 235.355 63.951 236.384C64.4815 237.414 64.7468 238.646 64.7468 240.08C64.7468 241.519 64.4793 242.756 63.9442 243.79C63.4137 244.824 62.6471 245.617 61.6444 246.17C60.6462 246.723 59.4458 247 58.0429 247ZM55.8645 244.835H57.9215C58.8837 244.835 59.6863 244.66 60.3293 244.309C60.9722 243.954 61.4556 243.425 61.7793 242.724C62.103 242.018 62.2649 241.137 62.2649 240.08C62.2649 239.024 62.103 238.147 61.7793 237.45C61.4556 236.749 60.9767 236.225 60.3427 235.879C59.7133 235.528 58.9309 235.353 57.9957 235.353H55.8645V244.835ZM71.535 247.202C70.5233 247.202 69.6466 246.98 68.9047 246.535C68.1628 246.09 67.5873 245.467 67.1781 244.666C66.7735 243.866 66.5711 242.931 66.5711 241.861C66.5711 240.791 66.7735 239.853 67.1781 239.048C67.5873 238.244 68.1628 237.619 68.9047 237.173C69.6466 236.728 70.5233 236.506 71.535 236.506C72.5466 236.506 73.4234 236.728 74.1653 237.173C74.9072 237.619 75.4804 238.244 75.8851 239.048C76.2942 239.853 76.4988 240.791 76.4988 241.861C76.4988 242.931 76.2942 243.866 75.8851 244.666C75.4804 245.467 74.9072 246.09 74.1653 246.535C73.4234 246.98 72.5466 247.202 71.535 247.202ZM71.5485 245.246C72.097 245.246 72.5556 245.096 72.9243 244.795C73.293 244.489 73.5673 244.08 73.7471 243.567C73.9315 243.055 74.0236 242.484 74.0236 241.854C74.0236 241.22 73.9315 240.647 73.7471 240.134C73.5673 239.617 73.293 239.206 72.9243 238.9C72.5556 238.594 72.097 238.441 71.5485 238.441C70.9864 238.441 70.5188 238.594 70.1456 238.9C69.777 239.206 69.5004 239.617 69.3161 240.134C69.1362 240.647 69.0463 241.22 69.0463 241.854C69.0463 242.484 69.1362 243.055 69.3161 243.567C69.5004 244.08 69.777 244.489 70.1456 244.795C70.5188 245.096 70.9864 245.246 71.5485 245.246ZM83.0897 247.202C82.0556 247.202 81.1676 246.975 80.4257 246.521C79.6883 246.067 79.1196 245.44 78.7194 244.639C78.3237 243.835 78.1259 242.908 78.1259 241.861C78.1259 240.809 78.3282 239.88 78.7329 239.075C79.1375 238.266 79.7086 237.637 80.4459 237.187C81.1878 236.733 82.0646 236.506 83.0762 236.506C83.917 236.506 84.6612 236.661 85.3086 236.971C85.9606 237.277 86.4799 237.711 86.8666 238.273C87.2532 238.83 87.4735 239.482 87.5275 240.229H85.194C85.0995 239.73 84.8747 239.314 84.5195 238.981C84.1688 238.644 83.699 238.475 83.11 238.475C82.6109 238.475 82.1725 238.61 81.7948 238.88C81.4171 239.145 81.1226 239.527 80.9113 240.026C80.7045 240.525 80.6011 241.123 80.6011 241.82C80.6011 242.526 80.7045 243.133 80.9113 243.641C81.1181 244.145 81.4081 244.534 81.7813 244.808C82.159 245.078 82.6019 245.213 83.11 245.213C83.4697 245.213 83.7911 245.145 84.0744 245.01C84.3622 244.871 84.6027 244.671 84.796 244.41C84.9894 244.149 85.122 243.832 85.194 243.459H87.5275C87.469 244.192 87.2532 244.842 86.88 245.408C86.5069 245.97 85.9988 246.411 85.3558 246.73C84.7129 247.045 83.9575 247.202 83.0897 247.202ZM96.135 242.643V236.641H98.5764V247H96.2091V245.159H96.1012C95.8674 245.739 95.483 246.213 94.948 246.582C94.4174 246.951 93.7632 247.135 92.9854 247.135C92.3064 247.135 91.7062 246.984 91.1846 246.683C90.6675 246.377 90.2629 245.934 89.9706 245.354C89.6784 244.77 89.5323 244.064 89.5323 243.237V236.641H91.9737V242.859C91.9737 243.515 92.1536 244.037 92.5133 244.424C92.8729 244.81 93.3451 245.004 93.9296 245.004C94.2893 245.004 94.6377 244.916 94.9749 244.741C95.3122 244.565 95.5887 244.305 95.8045 243.958C96.0248 243.608 96.135 243.169 96.135 242.643ZM101.087 247V236.641H103.421V238.401H103.542C103.758 237.807 104.115 237.344 104.614 237.012C105.113 236.674 105.709 236.506 106.402 236.506C107.103 236.506 107.694 236.677 108.175 237.018C108.661 237.356 109.003 237.816 109.2 238.401H109.308C109.538 237.825 109.924 237.367 110.468 237.025C111.017 236.679 111.667 236.506 112.417 236.506C113.371 236.506 114.149 236.807 114.751 237.41C115.354 238.012 115.655 238.891 115.655 240.047V247H113.207V240.424C113.207 239.781 113.036 239.311 112.694 239.015C112.352 238.713 111.934 238.563 111.44 238.563C110.851 238.563 110.39 238.747 110.057 239.116C109.729 239.48 109.565 239.954 109.565 240.539V247H107.17V240.323C107.17 239.788 107.009 239.361 106.685 239.042C106.366 238.722 105.947 238.563 105.43 238.563C105.08 238.563 104.76 238.653 104.473 238.833C104.185 239.008 103.956 239.257 103.785 239.581C103.614 239.9 103.528 240.274 103.528 240.701V247H101.087ZM122.718 247.202C121.679 247.202 120.782 246.987 120.027 246.555C119.276 246.119 118.698 245.503 118.293 244.707C117.889 243.907 117.687 242.965 117.687 241.881C117.687 240.815 117.889 239.88 118.293 239.075C118.703 238.266 119.274 237.637 120.007 237.187C120.739 236.733 121.6 236.506 122.59 236.506C123.228 236.506 123.831 236.609 124.397 236.816C124.968 237.018 125.472 237.333 125.908 237.76C126.348 238.187 126.695 238.731 126.946 239.392C127.198 240.049 127.324 240.831 127.324 241.739V242.488H118.833V240.842H124.984C124.979 240.375 124.878 239.959 124.68 239.595C124.483 239.226 124.206 238.936 123.851 238.725C123.5 238.513 123.091 238.408 122.623 238.408C122.124 238.408 121.686 238.529 121.308 238.772C120.931 239.01 120.636 239.325 120.425 239.716C120.218 240.103 120.112 240.528 120.108 240.991V242.427C120.108 243.03 120.218 243.547 120.438 243.979C120.659 244.406 120.967 244.734 121.362 244.963C121.758 245.188 122.221 245.3 122.752 245.3C123.107 245.3 123.428 245.251 123.716 245.152C124.004 245.049 124.253 244.898 124.465 244.7C124.676 244.502 124.836 244.257 124.943 243.965L127.223 244.221C127.079 244.824 126.805 245.35 126.4 245.8C126 246.245 125.487 246.591 124.862 246.838C124.238 247.081 123.523 247.202 122.718 247.202ZM131.831 240.93V247H129.39V236.641H131.723V238.401H131.845C132.083 237.821 132.463 237.36 132.984 237.018C133.51 236.677 134.16 236.506 134.933 236.506C135.648 236.506 136.271 236.659 136.802 236.964C137.337 237.27 137.75 237.713 138.043 238.293C138.339 238.873 138.485 239.577 138.481 240.404V247H136.04V240.782C136.04 240.089 135.86 239.548 135.5 239.156C135.145 238.765 134.652 238.57 134.023 238.57C133.596 238.57 133.216 238.664 132.883 238.853C132.555 239.037 132.296 239.305 132.108 239.655C131.923 240.006 131.831 240.431 131.831 240.93ZM146.136 236.641V238.529H140.181V236.641H146.136ZM141.651 234.159H144.092V243.884C144.092 244.212 144.142 244.464 144.241 244.639C144.344 244.81 144.479 244.927 144.645 244.99C144.812 245.053 144.996 245.085 145.198 245.085C145.351 245.085 145.491 245.073 145.617 245.051C145.747 245.028 145.846 245.008 145.913 244.99L146.325 246.899C146.194 246.944 146.008 246.993 145.765 247.047C145.527 247.101 145.234 247.133 144.888 247.142C144.277 247.16 143.726 247.067 143.236 246.865C142.746 246.658 142.357 246.339 142.069 245.907C141.786 245.476 141.646 244.936 141.651 244.289V234.159ZM156.217 239.379L153.991 239.622C153.928 239.397 153.818 239.186 153.661 238.988C153.508 238.79 153.301 238.63 153.04 238.509C152.78 238.387 152.46 238.327 152.083 238.327C151.575 238.327 151.147 238.437 150.801 238.657C150.459 238.878 150.291 239.163 150.295 239.514C150.291 239.815 150.401 240.06 150.626 240.249C150.855 240.438 151.233 240.593 151.759 240.714L153.526 241.092C154.506 241.303 155.234 241.638 155.711 242.097C156.192 242.555 156.435 243.156 156.439 243.898C156.435 244.55 156.244 245.125 155.866 245.624C155.493 246.119 154.974 246.505 154.308 246.784C153.643 247.063 152.878 247.202 152.015 247.202C150.747 247.202 149.727 246.937 148.953 246.406C148.18 245.871 147.719 245.127 147.571 244.174L149.951 243.945C150.059 244.412 150.289 244.765 150.639 245.004C150.99 245.242 151.446 245.361 152.008 245.361C152.588 245.361 153.054 245.242 153.405 245.004C153.76 244.765 153.937 244.471 153.937 244.12C153.937 243.823 153.823 243.578 153.593 243.385C153.369 243.192 153.018 243.043 152.541 242.94L150.774 242.569C149.781 242.362 149.045 242.014 148.569 241.524C148.092 241.029 147.856 240.404 147.861 239.649C147.856 239.01 148.029 238.457 148.38 237.99C148.735 237.517 149.228 237.153 149.857 236.897C150.491 236.636 151.222 236.506 152.049 236.506C153.263 236.506 154.218 236.764 154.915 237.281C155.617 237.798 156.051 238.498 156.217 239.379ZM165.119 233.188L168.714 244.059H168.856L172.444 233.188H175.195L170.326 247H167.237L162.375 233.188H165.119ZM180.38 247.202C179.342 247.202 178.445 246.987 177.689 246.555C176.938 246.119 176.361 245.503 175.956 244.707C175.551 243.907 175.349 242.965 175.349 241.881C175.349 240.815 175.551 239.88 175.956 239.075C176.365 238.266 176.936 237.637 177.669 237.187C178.402 236.733 179.263 236.506 180.252 236.506C180.891 236.506 181.493 236.609 182.06 236.816C182.631 237.018 183.134 237.333 183.57 237.76C184.011 238.187 184.357 238.731 184.609 239.392C184.861 240.049 184.987 240.831 184.987 241.739V242.488H176.495V240.842H182.646C182.642 240.375 182.541 239.959 182.343 239.595C182.145 239.226 181.868 238.936 181.513 238.725C181.163 238.513 180.753 238.408 180.286 238.408C179.787 238.408 179.348 238.529 178.971 238.772C178.593 239.01 178.298 239.325 178.087 239.716C177.88 240.103 177.775 240.528 177.77 240.991V242.427C177.77 243.03 177.88 243.547 178.101 243.979C178.321 244.406 178.629 244.734 179.025 244.963C179.42 245.188 179.883 245.3 180.414 245.3C180.769 245.3 181.091 245.251 181.378 245.152C181.666 245.049 181.916 244.898 182.127 244.7C182.338 244.502 182.498 244.257 182.606 243.965L184.885 244.221C184.742 244.824 184.467 245.35 184.063 245.8C183.662 246.245 183.15 246.591 182.525 246.838C181.9 247.081 181.185 247.202 180.38 247.202ZM187.052 247V236.641H189.419V238.367H189.527C189.716 237.769 190.04 237.308 190.498 236.985C190.962 236.656 191.49 236.492 192.083 236.492C192.218 236.492 192.369 236.499 192.535 236.513C192.706 236.522 192.848 236.537 192.96 236.56V238.806C192.857 238.77 192.693 238.738 192.468 238.711C192.247 238.68 192.034 238.664 191.827 238.664C191.382 238.664 190.982 238.761 190.627 238.954C190.276 239.143 189.999 239.406 189.797 239.743C189.595 240.08 189.493 240.469 189.493 240.91V247H187.052ZM194.582 247V236.641H197.024V247H194.582ZM195.81 235.17C195.423 235.17 195.09 235.042 194.811 234.786C194.533 234.525 194.393 234.213 194.393 233.849C194.393 233.48 194.533 233.167 194.811 232.911C195.09 232.65 195.423 232.52 195.81 232.52C196.201 232.52 196.533 232.65 196.808 232.911C197.086 233.167 197.226 233.48 197.226 233.849C197.226 234.213 197.086 234.525 196.808 234.786C196.533 235.042 196.201 235.17 195.81 235.17ZM204.781 236.641V238.529H198.657V236.641H204.781ZM200.188 247V235.663C200.188 234.966 200.332 234.386 200.62 233.923C200.912 233.46 201.303 233.113 201.793 232.884C202.284 232.655 202.828 232.54 203.426 232.54C203.848 232.54 204.224 232.574 204.552 232.641C204.88 232.709 205.123 232.769 205.28 232.823L204.795 234.712C204.691 234.68 204.561 234.649 204.404 234.617C204.246 234.581 204.071 234.563 203.877 234.563C203.423 234.563 203.102 234.674 202.913 234.894C202.729 235.11 202.637 235.42 202.637 235.825V247H200.188ZM206.693 247V236.641H209.135V247H206.693ZM207.921 235.17C207.534 235.17 207.201 235.042 206.923 234.786C206.644 234.525 206.504 234.213 206.504 233.849C206.504 233.48 206.644 233.167 206.923 232.911C207.201 232.65 207.534 232.52 207.921 232.52C208.312 232.52 208.645 232.65 208.919 232.911C209.198 233.167 209.337 233.48 209.337 233.849C209.337 234.213 209.198 234.525 208.919 234.786C208.645 235.042 208.312 235.17 207.921 235.17ZM216.164 247.202C215.13 247.202 214.242 246.975 213.5 246.521C212.763 246.067 212.194 245.44 211.794 244.639C211.398 243.835 211.2 242.908 211.2 241.861C211.2 240.809 211.402 239.88 211.807 239.075C212.212 238.266 212.783 237.637 213.52 237.187C214.262 236.733 215.139 236.506 216.15 236.506C216.991 236.506 217.735 236.661 218.383 236.971C219.035 237.277 219.554 237.711 219.941 238.273C220.327 238.83 220.548 239.482 220.602 240.229H218.268C218.174 239.73 217.949 239.314 217.594 238.981C217.243 238.644 216.773 238.475 216.184 238.475C215.685 238.475 215.247 238.61 214.869 238.88C214.491 239.145 214.197 239.527 213.986 240.026C213.779 240.525 213.675 241.123 213.675 241.82C213.675 242.526 213.779 243.133 213.986 243.641C214.192 244.145 214.482 244.534 214.856 244.808C215.233 245.078 215.676 245.213 216.184 245.213C216.544 245.213 216.865 245.145 217.149 245.01C217.436 244.871 217.677 244.671 217.87 244.41C218.064 244.149 218.196 243.832 218.268 243.459H220.602C220.543 244.192 220.327 244.842 219.954 245.408C219.581 245.97 219.073 246.411 218.43 246.73C217.787 247.045 217.032 247.202 216.164 247.202ZM225.588 247.209C224.931 247.209 224.34 247.092 223.814 246.858C223.292 246.62 222.879 246.269 222.573 245.806C222.272 245.343 222.121 244.772 222.121 244.093C222.121 243.509 222.229 243.025 222.445 242.643C222.66 242.261 222.955 241.955 223.328 241.726C223.701 241.497 224.122 241.324 224.589 241.207C225.061 241.085 225.549 240.998 226.053 240.944C226.66 240.881 227.152 240.824 227.53 240.775C227.908 240.721 228.182 240.64 228.353 240.532C228.528 240.42 228.616 240.247 228.616 240.013V239.972C228.616 239.464 228.465 239.071 228.164 238.792C227.863 238.513 227.429 238.374 226.862 238.374C226.264 238.374 225.79 238.504 225.439 238.765C225.093 239.026 224.859 239.334 224.738 239.689L222.458 239.365C222.638 238.736 222.935 238.21 223.348 237.787C223.762 237.36 224.268 237.041 224.866 236.83C225.464 236.614 226.125 236.506 226.849 236.506C227.348 236.506 227.845 236.564 228.339 236.681C228.834 236.798 229.286 236.991 229.695 237.261C230.104 237.526 230.432 237.888 230.679 238.347C230.931 238.806 231.057 239.379 231.057 240.067V247H228.71V245.577H228.629C228.481 245.865 228.272 246.134 228.002 246.386C227.737 246.634 227.402 246.834 226.997 246.987C226.597 247.135 226.127 247.209 225.588 247.209ZM226.221 245.415C226.712 245.415 227.136 245.318 227.496 245.125C227.856 244.927 228.132 244.666 228.326 244.343C228.524 244.019 228.622 243.666 228.622 243.284V242.063C228.546 242.126 228.416 242.185 228.231 242.238C228.051 242.292 227.849 242.34 227.624 242.38C227.399 242.421 227.177 242.457 226.957 242.488C226.736 242.52 226.545 242.546 226.383 242.569C226.019 242.618 225.693 242.699 225.405 242.812C225.118 242.924 224.891 243.082 224.724 243.284C224.558 243.482 224.475 243.738 224.475 244.053C224.475 244.502 224.639 244.842 224.967 245.071C225.295 245.3 225.713 245.415 226.221 245.415ZM238.685 236.641V238.529H232.73V236.641H238.685ZM234.2 234.159H236.641V243.884C236.641 244.212 236.691 244.464 236.79 244.639C236.893 244.81 237.028 244.927 237.195 244.99C237.361 245.053 237.545 245.085 237.748 245.085C237.9 245.085 238.04 245.073 238.166 245.051C238.296 245.028 238.395 245.008 238.462 244.99L238.874 246.899C238.743 246.944 238.557 246.993 238.314 247.047C238.076 247.101 237.784 247.133 237.437 247.142C236.826 247.16 236.275 247.067 235.785 246.865C235.295 246.658 234.906 246.339 234.618 245.907C234.335 245.476 234.196 244.936 234.2 244.289V234.159ZM240.727 247V236.641H243.168V247H240.727ZM241.954 235.17C241.568 235.17 241.235 235.042 240.956 234.786C240.677 234.525 240.538 234.213 240.538 233.849C240.538 233.48 240.677 233.167 240.956 232.911C241.235 232.65 241.568 232.52 241.954 232.52C242.346 232.52 242.678 232.65 242.953 232.911C243.231 233.167 243.371 233.48 243.371 233.849C243.371 234.213 243.231 234.525 242.953 234.786C242.678 235.042 242.346 235.17 241.954 235.17ZM250.198 247.202C249.186 247.202 248.309 246.98 247.567 246.535C246.825 246.09 246.25 245.467 245.841 244.666C245.436 243.866 245.234 242.931 245.234 241.861C245.234 240.791 245.436 239.853 245.841 239.048C246.25 238.244 246.825 237.619 247.567 237.173C248.309 236.728 249.186 236.506 250.198 236.506C251.209 236.506 252.086 236.728 252.828 237.173C253.57 237.619 254.143 238.244 254.548 239.048C254.957 239.853 255.161 240.791 255.161 241.861C255.161 242.931 254.957 243.866 254.548 244.666C254.143 245.467 253.57 246.09 252.828 246.535C252.086 246.98 251.209 247.202 250.198 247.202ZM250.211 245.246C250.76 245.246 251.218 245.096 251.587 244.795C251.956 244.489 252.23 244.08 252.41 243.567C252.594 243.055 252.686 242.484 252.686 241.854C252.686 241.22 252.594 240.647 252.41 240.134C252.23 239.617 251.956 239.206 251.587 238.9C251.218 238.594 250.76 238.441 250.211 238.441C249.649 238.441 249.181 238.594 248.808 238.9C248.44 239.206 248.163 239.617 247.979 240.134C247.799 240.647 247.709 241.22 247.709 241.854C247.709 242.484 247.799 243.055 247.979 243.567C248.163 244.08 248.44 244.489 248.808 244.795C249.181 245.096 249.649 245.246 250.211 245.246ZM259.675 240.93V247H257.234V236.641H259.567V238.401H259.689C259.927 237.821 260.307 237.36 260.828 237.018C261.354 236.677 262.004 236.506 262.777 236.506C263.492 236.506 264.115 236.659 264.646 236.964C265.181 237.27 265.594 237.713 265.887 238.293C266.183 238.873 266.33 239.577 266.325 240.404V247H263.884V240.782C263.884 240.089 263.704 239.548 263.344 239.156C262.989 238.765 262.496 238.57 261.867 238.57C261.44 238.57 261.06 238.664 260.727 238.853C260.399 239.037 260.14 239.305 259.952 239.655C259.767 240.006 259.675 240.431 259.675 240.93Z" fill="#A3ABBB"/>
<circle cx="20" cy="167" r="15" stroke="#A3ABBB" stroke-width="2"/>
<path d="M20.5169 174.189C19.5906 174.189 18.7633 174.029 18.0349 173.71C17.3111 173.391 16.7378 172.948 16.3151 172.381C15.897 171.81 15.6722 171.149 15.6407 170.399H17.7584C17.7854 170.808 17.9225 171.163 18.1698 171.464C18.4216 171.761 18.7498 171.99 19.1545 172.152C19.5592 172.314 20.0088 172.395 20.5034 172.395C21.0474 172.395 21.5285 172.3 21.9467 172.112C22.3693 171.923 22.6998 171.66 22.9381 171.322C23.1764 170.981 23.2955 170.587 23.2955 170.142C23.2955 169.679 23.1764 169.272 22.9381 168.922C22.7043 168.566 22.3603 168.288 21.9062 168.085C21.4566 167.883 20.9125 167.782 20.2741 167.782H19.1073V166.082H20.2741C20.7866 166.082 21.2363 165.99 21.6229 165.806C22.0141 165.621 22.3198 165.365 22.5402 165.037C22.7605 164.704 22.8706 164.315 22.8706 163.87C22.8706 163.443 22.774 163.072 22.5806 162.757C22.3918 162.438 22.122 162.188 21.7713 162.009C21.4251 161.829 21.0159 161.739 20.5438 161.739C20.0942 161.739 19.6738 161.822 19.2826 161.988C18.896 162.15 18.5812 162.384 18.3384 162.69C18.0956 162.991 17.9653 163.353 17.9473 163.776H15.9307C15.9532 163.029 16.1735 162.373 16.5917 161.806C17.0143 161.24 17.5718 160.797 18.2643 160.478C18.9567 160.158 19.7255 159.999 20.5708 159.999C21.4566 159.999 22.2209 160.172 22.8639 160.518C23.5113 160.86 24.0104 161.316 24.3611 161.887C24.7163 162.458 24.8917 163.083 24.8872 163.762C24.8917 164.535 24.6759 165.192 24.2397 165.731C23.8081 166.271 23.2326 166.633 22.5132 166.817V166.925C23.4304 167.065 24.1408 167.429 24.6444 168.018C25.1525 168.607 25.4043 169.337 25.3998 170.21C25.4043 170.97 25.1929 171.651 24.7658 172.253C24.3431 172.856 23.7654 173.33 23.0325 173.676C22.2996 174.018 21.4611 174.189 20.5169 174.189Z" fill="#A3ABBB"/>
<path d="M65.1852 164.848H62.6628C62.5909 164.434 62.4582 164.068 62.2649 163.749C62.0715 163.425 61.831 163.151 61.5432 162.926C61.2555 162.701 60.9273 162.532 60.5586 162.42C60.1944 162.303 59.801 162.245 59.3783 162.245C58.6274 162.245 57.962 162.433 57.382 162.811C56.802 163.184 56.3479 163.733 56.0196 164.457C55.6914 165.176 55.5273 166.055 55.5273 167.094C55.5273 168.15 55.6914 169.041 56.0196 169.765C56.3523 170.484 56.8065 171.028 57.382 171.397C57.962 171.761 58.6252 171.943 59.3716 171.943C59.7852 171.943 60.1719 171.889 60.5316 171.781C60.8958 171.669 61.2218 171.505 61.5095 171.289C61.8018 171.073 62.0468 170.808 62.2447 170.493C62.447 170.178 62.5864 169.819 62.6628 169.414L65.1852 169.427C65.0908 170.084 64.8862 170.7 64.5714 171.275C64.2612 171.851 63.8543 172.359 63.3507 172.8C62.8471 173.236 62.2581 173.577 61.5837 173.825C60.9093 174.067 60.1607 174.189 59.3378 174.189C58.1239 174.189 57.0403 173.908 56.0871 173.346C55.1339 172.784 54.383 171.972 53.8345 170.911C53.2859 169.85 53.0117 168.578 53.0117 167.094C53.0117 165.606 53.2882 164.333 53.8412 163.276C54.3942 162.215 55.1474 161.404 56.1006 160.842C57.0538 160.28 58.1329 159.999 59.3378 159.999C60.1067 159.999 60.8216 160.107 61.4825 160.322C62.1435 160.538 62.7325 160.855 63.2496 161.273C63.7666 161.687 64.1915 162.195 64.5242 162.798C64.8615 163.396 65.0818 164.079 65.1852 164.848ZM70.3497 174.209C69.6932 174.209 69.102 174.092 68.5759 173.858C68.0543 173.62 67.6407 173.269 67.3349 172.806C67.0337 172.343 66.8831 171.772 66.8831 171.093C66.8831 170.509 66.991 170.025 67.2068 169.643C67.4226 169.261 67.7171 168.955 68.0903 168.726C68.4635 168.497 68.8839 168.324 69.3515 168.207C69.8236 168.085 70.3114 167.998 70.815 167.944C71.422 167.881 71.9144 167.824 72.292 167.775C72.6697 167.721 72.944 167.64 73.1148 167.532C73.2902 167.42 73.3779 167.247 73.3779 167.013V166.972C73.3779 166.464 73.2272 166.071 72.926 165.792C72.6248 165.513 72.1909 165.374 71.6243 165.374C71.0263 165.374 70.552 165.504 70.2013 165.765C69.8551 166.026 69.6213 166.334 69.4999 166.689L67.2203 166.365C67.4001 165.736 67.6969 165.21 68.1105 164.787C68.5242 164.36 69.03 164.041 69.628 163.83C70.226 163.614 70.887 163.506 71.6109 163.506C72.1099 163.506 72.6068 163.564 73.1014 163.681C73.5959 163.798 74.0478 163.991 74.457 164.261C74.8661 164.526 75.1943 164.888 75.4416 165.347C75.6934 165.806 75.8193 166.379 75.8193 167.067V174H73.4723V172.577H73.3914C73.243 172.865 73.0339 173.134 72.7641 173.386C72.4989 173.634 72.1639 173.834 71.7592 173.987C71.3591 174.135 70.8892 174.209 70.3497 174.209ZM70.9836 172.415C71.4737 172.415 71.8986 172.318 72.2583 172.125C72.618 171.927 72.8945 171.666 73.0879 171.343C73.2857 171.019 73.3846 170.666 73.3846 170.284V169.063C73.3082 169.126 73.1778 169.185 72.9934 169.238C72.8136 169.292 72.6113 169.34 72.3865 169.38C72.1616 169.421 71.9391 169.457 71.7188 169.488C71.4984 169.52 71.3074 169.546 71.1455 169.569C70.7813 169.618 70.4553 169.699 70.1676 169.812C69.8798 169.924 69.6527 170.082 69.4864 170.284C69.32 170.482 69.2368 170.738 69.2368 171.053C69.2368 171.502 69.401 171.842 69.7292 172.071C70.0574 172.3 70.4756 172.415 70.9836 172.415ZM83.4472 163.641V165.529H77.4919V163.641H83.4472ZM78.9622 161.159H81.4036V170.884C81.4036 171.212 81.4531 171.464 81.552 171.639C81.6554 171.81 81.7903 171.927 81.9567 171.99C82.123 172.053 82.3074 172.085 82.5097 172.085C82.6626 172.085 82.802 172.073 82.9279 172.051C83.0582 172.028 83.1572 172.008 83.2246 171.99L83.636 173.899C83.5056 173.944 83.319 173.993 83.0762 174.047C82.8379 174.101 82.5457 174.133 82.1995 174.142C81.588 174.16 81.0372 174.067 80.5471 173.865C80.057 173.658 79.6681 173.339 79.3803 172.907C79.0971 172.476 78.9577 171.936 78.9622 171.289V161.159ZM89.9639 174.202C88.9253 174.202 88.0283 173.987 87.2729 173.555C86.522 173.119 85.9443 172.503 85.5396 171.707C85.1349 170.907 84.9326 169.965 84.9326 168.881C84.9326 167.815 85.1349 166.88 85.5396 166.075C85.9488 165.266 86.5198 164.637 87.2527 164.187C87.9855 163.733 88.8466 163.506 89.8357 163.506C90.4742 163.506 91.0767 163.609 91.6432 163.816C92.2143 164.018 92.7178 164.333 93.154 164.76C93.5946 165.187 93.9408 165.731 94.1926 166.392C94.4444 167.049 94.5703 167.831 94.5703 168.739V169.488H86.0791V167.842H92.23C92.2255 167.375 92.1243 166.959 91.9265 166.595C91.7287 166.226 91.4521 165.936 91.0969 165.725C90.7462 165.513 90.3371 165.408 89.8695 165.408C89.3704 165.408 88.932 165.529 88.5543 165.772C88.1766 166.01 87.8821 166.325 87.6708 166.716C87.464 167.103 87.3583 167.528 87.3538 167.991V169.427C87.3538 170.03 87.464 170.547 87.6843 170.979C87.9046 171.406 88.2126 171.734 88.6083 171.963C89.0039 172.188 89.4671 172.3 89.9976 172.3C90.3528 172.3 90.6743 172.251 90.9621 172.152C91.2498 172.049 91.4994 171.898 91.7107 171.7C91.922 171.502 92.0816 171.257 92.1895 170.965L94.4691 171.221C94.3252 171.824 94.051 172.35 93.6463 172.8C93.2461 173.245 92.7336 173.591 92.1086 173.838C91.4836 174.081 90.7687 174.202 89.9639 174.202ZM101.141 178.101C100.264 178.101 99.5111 177.981 98.8816 177.743C98.2521 177.509 97.7463 177.195 97.3641 176.799C96.9819 176.403 96.7167 175.965 96.5683 175.484L98.7669 174.951C98.8659 175.153 99.0097 175.353 99.1986 175.551C99.3874 175.754 99.6415 175.92 99.9607 176.05C100.284 176.185 100.691 176.253 101.181 176.253C101.874 176.253 102.447 176.084 102.901 175.747C103.355 175.414 103.582 174.866 103.582 174.101V172.139H103.461C103.335 172.39 103.151 172.649 102.908 172.914C102.67 173.179 102.353 173.402 101.957 173.582C101.566 173.762 101.074 173.852 100.48 173.852C99.6842 173.852 98.9625 173.665 98.3151 173.292C97.6721 172.914 97.1595 172.352 96.7774 171.606C96.3997 170.855 96.2108 169.915 96.2108 168.787C96.2108 167.649 96.3997 166.689 96.7774 165.907C97.1595 165.12 97.6744 164.524 98.3218 164.12C98.9693 163.71 99.6909 163.506 100.487 163.506C101.094 163.506 101.593 163.609 101.984 163.816C102.38 164.018 102.694 164.263 102.928 164.551C103.162 164.834 103.34 165.102 103.461 165.354H103.596V163.641H106.004V174.169C106.004 175.054 105.792 175.787 105.37 176.367C104.947 176.947 104.369 177.381 103.636 177.669C102.903 177.957 102.072 178.101 101.141 178.101ZM101.161 171.936C101.678 171.936 102.119 171.81 102.483 171.559C102.847 171.307 103.124 170.945 103.313 170.473C103.501 170.001 103.596 169.434 103.596 168.773C103.596 168.121 103.501 167.55 103.313 167.06C103.128 166.57 102.854 166.19 102.49 165.92C102.13 165.646 101.687 165.509 101.161 165.509C100.617 165.509 100.163 165.651 99.7988 165.934C99.4346 166.217 99.1604 166.606 98.976 167.101C98.7917 167.591 98.6995 168.148 98.6995 168.773C98.6995 169.407 98.7917 169.962 98.976 170.439C99.1649 170.911 99.4414 171.28 99.8056 171.545C100.174 171.806 100.626 171.936 101.161 171.936ZM113.024 174.202C112.013 174.202 111.136 173.98 110.394 173.535C109.652 173.09 109.077 172.467 108.668 171.666C108.263 170.866 108.061 169.931 108.061 168.861C108.061 167.791 108.263 166.853 108.668 166.048C109.077 165.244 109.652 164.619 110.394 164.173C111.136 163.728 112.013 163.506 113.024 163.506C114.036 163.506 114.913 163.728 115.655 164.173C116.397 164.619 116.97 165.244 117.375 166.048C117.784 166.853 117.988 167.791 117.988 168.861C117.988 169.931 117.784 170.866 117.375 171.666C116.97 172.467 116.397 173.09 115.655 173.535C114.913 173.98 114.036 174.202 113.024 174.202ZM113.038 172.246C113.587 172.246 114.045 172.096 114.414 171.795C114.782 171.489 115.057 171.08 115.237 170.567C115.421 170.055 115.513 169.484 115.513 168.854C115.513 168.22 115.421 167.647 115.237 167.134C115.057 166.617 114.782 166.206 114.414 165.9C114.045 165.594 113.587 165.441 113.038 165.441C112.476 165.441 112.008 165.594 111.635 165.9C111.266 166.206 110.99 166.617 110.806 167.134C110.626 167.647 110.536 168.22 110.536 168.854C110.536 169.484 110.626 170.055 110.806 170.567C110.99 171.08 111.266 171.489 111.635 171.795C112.008 172.096 112.476 172.246 113.038 172.246ZM120.061 174V163.641H122.428V165.367H122.536C122.725 164.769 123.048 164.308 123.507 163.985C123.97 163.656 124.498 163.492 125.092 163.492C125.227 163.492 125.377 163.499 125.544 163.513C125.715 163.522 125.856 163.537 125.969 163.56V165.806C125.865 165.77 125.701 165.738 125.476 165.711C125.256 165.68 125.042 165.664 124.836 165.664C124.39 165.664 123.99 165.761 123.635 165.954C123.284 166.143 123.008 166.406 122.805 166.743C122.603 167.08 122.502 167.469 122.502 167.91V174H120.061ZM129.423 177.885C129.091 177.885 128.783 177.858 128.499 177.804C128.221 177.754 127.998 177.696 127.832 177.628L128.398 175.727C128.753 175.83 129.07 175.879 129.349 175.875C129.628 175.87 129.873 175.783 130.084 175.612C130.3 175.446 130.482 175.167 130.631 174.776L130.84 174.216L127.083 163.641H129.673L132.06 171.464H132.168L134.563 163.641H137.159L133.011 175.254C132.818 175.803 132.562 176.273 132.242 176.664C131.923 177.06 131.532 177.361 131.069 177.568C130.61 177.779 130.062 177.885 129.423 177.885Z" fill="#A3ABBB"/>
<line x1="20.5" y1="42" x2="20.5" y2="73" stroke="#1782CF"/>
<line x1="20.5" y1="115" x2="20.5" y2="146" stroke="#A3ABBB"/>
<line x1="20.5" y1="188" x2="20.5" y2="219" stroke="#A3ABBB"/>
</svg>
