<svg width="145" height="25" viewBox="0 0 145 25" fill="none" xmlns="http://www.w3.org/2000/svg">
<path d="M8.288 24L0.864 1.6H5.184L11.808 21.856H9.664L16.544 1.6H20.384L27.072 21.856H24.992L31.776 1.6H35.744L28.32 24H23.904L17.792 5.728H18.944L12.736 24H8.288ZM45.4998 24.224C43.6011 24.224 41.9371 23.8507 40.5078 23.104C39.0998 22.336 38.0011 21.2907 37.2118 19.968C36.4438 18.6453 36.0598 17.1413 36.0598 15.456C36.0598 13.7493 36.4331 12.2453 37.1798 10.944C37.9478 9.62133 38.9931 8.58667 40.3158 7.84C41.6598 7.09333 43.1851 6.72 44.8918 6.72C46.5558 6.72 48.0384 7.08267 49.3398 7.808C50.6411 8.53333 51.6651 9.55733 52.4118 10.88C53.1584 12.2027 53.5318 13.76 53.5318 15.552C53.5318 15.7227 53.5211 15.9147 53.4998 16.128C53.4998 16.3413 53.4891 16.544 53.4678 16.736H39.2278V14.08H51.3558L49.7878 14.912C49.8091 13.9307 49.6064 13.0667 49.1798 12.32C48.7531 11.5733 48.1664 10.9867 47.4198 10.56C46.6944 10.1333 45.8518 9.92 44.8918 9.92C43.9104 9.92 43.0464 10.1333 42.2998 10.56C41.5744 10.9867 40.9984 11.584 40.5718 12.352C40.1664 13.0987 39.9638 13.984 39.9638 15.008V15.648C39.9638 16.672 40.1984 17.5787 40.6678 18.368C41.1371 19.1573 41.7984 19.7653 42.6518 20.192C43.5051 20.6187 44.4864 20.832 45.5958 20.832C46.5558 20.832 47.4198 20.6827 48.1878 20.384C48.9558 20.0853 49.6384 19.616 50.2358 18.976L52.3798 21.44C51.6118 22.336 50.6411 23.0293 49.4678 23.52C48.3158 23.9893 46.9931 24.224 45.4998 24.224ZM66.846 24.224C65.3953 24.224 64.1047 23.904 62.974 23.264C61.8433 22.624 60.9473 21.664 60.286 20.384C59.646 19.0827 59.326 17.44 59.326 15.456C59.326 13.4507 59.6567 11.808 60.318 10.528C61.0007 9.248 61.9073 8.29867 63.038 7.68C64.19 7.04 65.4593 6.72 66.846 6.72C68.5313 6.72 70.014 7.08267 71.294 7.808C72.5953 8.53333 73.6193 9.54667 74.366 10.848C75.134 12.1493 75.518 13.6853 75.518 15.456C75.518 17.2267 75.134 18.7627 74.366 20.064C73.6193 21.3653 72.5953 22.3893 71.294 23.136C70.014 23.8613 68.5313 24.224 66.846 24.224ZM57.374 24V0.255999H61.374V10.88L61.054 15.424L61.182 19.968V24H57.374ZM66.398 20.8C67.358 20.8 68.2113 20.5867 68.958 20.16C69.726 19.7333 70.334 19.1147 70.782 18.304C71.23 17.4933 71.454 16.544 71.454 15.456C71.454 14.3467 71.23 13.3973 70.782 12.608C70.334 11.7973 69.726 11.1787 68.958 10.752C68.2113 10.3253 67.358 10.112 66.398 10.112C65.438 10.112 64.574 10.3253 63.806 10.752C63.038 11.1787 62.43 11.7973 61.982 12.608C61.534 13.3973 61.31 14.3467 61.31 15.456C61.31 16.544 61.534 17.4933 61.982 18.304C62.43 19.1147 63.038 19.7333 63.806 20.16C64.574 20.5867 65.438 20.8 66.398 20.8ZM87.1515 24.224C85.3595 24.224 83.7595 23.8507 82.3515 23.104C80.9648 22.336 79.8768 21.2907 79.0875 19.968C78.2982 18.6453 77.9035 17.1413 77.9035 15.456C77.9035 13.7493 78.2982 12.2453 79.0875 10.944C79.8768 9.62133 80.9648 8.58667 82.3515 7.84C83.7595 7.09333 85.3595 6.72 87.1515 6.72C88.8155 6.72 90.2768 7.06133 91.5355 7.744C92.8155 8.40533 93.7862 9.38667 94.4475 10.688L91.3755 12.48C90.8635 11.6693 90.2342 11.072 89.4875 10.688C88.7622 10.304 87.9728 10.112 87.1195 10.112C86.1382 10.112 85.2528 10.3253 84.4635 10.752C83.6742 11.1787 83.0555 11.7973 82.6075 12.608C82.1595 13.3973 81.9355 14.3467 81.9355 15.456C81.9355 16.5653 82.1595 17.5253 82.6075 18.336C83.0555 19.1253 83.6742 19.7333 84.4635 20.16C85.2528 20.5867 86.1382 20.8 87.1195 20.8C87.9728 20.8 88.7622 20.608 89.4875 20.224C90.2342 19.84 90.8635 19.2427 91.3755 18.432L94.4475 20.224C93.7862 21.504 92.8155 22.496 91.5355 23.2C90.2768 23.8827 88.8155 24.224 87.1515 24.224ZM108.433 24V20.544L108.209 19.808V13.76C108.209 12.5867 107.857 11.68 107.153 11.04C106.449 10.3787 105.383 10.048 103.953 10.048C102.993 10.048 102.044 10.1973 101.105 10.496C100.188 10.7947 99.4093 11.2107 98.7693 11.744L97.2013 8.832C98.1186 8.128 99.2066 7.60533 100.465 7.264C101.745 6.90133 103.068 6.72 104.433 6.72C106.908 6.72 108.817 7.31733 110.161 8.512C111.527 9.68533 112.209 11.5093 112.209 13.984V24H108.433ZM103.057 24.224C101.777 24.224 100.657 24.0107 99.6973 23.584C98.7373 23.136 97.9906 22.528 97.4573 21.76C96.9453 20.9707 96.6893 20.0853 96.6893 19.104C96.6893 18.144 96.9133 17.28 97.3613 16.512C97.8306 15.744 98.5879 15.136 99.6333 14.688C100.679 14.24 102.065 14.016 103.793 14.016H108.753V16.672H104.081C102.716 16.672 101.799 16.896 101.329 17.344C100.86 17.7707 100.625 18.304 100.625 18.944C100.625 19.6693 100.913 20.2453 101.489 20.672C102.065 21.0987 102.865 21.312 103.889 21.312C104.871 21.312 105.745 21.088 106.513 20.64C107.303 20.192 107.868 19.5307 108.209 18.656L108.881 21.056C108.497 22.0587 107.804 22.8373 106.801 23.392C105.82 23.9467 104.572 24.224 103.057 24.224ZM122.623 24.224C121.193 24.224 119.817 24.0427 118.495 23.68C117.193 23.296 116.159 22.8373 115.391 22.304L116.927 19.264C117.695 19.7547 118.612 20.16 119.679 20.48C120.745 20.8 121.812 20.96 122.879 20.96C124.137 20.96 125.044 20.7893 125.599 20.448C126.175 20.1067 126.463 19.648 126.463 19.072C126.463 18.6027 126.271 18.2507 125.887 18.016C125.503 17.76 125.001 17.568 124.383 17.44C123.764 17.312 123.071 17.1947 122.303 17.088C121.556 16.9813 120.799 16.8427 120.031 16.672C119.284 16.48 118.601 16.2133 117.983 15.872C117.364 15.5093 116.863 15.0293 116.479 14.432C116.095 13.8347 115.903 13.0453 115.903 12.064C115.903 10.976 116.212 10.0373 116.831 9.248C117.449 8.43733 118.313 7.81867 119.423 7.392C120.553 6.944 121.887 6.72 123.423 6.72C124.575 6.72 125.737 6.848 126.911 7.104C128.084 7.36 129.055 7.72267 129.823 8.192L128.287 11.232C127.476 10.7413 126.655 10.4107 125.823 10.24C125.012 10.048 124.201 9.952 123.391 9.952C122.175 9.952 121.268 10.1333 120.671 10.496C120.095 10.8587 119.807 11.3173 119.807 11.872C119.807 12.384 119.999 12.768 120.383 13.024C120.767 13.28 121.268 13.4827 121.887 13.632C122.505 13.7813 123.188 13.9093 123.935 14.016C124.703 14.1013 125.46 14.24 126.207 14.432C126.953 14.624 127.636 14.8907 128.255 15.232C128.895 15.552 129.407 16.0107 129.791 16.608C130.175 17.2053 130.367 17.984 130.367 18.944C130.367 20.0107 130.047 20.9387 129.407 21.728C128.788 22.5173 127.903 23.136 126.751 23.584C125.599 24.0107 124.223 24.224 122.623 24.224ZM140.244 24.224C138.366 24.224 136.916 23.744 135.891 22.784C134.868 21.8027 134.356 20.3627 134.356 18.464V3.136H138.356V18.368C138.356 19.1787 138.558 19.808 138.964 20.256C139.39 20.704 139.977 20.928 140.724 20.928C141.62 20.928 142.366 20.6933 142.964 20.224L144.084 23.072C143.614 23.456 143.038 23.744 142.356 23.936C141.673 24.128 140.969 24.224 140.244 24.224ZM131.54 10.24V7.04H142.932V10.24H131.54Z" fill="black"/>
</svg>
